<svg xmlns="http://www.w3.org/2000/svg" xmlns:xlink="http://www.w3.org/1999/xlink" version="1.1" id="Layer_1" x="0px" y="0px" width="100%" viewBox="0 0 404 398" enable-background="new 0 0 404 398" xml:space="preserve" background="white" fill="black" >
<path fill="black" opacity="0.000000" stroke="none" d=" M237.000000,399.000000   C158.000000,399.000000 79.500000,399.000000 1.000000,399.000000   C1.000000,266.333344 1.000000,133.666672 1.000000,1.000000   C135.666672,1.000000 270.333344,1.000000 405.000000,1.000000   C405.000000,133.666672 405.000000,266.333344 405.000000,399.000000   C349.166656,399.000000 293.333344,399.000000 237.000000,399.000000  M231.684967,300.798035   C231.733566,300.205902 231.782166,299.613770 231.984390,298.187408   C232.313644,287.036530 240.363205,276.203918 251.672455,274.925842   C254.225571,274.637329 256.676239,273.442322 259.174072,272.664612   C258.973907,272.146545 258.773712,271.628479 258.573547,271.110413   C246.981552,270.142792 237.623459,273.989227 230.990570,285.397247   C230.990570,280.669891 231.180328,277.043793 230.851654,273.465302   C230.773499,272.614471 228.960236,271.922974 227.123825,271.432098   C227.082596,294.118927 227.031616,316.805786 227.040573,339.492584   C227.040894,340.288147 227.637405,341.083466 228.636902,342.035217   C229.098160,341.990631 229.559433,341.946075 230.563507,341.951843   C230.674683,341.642639 230.785858,341.333405 231.032913,340.092468   C231.064835,327.082886 231.096756,314.073334 231.684967,300.798035  M197.025055,288.074951   C195.829178,281.886353 193.162338,276.565277 187.067215,274.037354   C171.474884,267.570374 157.198761,270.563477 143.645920,280.679688   C144.658737,281.858856 145.545410,282.891174 146.439224,283.931793   C152.412994,278.472504 160.365173,274.543243 168.011307,274.057861   C180.167496,273.286133 188.737473,275.667114 192.089478,285.772797   C193.835037,291.035248 193.872299,296.864380 194.758423,302.969666   C189.069229,302.969666 184.602432,302.849976 180.144424,302.996826   C172.889694,303.235687 165.610626,303.347015 158.397049,304.066101   C149.683609,304.934753 142.695602,311.635376 142.014297,319.050751   C141.054016,329.502441 145.686417,338.140961 155.108948,340.320404   C162.213409,341.963684 169.981705,342.599365 177.148132,341.563599   C183.690460,340.618103 189.950394,336.997437 193.829575,330.406738   C194.210999,334.233765 194.592422,338.060791 195.653763,342.028229   C196.111542,341.979980 196.569321,341.931732 197.856827,341.613068   C197.914093,324.856445 197.985641,308.099854 197.986130,291.343231   C197.986160,290.512787 197.367752,289.682373 197.025055,288.074951  M337.347992,239.988190   C336.888611,240.035995 336.429199,240.083786 335.142944,240.402573   C335.096497,254.767487 335.077484,269.132629 334.961792,283.496979   C334.950073,284.955353 334.356445,286.409058 333.768066,287.245239   C332.561493,285.712677 331.432373,284.110962 330.135590,282.658997   C322.869080,274.522888 313.967712,270.685394 302.851990,270.851562   C294.204681,270.980835 286.830566,273.361267 280.502319,279.054016   C271.584106,287.076691 268.200867,297.383331 269.070007,309.064331   C270.018372,321.809998 275.557434,331.899017 286.935120,338.544067   C293.924927,342.626404 301.456207,342.010071 308.967316,342.019989   C319.374542,342.033722 330.430450,334.104980 334.853699,324.430237   C334.903687,326.380981 334.882080,328.336761 335.018799,330.281403   C335.290894,334.152557 335.649994,338.017609 336.652405,342.030457   C337.110474,341.982513 337.568542,341.934570 338.857117,341.616516   C338.904236,308.414032 338.956665,275.211548 338.958008,242.009064   C338.958038,241.382751 338.352783,240.756393 337.347992,239.988190  M117.310524,200.223602   C113.760559,199.808243 110.177605,199.575714 106.667046,198.942062   C97.445747,197.277557 88.601051,194.489456 83.572472,185.812622   C81.547577,182.318649 81.058159,177.934814 79.594681,173.131561   C74.519760,173.131561 69.444839,173.131561 63.635544,173.131561   C64.106087,176.681046 64.535934,179.923599 64.973022,183.952652   C66.110687,190.849304 69.489059,196.496841 74.479218,201.303802   C85.775726,212.185547 99.708015,215.768158 115.284912,216.813629   C135.889038,216.874008 156.493179,216.943619 177.097321,216.953552   C177.768250,216.953873 178.439453,216.345673 179.856247,215.585190   C179.523651,210.707718 179.191040,205.830246 178.577698,200.132065   C158.413101,200.143692 138.248489,200.155319 117.310524,200.223602  M281.030487,129.010284   C228.370728,129.046616 175.710953,129.082962 122.126770,128.951065   C112.174004,129.517578 102.707848,128.121338 93.710342,123.334785   C86.516945,119.507996 81.966217,114.154579 81.059349,106.015869   C79.945404,96.018845 82.341560,87.636047 91.491280,81.838936   C99.687225,76.646118 108.701851,75.335075 118.706802,74.957809   C119.496193,74.681580 120.285583,74.405357 122.001450,74.075821   C140.677246,74.014557 159.353027,73.953285 178.571564,73.923752   C178.760849,73.626450 178.950134,73.329155 179.866394,72.566742   C179.919693,69.075768 179.836563,65.575844 180.064972,62.096367   C180.289673,58.673374 178.674713,57.892178 175.573685,57.922581   C163.093246,58.044910 150.604019,57.714489 138.131256,58.047394   C126.270721,58.363956 114.340111,58.635311 102.602158,60.166920   C92.811806,61.444393 83.367134,64.872734 75.784622,71.755951   C66.526627,80.160126 63.325321,90.873611 63.956047,103.144073   C64.740868,118.412399 71.724861,129.738419 85.064110,136.972244   C96.202721,143.012680 108.306335,145.298782 121.316650,145.807388   C138.770081,145.871704 156.223526,145.994812 173.676941,145.988174   C211.087067,145.973969 248.497147,145.892776 286.796600,145.978470   C294.231232,147.513947 301.922272,148.307739 309.037506,150.767151   C318.554169,154.056641 324.482361,161.544006 324.728638,171.653015   C324.978210,181.896408 320.484222,190.655701 310.465240,194.607635   C303.624847,197.305832 296.134857,198.357178 288.010590,200.048904   C262.011322,199.992737 236.012070,199.936584 210.025238,198.958176   C209.967499,187.297836 209.909744,175.637497 209.909561,163.461823   C209.616104,163.363251 209.322632,163.264694 208.105255,163.022079   C203.723785,163.069290 199.342331,163.116501 194.450089,163.089157   C194.341690,163.381897 194.233276,163.674637 193.958984,164.895889   C194.010376,181.941971 194.061768,198.988068 194.391434,216.860794   C224.572189,216.859589 254.752930,216.858368 285.804260,216.982651   C288.224274,216.655624 290.637482,216.262436 293.065430,216.012466   C307.275909,214.549423 320.071014,210.555740 330.775940,200.016602   C344.031219,186.966614 345.006531,158.582092 330.728119,145.260376   C327.731079,142.464111 324.330078,140.100769 320.987396,137.436035   C345.176880,123.901649 346.209106,95.296646 333.781860,78.893776   C321.808167,63.089550 304.228729,58.579605 284.950897,58.454437   C284.642365,58.345985 284.333862,58.237534 283.095428,57.978714   C253.719559,58.030586 224.343674,58.082458 194.443665,58.071548   C194.333725,58.371002 194.223785,58.670456 193.959152,59.899803   C194.010330,77.608917 194.061508,95.318031 194.073334,113.548172   C194.369217,113.649239 194.665085,113.750313 195.886307,113.992462   C200.265152,113.945862 204.643997,113.899269 209.545868,113.919228   C209.653915,113.620415 209.761948,113.321602 210.014160,112.092422   C210.014160,99.510109 210.014160,86.927795 210.014160,74.497910   C210.916794,74.261940 211.224365,74.111168 211.531921,74.111160   C235.664047,74.110870 259.796173,74.122398 284.265259,74.733231   C285.167236,74.767395 286.069183,74.801552 287.858002,75.000885   C295.156097,76.443626 302.678864,77.200935 309.695801,79.501366   C318.609375,82.423607 326.109253,94.636154 324.872101,103.141655   C323.050964,115.662270 316.911285,122.304916 304.576080,125.760368   C297.294189,127.800247 289.513245,128.058609 281.030487,129.010284  M112.408432,275.858429   C116.942215,278.644958 121.475990,281.431458 127.181023,284.937836   C126.321495,282.720032 126.139008,280.662750 125.015648,279.599213   C115.185692,270.292572 103.041336,268.946838 90.802620,271.929810   C75.854408,275.573212 67.856056,286.724457 66.223877,301.471710   C64.626129,315.907837 69.138313,328.556274 81.762566,337.276215   C88.966309,342.252075 97.107216,342.217773 105.354446,342.045502   C114.458038,341.855347 121.615990,338.151001 127.180824,330.922607   C124.353203,327.054565 122.521233,329.786377 120.854088,331.647034   C111.382599,342.217804 90.612541,341.507385 80.669327,331.978485   C72.229568,323.890442 69.158173,313.789307 70.773102,301.782227   C72.145744,291.576508 76.587044,283.945648 85.008530,278.554871   C93.338387,273.222717 102.451141,272.930420 112.408432,275.858429  z"/>
<path fill="black" opacity="1.000000" stroke="none" d=" M194.967804,58.134331   C224.343674,58.082458 253.719559,58.030586 283.686646,58.256279   C284.515747,58.759487 284.795746,58.903244 285.117767,58.965118   C304.228729,58.579605 321.808167,63.089550 333.781860,78.893776   C346.209106,95.296646 345.176880,123.901649 320.987396,137.436035   C324.330078,140.100769 327.731079,142.464111 330.728119,145.260376   C345.006531,158.582092 344.031219,186.966614 330.775940,200.016602   C320.071014,210.555740 307.275909,214.549423 293.065430,216.012466   C290.637482,216.262436 288.224274,216.655624 285.079163,216.625885   C283.368591,216.173782 282.383087,215.995117 281.397614,215.995178   C252.302795,215.997284 223.207977,216.017120 194.113159,216.034149   C194.061768,198.988068 194.010376,181.941971 194.230835,164.357666   C194.729843,163.652893 194.882568,163.434311 194.960861,163.163712   C199.342331,163.116501 203.723785,163.069290 208.658188,163.271515   C209.374832,163.743103 209.588455,163.895187 209.851990,163.977158   C209.909744,175.637497 209.967499,187.297836 210.260025,199.769638   C211.302444,200.720612 212.110031,200.981567 212.917740,200.981979   C237.002701,200.994049 261.087708,200.992676 285.172577,200.935577   C286.427429,200.932617 287.681091,200.420105 288.935303,200.144806   C296.134857,198.357178 303.624847,197.305832 310.465240,194.607635   C320.484222,190.655701 324.978210,181.896408 324.728638,171.653015   C324.482361,161.544006 318.554169,154.056641 309.037506,150.767151   C301.922272,148.307739 294.231232,147.513947 286.057373,145.624512   C283.994385,145.173706 282.670624,144.992355 281.346832,144.992264   C227.873260,144.988342 174.399689,145.000793 120.926125,145.011169   C108.306335,145.298782 96.202721,143.012680 85.064110,136.972244   C71.724861,129.738419 64.740868,118.412399 63.956047,103.144073   C63.325321,90.873611 66.526627,80.160126 75.784622,71.755951   C83.367134,64.872734 92.811806,61.444393 102.602158,60.166920   C114.340111,58.635311 126.270721,58.363956 138.131256,58.047394   C150.604019,57.714489 163.093246,58.044910 175.573685,57.922581   C178.674713,57.892178 180.289673,58.673374 180.064972,62.096367   C179.836563,65.575844 179.919693,69.075768 179.269440,72.878662   C178.334106,73.310768 178.119553,73.544579 178.028824,73.892014   C159.353027,73.953285 140.677246,74.014557 121.358368,73.834106   C119.819771,74.005875 118.924248,74.419365 118.028732,74.832855   C108.701851,75.335075 99.687225,76.646118 91.491280,81.838936   C82.341560,87.636047 79.945404,96.018845 81.059349,106.015869   C81.966217,114.154579 86.516945,119.507996 93.710342,123.334785   C102.707848,128.121338 112.174004,129.517578 122.886841,129.320190   C124.630875,129.792587 125.614807,129.985931 126.598793,129.986206   C176.978241,130.000977 227.357681,130.006470 277.737091,129.962463   C279.143860,129.961227 280.550201,129.411880 281.956726,129.118134   C289.513245,128.058609 297.294189,127.800247 304.576080,125.760368   C316.911285,122.304916 323.050964,115.662270 324.872101,103.141655   C326.109253,94.636154 318.609375,82.423607 309.695801,79.501366   C302.678864,77.200935 295.156097,76.443626 287.364563,74.598549   C285.890198,74.175148 284.909271,74.154083 283.928314,74.133026   C259.796173,74.122398 235.664047,74.110870 211.531921,74.111160   C211.224365,74.111168 210.916794,74.261940 210.014160,74.497910   C210.014160,86.927795 210.014160,99.510109 209.755966,112.644394   C209.266998,113.362686 209.108688,113.581459 209.022842,113.852669   C204.643997,113.899269 200.265152,113.945862 195.340668,113.730774   C194.633408,113.220177 194.405960,113.072861 194.112701,113.027145   C194.061508,95.318031 194.010330,77.608917 194.234619,59.362068   C194.753693,58.654743 194.906265,58.424740 194.967804,58.134331  z"/>
<path fill="black" opacity="1.000000" stroke="none" d=" M178.858459,200.952774   C179.191040,205.830246 179.523651,210.707718 179.007751,215.790619   C157.060883,216.006332 135.962509,216.016602 114.864151,216.026886   C99.708015,215.768158 85.775726,212.185547 74.479218,201.303802   C69.489059,196.496841 66.110687,190.849304 65.020233,183.094391   C65.067451,179.665695 65.067451,177.095276 65.067451,173.955978   C70.382675,173.955978 75.126297,173.955978 79.869919,173.955978   C81.058159,177.934814 81.547577,182.318649 83.572472,185.812622   C88.601051,194.489456 97.445747,197.277557 106.667046,198.942062   C110.177605,199.575714 113.760559,199.808243 118.002014,200.466965   C138.748489,200.791153 158.803467,200.871964 178.858459,200.952774  z"/>
<path fill="black" opacity="1.000000" stroke="none" d=" M334.035461,324.147064   C330.430450,334.104980 319.374542,342.033722 308.967316,342.019989   C301.456207,342.010071 293.924927,342.626404 286.935120,338.544067   C275.557434,331.899017 270.018372,321.809998 269.070007,309.064331   C268.200867,297.383331 271.584106,287.076691 280.502319,279.054016   C286.830566,273.361267 294.204681,270.980835 302.851990,270.851562   C313.967712,270.685394 322.869080,274.522888 330.135590,282.658997   C331.432373,284.110962 332.561493,285.712677 333.896057,287.906555   C334.395508,289.157440 334.766968,289.747009 335.969818,291.655975   C335.969818,273.447418 335.969818,256.789490 335.969818,240.131577   C336.429199,240.083786 336.888611,240.035995 337.675018,240.519226   C338.010254,274.662384 338.018433,308.274506 338.026611,341.886627   C337.568542,341.934570 337.110474,341.982513 336.328552,341.496887   C336.004669,334.606720 336.004669,328.250122 336.004669,321.893494   C335.672028,321.848022 335.339417,321.802521 335.006775,321.757050   C334.683014,322.553711 334.359253,323.350403 334.035461,324.147064  M291.691101,337.006592   C301.246429,340.680969 310.756500,339.991760 319.371338,334.929657   C332.600189,327.156403 337.843048,311.460480 333.686798,296.557709   C329.052673,279.941437 313.848480,270.861877 297.215851,274.959839   C283.027893,278.455475 276.041107,286.537567 274.008789,301.445770   C271.809448,317.579620 277.598816,329.765869 291.691101,337.006592  z"/>
<path fill="black" opacity="1.000000" stroke="none" d=" M193.026917,330.113586   C189.950394,336.997437 183.690460,340.618103 177.148132,341.563599   C169.981705,342.599365 162.213409,341.963684 155.108948,340.320404   C145.686417,338.140961 141.054016,329.502441 142.014297,319.050751   C142.695602,311.635376 149.683609,304.934753 158.397049,304.066101   C165.610626,303.347015 172.889694,303.235687 180.144424,302.996826   C184.602432,302.849976 189.069229,302.969666 194.758423,302.969666   C193.872299,296.864380 193.835037,291.035248 192.089478,285.772797   C188.737473,275.667114 180.167496,273.286133 168.011307,274.057861   C160.365173,274.543243 152.412994,278.472504 146.439224,283.931793   C145.545410,282.891174 144.658737,281.858856 143.645920,280.679688   C157.198761,270.563477 171.474884,267.570374 187.067215,274.037354   C193.162338,276.565277 195.829178,281.886353 197.000305,288.940826   C196.992722,307.165619 197.009918,324.524567 197.027100,341.883484   C196.569321,341.931732 196.111542,341.979980 195.332855,341.501404   C195.002701,337.410583 195.043610,333.845032 194.934738,330.284058   C194.916656,329.692749 194.245163,329.121460 193.875626,328.540924   C193.592712,329.065155 193.309814,329.589355 193.026917,330.113586  M159.393890,307.151215   C158.221542,307.642273 157.091232,308.327301 155.869827,308.591827   C149.449326,309.982513 147.037643,315.003143 146.160019,320.483002   C145.246765,326.185364 147.151535,331.629150 151.892349,335.273529   C156.790161,339.038574 162.700394,339.140839 168.693024,339.020386   C179.516083,338.802856 187.868286,334.256775 191.846710,324.320465   C193.931534,319.113586 193.363831,312.844666 193.496246,306.365479   C188.072174,306.238281 182.645798,305.949921 177.224686,306.028076   C171.509262,306.110474 165.798874,306.542755 159.393890,307.151215  z"/>
<path fill="black" opacity="1.000000" stroke="none" d=" M112.106018,275.582672   C102.451141,272.930420 93.338387,273.222717 85.008530,278.554871   C76.587044,283.945648 72.145744,291.576508 70.773102,301.782227   C69.158173,313.789307 72.229568,323.890442 80.669327,331.978485   C90.612541,341.507385 111.382599,342.217804 120.854088,331.647034   C122.521233,329.786377 124.353203,327.054565 127.180824,330.922607   C121.615990,338.151001 114.458038,341.855347 105.354446,342.045502   C97.107216,342.217773 88.966309,342.252075 81.762566,337.276215   C69.138313,328.556274 64.626129,315.907837 66.223877,301.471710   C67.856056,286.724457 75.854408,275.573212 90.802620,271.929810   C103.041336,268.946838 115.185692,270.292572 125.015648,279.599213   C126.139008,280.662750 126.321495,282.720032 127.181023,284.937836   C121.475990,281.431458 116.942215,278.644958 112.106018,275.582672  z"/>
<path fill="black" opacity="1.000000" stroke="none" d=" M227.945068,271.158203   C228.960236,271.922974 230.773499,272.614471 230.851654,273.465302   C231.180328,277.043793 230.990570,280.669891 230.990570,285.397247   C237.623459,273.989227 246.981552,270.142792 258.573547,271.110413   C258.773712,271.628479 258.973907,272.146545 259.174072,272.664612   C256.676239,273.442322 254.225571,274.637329 251.672455,274.925842   C240.363205,276.203918 232.313644,287.036530 231.620926,298.643005   C231.214523,299.753632 231.171585,300.408691 231.128662,301.063751   C231.096756,314.073334 231.064835,327.082886 230.759064,340.635620   C230.224960,341.351929 230.070114,341.592834 230.020691,341.901489   C229.559433,341.946075 229.098160,341.990631 228.323227,341.496826   C227.988068,317.691711 227.966568,294.424957 227.945068,271.158203  z"/>
<path fill="black" opacity="1.000000" stroke="none" d=" M121.121384,145.409271   C174.399689,145.000793 227.873260,144.988342 281.346832,144.992264   C282.670624,144.992355 283.994385,145.173706 285.612732,145.554779   C248.497147,145.892776 211.087067,145.973969 173.676941,145.988174   C156.223526,145.994812 138.770081,145.871704 121.121384,145.409271  z"/>
<path fill="black" opacity="1.000000" stroke="none" d=" M281.493591,129.064209   C280.550201,129.411880 279.143860,129.961227 277.737091,129.962463   C227.357681,130.006470 176.978241,130.000977 126.598793,129.986206   C125.614807,129.985931 124.630875,129.792587 123.349052,129.404297   C175.710953,129.082962 228.370728,129.046616 281.493591,129.064209  z"/>
<path fill="black" opacity="1.000000" stroke="none" d=" M338.441864,341.751587   C338.018433,308.274506 338.010254,274.662384 338.015991,240.590149   C338.352783,240.756393 338.958038,241.382751 338.958008,242.009064   C338.956665,275.211548 338.904236,308.414032 338.441864,341.751587  z"/>
<path fill="black" opacity="1.000000" stroke="none" d=" M194.252289,216.447464   C223.207977,216.017120 252.302795,215.997284 281.397614,215.995178   C282.383087,215.995117 283.368591,216.173782 284.643860,216.563141   C254.752930,216.858368 224.572189,216.859589 194.252289,216.447464  z"/>
<path fill="black" opacity="1.000000" stroke="none" d=" M288.472961,200.096863   C287.681091,200.420105 286.427429,200.932617 285.172577,200.935577   C261.087708,200.992676 237.002701,200.994049 212.917740,200.981979   C212.110031,200.981567 211.302444,200.720612 210.253815,200.230774   C236.012070,199.936584 262.011322,199.992737 288.472961,200.096863  z"/>
<path fill="black" opacity="1.000000" stroke="none" d=" M227.534454,271.295166   C227.966568,294.424957 227.988068,317.691711 227.982788,341.418671   C227.637405,341.083466 227.040894,340.288147 227.040573,339.492584   C227.031616,316.805786 227.082596,294.118927 227.534454,271.295166  z"/>
<path fill="black" opacity="1.000000" stroke="none" d=" M115.074532,216.420258   C135.962509,216.016602 157.060883,216.006332 178.634888,216.008591   C178.439453,216.345673 177.768250,216.953873 177.097321,216.953552   C156.493179,216.943619 135.889038,216.874008 115.074532,216.420258  z"/>
<path fill="black" opacity="1.000000" stroke="none" d=" M178.718079,200.542419   C158.803467,200.871964 138.748489,200.791153 118.388695,200.438629   C138.248489,200.155319 158.413101,200.143692 178.718079,200.542419  z"/>
<path fill="black" opacity="1.000000" stroke="none" d=" M335.556396,240.267075   C335.969818,256.789490 335.969818,273.447418 335.969818,291.655975   C334.766968,289.747009 334.395508,289.157440 334.028442,288.216400   C334.356445,286.409058 334.950073,284.955353 334.961792,283.496979   C335.077484,269.132629 335.096497,254.767487 335.556396,240.267075  z"/>
<path fill="black" opacity="1.000000" stroke="none" d=" M197.441956,341.748291   C197.009918,324.524567 196.992722,307.165619 197.006439,289.329315   C197.367752,289.682373 197.986160,290.512787 197.986130,291.343231   C197.985641,308.099854 197.914093,324.856445 197.441956,341.748291  z"/>
<path fill="black" opacity="1.000000" stroke="none" d=" M79.732300,173.543762   C75.126297,173.955978 70.382675,173.955978 65.067451,173.955978   C65.067451,177.095276 65.067451,179.665695 65.016617,182.701141   C64.535934,179.923599 64.106087,176.681046 63.635544,173.131561   C69.444839,173.131561 74.519760,173.131561 79.732300,173.543762  z"/>
<path fill="black" opacity="1.000000" stroke="none" d=" M334.444580,324.288635   C334.359253,323.350403 334.683014,322.553711 335.006775,321.757050   C335.339417,321.802521 335.672028,321.848022 336.004669,321.893494   C336.004669,328.250122 336.004669,334.606720 335.988892,341.424255   C335.649994,338.017609 335.290894,334.152557 335.018799,330.281403   C334.882080,328.336761 334.903687,326.380981 334.444580,324.288635  z"/>
<path fill="black" opacity="1.000000" stroke="none" d=" M193.428253,330.260162   C193.309814,329.589355 193.592712,329.065155 193.875626,328.540924   C194.245163,329.121460 194.916656,329.692749 194.934738,330.284058   C195.043610,333.845032 195.002701,337.410583 194.992889,341.431213   C194.592422,338.060791 194.210999,334.233765 193.428253,330.260162  z"/>
<path fill="black" opacity="1.000000" stroke="none" d=" M284.096802,74.433121   C284.909271,74.154083 285.890198,74.175148 286.921143,74.515961   C286.069183,74.801552 285.167236,74.767395 284.096802,74.433121  z"/>
<path fill="black" opacity="1.000000" stroke="none" d=" M118.367767,74.895332   C118.924248,74.419365 119.819771,74.005875 120.895126,73.860764   C120.285583,74.405357 119.496193,74.681580 118.367767,74.895332  z"/>
<path fill="black" opacity="1.000000" stroke="none" d=" M231.406799,300.930908   C231.171585,300.408691 231.214523,299.753632 231.544098,299.060120   C231.782166,299.613770 231.733566,300.205902 231.406799,300.930908  z"/>
<path fill="black" opacity="1.000000" stroke="none" d=" M230.292099,341.926666   C230.070114,341.592834 230.224960,341.351929 230.691132,341.101501   C230.785858,341.333405 230.674683,341.642639 230.292099,341.926666  z"/>
<path fill="black" opacity="1.000000" stroke="none" d=" M209.880768,163.719482   C209.588455,163.895187 209.374832,163.743103 209.120148,163.343536   C209.322632,163.264694 209.616104,163.363251 209.880768,163.719482  z"/>
<path fill="black" opacity="1.000000" stroke="none" d=" M194.705475,163.126434   C194.882568,163.434311 194.729843,163.652893 194.313782,163.893417   C194.233276,163.674637 194.341690,163.381897 194.705475,163.126434  z"/>
<path fill="black" opacity="1.000000" stroke="none" d=" M209.284363,113.885948   C209.108688,113.581459 209.266998,113.362686 209.683868,113.109573   C209.761948,113.321602 209.653915,113.620415 209.284363,113.885948  z"/>
<path fill="black" opacity="1.000000" stroke="none" d=" M194.093018,113.287659   C194.405960,113.072861 194.633408,113.220177 194.878006,113.660240   C194.665085,113.750313 194.369217,113.649239 194.093018,113.287659  z"/>
<path fill="black" opacity="1.000000" stroke="none" d=" M178.300201,73.907883   C178.119553,73.544579 178.334106,73.310768 178.905945,73.111221   C178.950134,73.329155 178.760849,73.626450 178.300201,73.907883  z"/>
<path fill="black" opacity="1.000000" stroke="none" d=" M285.034332,58.709778   C284.795746,58.903244 284.515747,58.759487 284.151581,58.331459   C284.333862,58.237534 284.642365,58.345985 285.034332,58.709778  z"/>
<path fill="black" opacity="1.000000" stroke="none" d=" M194.705734,58.102940   C194.906265,58.424740 194.753693,58.654743 194.311951,58.897121   C194.223785,58.670456 194.333725,58.371002 194.705734,58.102940  z"/>
<path fill="black" opacity="0.000000" stroke="none" d=" M291.288849,336.989471   C277.598816,329.765869 271.809448,317.579620 274.008789,301.445770   C276.041107,286.537567 283.027893,278.455475 297.215851,274.959839   C313.848480,270.861877 329.052673,279.941437 333.686798,296.557709   C337.843048,311.460480 332.600189,327.156403 319.371338,334.929657   C310.756500,339.991760 301.246429,340.680969 291.288849,336.989471  z"/>
<path fill="black" opacity="0.000000" stroke="none" d=" M193.994019,307.055359   C193.363831,312.844666 193.931534,319.113586 191.846710,324.320465   C187.868286,334.256775 179.516083,338.802856 168.693024,339.020386   C162.700394,339.140839 156.790161,339.038574 151.892349,335.273529   C147.151535,331.629150 145.246765,326.185364 146.160019,320.483002   C147.037643,315.003143 149.449326,309.982513 155.869827,308.591827   C157.091232,308.327301 158.221542,307.642273 160.200150,307.043365   C172.002274,306.975464 182.998154,307.015411 193.994019,307.055359  z"/>
<path fill="black" opacity="1.000000" stroke="none" d=" M193.745132,306.710388   C182.998154,307.015411 172.002274,306.975464 160.546356,306.878845   C165.798874,306.542755 171.509262,306.110474 177.224686,306.028076   C182.645798,305.949921 188.072174,306.238281 193.745132,306.710388  z"/>
</svg>
