<svg id="Layer_1" data-name="Layer 1" xmlns="http://www.w3.org/2000/svg" xmlns:xlink="http://www.w3.org/1999/xlink" viewBox="0 0 301.74 215.66"><defs><style>.cls-1{fill:none;stroke-miterlimit:10;stroke-width:0.25px;stroke:url(#linear-gradient);}.cls-2{fill:url(#linear-gradient-2);}.cls-3{fill:url(#linear-gradient-3);}.cls-4{fill:url(#linear-gradient-4);}.cls-5{fill:url(#linear-gradient-5);}.cls-6{fill:url(#linear-gradient-6);}.cls-7{fill:url(#linear-gradient-7);}.cls-8{fill:url(#linear-gradient-8);}.cls-9{fill:url(#linear-gradient-9);}.cls-10{fill:url(#linear-gradient-10);}.cls-11{fill:url(#linear-gradient-11);}.cls-12{fill:url(#linear-gradient-12);}.cls-13{fill:url(#linear-gradient-13);}.cls-14{fill:url(#linear-gradient-14);}.cls-15{fill:url(#linear-gradient-15);}.cls-16{fill:url(#linear-gradient-16);}.cls-17{fill:url(#linear-gradient-17);}.cls-18{fill:url(#linear-gradient-18);}.cls-19{fill:url(#linear-gradient-19);}.cls-20{fill:url(#linear-gradient-20);}.cls-21{fill:url(#linear-gradient-21);}.cls-22{fill:url(#linear-gradient-22);}.cls-23{fill:url(#linear-gradient-23);}.cls-24{fill:url(#linear-gradient-24);}.cls-25{fill:url(#linear-gradient-25);}.cls-26{fill:url(#linear-gradient-26);}.cls-27{fill:url(#linear-gradient-27);}.cls-28{fill:url(#linear-gradient-28);}.cls-29{fill:#fff;}.cls-30{font-size:7px;fill:#1d1d1b;font-family:Tahoma;}.cls-31{letter-spacing:0em;}.cls-32{letter-spacing:-0.02em;}.cls-33{letter-spacing:0em;}.cls-34{letter-spacing:-0.01em;}.cls-35{letter-spacing:0em;}</style><linearGradient id="linear-gradient" x1="14.14" y1="103.66" x2="258.17" y2="103.66" gradientUnits="userSpaceOnUse"><stop offset="0" stop-color="#009fe3"/><stop offset="1" stop-color="#672783"/></linearGradient><linearGradient id="linear-gradient-2" x1="29.17" y1="90.69" x2="65.33" y2="116.92" xlink:href="#linear-gradient"/><linearGradient id="linear-gradient-3" x1="32.55" y1="86.36" x2="68.81" y2="112.65" xlink:href="#linear-gradient"/><linearGradient id="linear-gradient-4" x1="35.89" y1="82.45" x2="71.82" y2="108.51" xlink:href="#linear-gradient"/><linearGradient id="linear-gradient-5" x1="39.31" y1="77.94" x2="75.41" y2="104.12" xlink:href="#linear-gradient"/><linearGradient id="linear-gradient-6" x1="43.01" y1="73.62" x2="78.81" y2="99.58" xlink:href="#linear-gradient"/><linearGradient id="linear-gradient-7" x1="23.71" y1="97.76" x2="59.89" y2="124" xlink:href="#linear-gradient"/><linearGradient id="linear-gradient-8" x1="27.4" y1="93.05" x2="63.57" y2="119.28" xlink:href="#linear-gradient"/><linearGradient id="linear-gradient-9" x1="30.39" y1="89.28" x2="66.56" y2="115.51" xlink:href="#linear-gradient"/><linearGradient id="linear-gradient-10" x1="33.62" y1="86.35" x2="68.92" y2="111.96" xlink:href="#linear-gradient"/><linearGradient id="linear-gradient-11" x1="35.91" y1="82.35" x2="72.04" y2="108.55" xlink:href="#linear-gradient"/><linearGradient id="linear-gradient-12" x1="39.32" y1="78.27" x2="75.33" y2="104.39" xlink:href="#linear-gradient"/><linearGradient id="linear-gradient-13" x1="42.19" y1="74.34" x2="78.36" y2="100.57" xlink:href="#linear-gradient"/><linearGradient id="linear-gradient-14" x1="45.21" y1="70.52" x2="81.37" y2="96.75" xlink:href="#linear-gradient"/><linearGradient id="linear-gradient-15" x1="18.37" y1="104.47" x2="54.74" y2="130.85" xlink:href="#linear-gradient"/><linearGradient id="linear-gradient-16" x1="21.37" y1="101.18" x2="57.3" y2="127.24" xlink:href="#linear-gradient"/><linearGradient id="linear-gradient-17" x1="24.77" y1="96.65" x2="60.87" y2="122.84" xlink:href="#linear-gradient"/><linearGradient id="linear-gradient-18" x1="27.93" y1="92.38" x2="64.21" y2="118.69" xlink:href="#linear-gradient"/><linearGradient id="linear-gradient-19" x1="233.9" y1="33.89" x2="248.53" y2="45.86" xlink:href="#linear-gradient"/><linearGradient id="linear-gradient-20" x1="231.82" y1="36.43" x2="246.45" y2="48.4" xlink:href="#linear-gradient"/><linearGradient id="linear-gradient-21" x1="229.73" y1="38.98" x2="244.36" y2="50.95" xlink:href="#linear-gradient"/><linearGradient id="linear-gradient-22" x1="227.63" y1="41.55" x2="242.26" y2="53.52" xlink:href="#linear-gradient"/><linearGradient id="linear-gradient-23" x1="26.67" y1="164.87" x2="79.88" y2="177.51" xlink:href="#linear-gradient"/><linearGradient id="linear-gradient-24" x1="26.99" y1="163.54" x2="80.19" y2="176.17" xlink:href="#linear-gradient"/><linearGradient id="linear-gradient-25" x1="27.33" y1="162.09" x2="80.54" y2="174.72" xlink:href="#linear-gradient"/><linearGradient id="linear-gradient-26" x1="27.98" y1="159.34" x2="81.19" y2="171.98" xlink:href="#linear-gradient"/><linearGradient id="linear-gradient-27" x1="26.84" y1="164.17" x2="80.04" y2="176.81" xlink:href="#linear-gradient"/><linearGradient id="linear-gradient-28" x1="25.02" y1="171.84" x2="78.22" y2="184.47" xlink:href="#linear-gradient"/></defs><title>new JOSIA smart business card to print 2023</title><path class="cls-1" d="M249.55,180.19H22.77a8.5,8.5,0,0,1-8.5-8.5V35.63a8.51,8.51,0,0,1,8.5-8.51H249.55a8.51,8.51,0,0,1,8.5,8.51V171.69a8.5,8.5,0,0,1-8.5,8.5"/><path class="cls-2" d="M29.88,94.35l.37-.76a2.85,2.85,0,0,0,1.54.45c.64,0,.9-.19.9-.46,0-.82-2.72-.26-2.72-1.87,0-.74.65-1.36,2-1.36a3.26,3.26,0,0,1,1.62.39l-.33.76a2.83,2.83,0,0,0-1.3-.34c-.64,0-.89.22-.89.5,0,.8,2.72.25,2.72,1.84,0,.73-.65,1.35-2,1.35A3.52,3.52,0,0,1,29.88,94.35Z"/><path class="cls-3" d="M42.79,94.78V92.17L41.4,94.32h-.49l-1.37-2.1v2.56h-1V90.43h.89l1.75,2.7,1.73-2.7h.89v4.35Z"/><path class="cls-4" d="M52,93.85H49.84l-.42.93H48.31l2.09-4.35h1.07l2.09,4.35H52.42Zm-.34-.77-.75-1.67-.74,1.67Z"/><path class="cls-5" d="M61,94.78l-.9-1.21h-1v1.21H58.06V90.43h2c1.25,0,2,.6,2,1.57a1.42,1.42,0,0,1-1,1.38l1,1.4Zm-1-3.53h-.89v1.51H60c.66,0,1-.28,1-.76S60.69,91.25,60,91.25Z"/><path class="cls-6" d="M67.89,91.25h-1.5v-.82h4.08v.82H69v3.53H67.89Z"/><path class="cls-7" d="M34.54,104.64c0,.76-.64,1.19-1.87,1.19H30.25v-4.35h2.28c1.17,0,1.78.45,1.78,1.13a1,1,0,0,1-.63,1A1.09,1.09,0,0,1,34.54,104.64Zm-1.09-.1c0-.37-.3-.54-.86-.54H31.32v1.07h1.27C33.15,105.07,33.45,104.91,33.45,104.54Zm-2.13-2.3v1H32.4c.53,0,.82-.17.82-.51s-.29-.51-.82-.51Z"/><path class="cls-8" d="M39.34,103.92v-2.44h1.08v2.4c0,.83.39,1.17,1,1.17s1-.34,1-1.17v-2.4h1.07v2.44a1.87,1.87,0,0,1-2.11,2A1.87,1.87,0,0,1,39.34,103.92Z"/><path class="cls-9" d="M48.29,105.4l.37-.76a2.85,2.85,0,0,0,1.54.46c.64,0,.9-.2.9-.47,0-.81-2.72-.25-2.72-1.87,0-.74.65-1.35,2-1.35a3.37,3.37,0,0,1,1.62.38l-.33.77a2.85,2.85,0,0,0-1.3-.35c-.64,0-.89.23-.89.5,0,.8,2.72.25,2.72,1.85,0,.73-.65,1.35-2,1.35A3.52,3.52,0,0,1,48.29,105.4Z"/><path class="cls-10" d="M56.94,101.48H58v4.35H56.94Z"/><path class="cls-11" d="M67.43,101.48v4.35h-.88l-2.34-2.64v2.64H63.14v-4.35H64l2.32,2.64v-2.64Z"/><path class="cls-12" d="M76.18,105v.81H72.56v-4.35h3.53v.81H73.63v.94h2.18V104H73.63v1Z"/><path class="cls-13" d="M80.69,105.4l.37-.76a2.85,2.85,0,0,0,1.54.46c.64,0,.9-.2.9-.47,0-.81-2.72-.25-2.72-1.87,0-.74.65-1.35,2-1.35a3.37,3.37,0,0,1,1.62.38l-.33.77a2.85,2.85,0,0,0-1.3-.35c-.64,0-.89.23-.89.5,0,.8,2.72.25,2.72,1.85,0,.73-.65,1.35-2,1.35A3.52,3.52,0,0,1,80.69,105.4Z"/><path class="cls-14" d="M89,105.4l.37-.76a2.85,2.85,0,0,0,1.54.46c.64,0,.9-.2.9-.47,0-.81-2.72-.25-2.72-1.87,0-.74.65-1.35,2-1.35a3.4,3.4,0,0,1,1.62.38l-.34.77a2.78,2.78,0,0,0-1.29-.35c-.64,0-.89.23-.89.5,0,.8,2.72.25,2.72,1.85,0,.73-.65,1.35-2,1.35A3.49,3.49,0,0,1,89,105.4Z"/><path class="cls-15" d="M30,114.71a2.34,2.34,0,0,1,2.54-2.25,2.5,2.5,0,0,1,1.93.77l-.7.6a1.52,1.52,0,0,0-1.17-.51,1.39,1.39,0,1,0,0,2.78,1.52,1.52,0,0,0,1.17-.51l.7.59a2.47,2.47,0,0,1-1.93.78A2.34,2.34,0,0,1,30,114.71Z"/><path class="cls-16" d="M42.15,116H40l-.42.94H38.45l2.09-4.35h1.07l2.09,4.35H42.56Zm-.34-.76-.74-1.67-.74,1.67Z"/><path class="cls-17" d="M51.19,116.89l-.91-1.21h-1v1.21H48.2v-4.35h2c1.25,0,2,.6,2,1.57a1.41,1.41,0,0,1-1,1.38l1.05,1.4Zm-1-3.53h-.88v1.51h.88c.66,0,1-.28,1-.76S50.83,113.36,50.17,113.36Z"/><path class="cls-18" d="M57.13,112.54h2.13c1.53,0,2.58.85,2.58,2.17s-1.05,2.18-2.58,2.18H57.13Zm2.07,3.52a1.36,1.36,0,1,0,0-2.7h-1v2.7Z"/><path class="cls-19" d="M245.67,41.67a16.55,16.55,0,0,0-8.16-6.09,1,1,0,1,1,.62-1.92,18,18,0,0,1,4.17,2,17.76,17.76,0,0,1,4.31,3.94,18.08,18.08,0,0,1,4,10.92,1,1,0,0,1-.72,1.06,1,1,0,0,1-1.15-.45,1.29,1.29,0,0,1-.15-.54,15.83,15.83,0,0,0-1.78-7C246.38,42.78,245.89,42.05,245.67,41.67Z"/><path class="cls-20" d="M244.08,42.59A14.19,14.19,0,0,1,246.75,51a1,1,0,0,1-1,1.06,1,1,0,0,1-1-1.16,7.85,7.85,0,0,0-.2-2.82c-1.51-4.71-4.41-7.67-8.6-9a1,1,0,1,1,.62-1.91,14.13,14.13,0,0,1,5.38,3A15,15,0,0,1,244.08,42.59Z"/><path class="cls-21" d="M240.87,44.67a10.5,10.5,0,0,1,2,6.84,1,1,0,0,1-.65.91.94.94,0,0,1-1.08-.24,1.06,1.06,0,0,1-.28-.91,7.62,7.62,0,0,0-.77-3.89,8.41,8.41,0,0,0-5.6-4.71,1,1,0,0,1-.76-.57A.94.94,0,0,1,233.9,41a1,1,0,0,1,1-.34,10.45,10.45,0,0,1,4.07,2A10.91,10.91,0,0,1,240.87,44.67Z"/><path class="cls-22" d="M237.79,46.94A6.71,6.71,0,0,1,239,52.05a1,1,0,0,1-1.14.86,1,1,0,0,1-.85-1.16,4.8,4.8,0,0,0,0-1.69,4.69,4.69,0,0,0-3.94-3.79,1,1,0,0,1-.86-.58,1,1,0,0,1,.09-1,.92.92,0,0,1,.93-.4A6.69,6.69,0,0,1,237.79,46.94Z"/><path class="cls-23" d="M52.66,168.42a2.22,2.22,0,0,1,1.84.84l.18.25.52-.56-.13-.17a3,3,0,0,0-2.41-1.09,3.36,3.36,0,0,0,0,6.71,3,3,0,0,0,2.41-1.09l.13-.17-.52-.55-.18.24a2.2,2.2,0,0,1-1.84.85,2.63,2.63,0,0,1,0-5.26Z"/><path class="cls-24" d="M58.8,167.69a3.79,3.79,0,0,0-2.56,1l-.18.18.52.52.17-.17a3,3,0,0,1,2.12-.78,1.68,1.68,0,0,1,1.64,1.68v.43H58.43c-2.19,0-2.43,1.33-2.43,1.9,0,1.2,1,2,2.42,2a2.8,2.8,0,0,0,2.09-.79v.76h.74v-4.28A2.21,2.21,0,0,0,58.8,167.69Zm-.38,3.56h2.09v1.06a2.08,2.08,0,0,1-2.09,1.37c-1.07,0-1.68-.46-1.68-1.26S57.3,171.25,58.42,171.25Z"/><path class="cls-25" d="M64.15,168.6v-.87h-.74v6.64h.74v-3.55c0-1.52.76-2.39,2.09-2.39h.32v-.74h-.25A2.69,2.69,0,0,0,64.15,168.6Z"/><path class="cls-26" d="M72.78,165.05v3.82a3.11,3.11,0,0,0-2.49-1.18,3.36,3.36,0,0,0,0,6.71,3.08,3.08,0,0,0,2.49-1.18v1.15h.74v-9.32Zm-2.49,8.63A2.63,2.63,0,1,1,72.78,171,2.49,2.49,0,0,1,70.29,173.68Z"/><path class="cls-27" d="M46.51,167.28a3.17,3.17,0,0,0,1.84-3c0-2.21-1.56-3.87-5.41-3.87H35.63v0h0v4.73H37v-3.43h6.09c2.75,0,4,1,4,2.49s-1.19,2.38-4,2.38H29.62c-2.75,0-4-1-4-2.49s1.19-2.38,4-2.38h4.66V160.4h-4.6c-3.9,0-5.35,1.58-5.35,3.67s1.56,3.87,5.4,3.87H43.05c2.79,0,4,1,4,2.39s-1.23,2.49-4,2.49H37v-3.31H35.62v4.57h0v.07h7.32c3.85,0,5.41-1.65,5.41-3.87A3.15,3.15,0,0,0,46.51,167.28Z"/><path class="cls-28" d="M25.65,170.47H24.33c0,2.09,1.45,3.67,5.35,3.67h4.59v-1.34H29.62C26.86,172.81,25.67,171.82,25.65,170.47Z"/><rect class="cls-29" x="163.87" y="78.25" width="68.17" height="68.17"/><path d="M194.18,140.81h-3.13v-1.52h-1.54v1.52H188v-1.54h-1.53v-3.06H188v1.5h6.14v-3h-1.52v1.49h-1.54v-1.52h-1.56v-4.58H188v1.51h-1.53v1.52h-3.08v-1.52h1.54v-1.53h1.55V127H188v1.52h3.1v6.14h1.53v-1.53h1.52V131.6h-1.5v-1.55h1.49v-1.54h-1.51V127h-1.54v-1.52H189.5V123.9h3.09v-1.52h-1.52v-1.53h-4.64v-1.58H184.9v-1.51h-4.6v1.5h-1.52v-1.52h1.5V116.2h-1.5v-1.51h3.06v1.49h3v-1.52h-1.52v-1.53h-1.54v-3.07h-3.07v-1.54h-4.62V107h-1.53v3h-3.05v-1.53h1.5V107h-1.5V97.74h3.06v1.54h1.54v1.54h-1.53v1.54H171.1v1.52h1.52v1.58h1.54V107h4.59v-1.52h-3.07v-1.57h3.08v1.54h1.53v-1.55h1.53v1.59h-1.53V107h-1.5v1.51h4.58v-3.05h3.06v-1.57h-1.5v-1.51H188v3.08h1.53c0,.45,0,.86,0,1.26,0,.22.06.28.27.27h2.56l.23,0v-1.53h-1.52v-1.55h-1.52v-1.53h1.55v-1.55h3V97.75h-4.58V96.22h1.52V91.6h-9.21V90.06h1.53V88.53h1.52V87l1.53,0v3H188V87h-1.54c0-.52,0-1,0-1.56h3.1v3.09h1.55v1.53h1.54V91.6h3v3.07h-1.53v-1.5h-1.5v3h4.59v-3h1.52v3h1.55v-3h1.53v1.5h1.54v-3h1.51v3.06h-1.5v1.53h1.53v4.58H208v-3h-1.5V90.06H208V88.55h-3.08v1.53h-3.07V91.6h-3.07v-3h-1.54v1.5h-3.07V87H192.6V85.45h-1.5V83.94h1.51v1.52h3.08V87h3V85.46h-1.5V83.94h3.07v3h3.07V85.45h1.54V83.94H208V87h1.54v3h1.52V87h1.55v-3h1.5v4.6h-1.52v3.08h-1.51v3.06h-1.57V91.63H208v4.6h1.53v4.6h1.53v1.51h1.54v-1.53h1.54v1.54h3.07v1.52h1.53v-1.52h1.53v6.18h3.07v1.52h-3.07v-1.53h-6.15v-3.06h-3.08v-1.54h-4.57v1.55h3.06V107h1.51v1.54h-1.5v1.53h3v1.5h1.55v-1.49h3.06v3h1.54v-1.52h6.15V110h1.53v3.13l-.22,0H219l-.23,0v1.51h1.53v1.54h1.52v1.54H220.3v1.53h3.06v3.11H221.8c0-.51,0-1,0-1.54h-1.54v-1.59h-1.53v-1.5h-1.51v3.08h3.05v1.54h1.53v3.07h-1.5v3h1.52V127h1.53v3.07h-1.53v4.6h-1.52v3.05h1.51v-3.06h1.55v1.56h1.5v1.53h-1.49v1.53h3.05v1.53h-6.14v-1.54h-3.07v-1.54h-1.54v-3.08h-3.09v-1.51h-1.53v1.5h-1.53v-3.06h3.07V127h1.56v-1.5h1.52V127h1.5v-3h-1.52v-4.6h-1.51c0,.09,0,.16,0,.24v5.68a2.3,2.3,0,0,0,0,.26h-1.58v-1.57h-3v-3.07h1.53v1.51h1.5v-1.5h-1.51v-1.58h3v-3h-4.58v3H208V116.2h1.53v-1.54H211v-1.52h-4.59v-1.52H204.9v1.53h-3.08v1.5h-1.54v-1.52h-1.54v-3.08h-1.53v-1.5h-1.53V110h-1.55v-1.48H192.6v1.52h-3.06v1.53h1.55v1.53h3.06v1.51h1.53v-1.49h1.52v4.59h-4.6v1.55h-1.51v1.53h1.53v1.52h3.07v-3.06h4.6v1.53h1.54V119.3h1.55v3h3.09v-1.5H208v3.07h-1.5V127h-1.55v1.53h1.55v1.55h-6.19v1.53h-3.07v1.54h-1.54v4.61h-1.52v1.13Zm10.7-38.45h-3.07V97.77h-4.57V99.3h1.52v1.52h1.51v1.53h-1.52v-1.5h-1.53v3h-1.55v-1.49h-1.5v6.11h1.52v-3h1.54v3h1.53v-3.07h3.08v-1.55h3Zm13.84,30.75v-4.57h-4.56v4.57ZM209.51,107h-3.06v-1.5h-3.06v3.05h1.53V110h1.55v-1.51h3Zm-23.06,3.09h-3.06v1.52h1.53v1.52h1.52v-1.53H188v-1.54h1.51v-1.5h-3.05Zm3.07,9.18v-1.52h3.09v-1.55h1.52v-1.5h-3.06v1.54H188v3Zm10.78-10.73h-1.52v1.54h1.53v3h1.52v-3h1.5v-1.55h-1.52V107H200.3Zm-1.54,15.36h4.58v-1.53h-3.05v-1.5h-3v1.52h1.51Zm4.6,3.08h1.51v-1.5h-3.05V127h-1.5v1.5h3Zm12.32-9.25h1.53V116.2h1.51v-1.53H217.2v-1.51h-1.52Zm-23.05,6.2v1.51h3v-1.51Zm26.1-17v-1.49h-3V107Zm-3.08-1.54v-1.51h-1.49v1.51Zm1.57,30.76h1.5v-1.51h-1.5Zm-30.79-27.67V107h-1.52c0,.46,0,.89,0,1.32,0,.07.11.17.18.18C185.53,108.53,186,108.52,186.43,108.52Zm7.74,21.54v1.51h1.49v-1.51Zm7.64-41.51h-1.5v1.5h1.5Zm7.7,23v-1.49H208v1.49ZM197.19,130v-1.49H195.7V130Zm3.08-41.51V87h-1.49v1.51ZM195.67,127h-1.5v1.49h1.5ZM188,113.11h1.5v-1.49H188Zm10.78,12.35V127h1.48v-1.5Zm-1.58,0h-1.49V127h1.49Zm-6.14-12.31h-1.54c0,.46,0,.9,0,1.33,0,.06.07.17.12.17h1.41Zm6.18,12.27h1.49v-1.5h-1.49ZM188,114.7h-1.49v1.49H188Zm9.23,9.19v-1.5H195.7v1.5Zm23.08-7.66h-1.51v1.49h1.51ZM195.71,99.31v1.5h1.49v-1.5Z"/><path class="cls-29" d="M211.08,94.68V91.62h1.51V88.54h1.52v-4.6h-1.5v3h-1.55v3.06h-1.52V87H208V83.94h-3.09v1.51h-1.54V87H200.3v-3h-3.07v1.52h1.5V87h-3V85.46h-3.08V83.94H191.1v1.51h1.5V87h1.54v3.06h3.07v-1.5h1.54v3h3.07V90.08h3.07V88.55H208v1.51h-1.5v7.69H208v3h-3.06V96.22h-1.53V94.69h1.5V91.63h-1.51v3h-1.54v-1.5H200.3v3h-1.55v-3h-1.52v3h-4.59v-3h1.5v1.5h1.53V91.6h-3V90.07h-1.54V88.54h-1.55V85.45h-3.09V83.94H184.9v1.52h-1.51V87h1.51v1.54h-1.52v1.53h-1.53V91.6h9.21v4.62h-1.52v1.53h4.58v3.06h-3v1.55h-1.55v1.53h1.52v1.55h1.52V107l-.23,0h-2.56c-.21,0-.28,0-.27-.27,0-.4,0-.81,0-1.26H188v-3.08h-3.06v1.51h1.5v1.57h-3.06v3.05h-4.58V107h1.5v-1.53h1.53v-1.59H180.3v-1.54h-1.54v-1.55h3.08v1.53h1.53v-1.53l.17,0h6V99.28h-4.6V97.75h-1.54c0-1.51,0-3,0-4.52,0,0,0,0,0-.07h-1.51v3.07h-3.07v1.52h-3.09V96.23h-3.06v1.52h-3.05V107h1.5v1.54h-1.5v1.53h3.05v-3h1.53v1.51h4.62v1.54h3.07v3.07h1.54v1.53h1.52v1.52h-3v-1.49h-3.06v1.51h1.5v1.54h-1.5v1.52h1.52v-1.5h4.6v1.51h1.53v1.58h-3.05V119.3h-1.55v3.08h-1.54v-1.57h-3.06v-4.61h-1.52v-3.08h4.57v-1.51h-6.14v3h-1.52v-1.52h-1.54v-1.51h-1.52v4.59h1.5v3.08h-1.5v3.09h1.52v.9c0,.73,0,1.46,0,2.2h-1.54V127h1.54v-1.49h1.52V127h1.54v-3.06h1.53v1.54h1.55v3h3V127h-1.5v-1.52h3.05v6.15h1.53v1.52h3.08v-1.52H188v-1.51h1.54v4.58h1.56v1.52h1.54v-1.49h1.52v3H188v-1.5h-1.55v3.06h-3.07v1.53H180.3V130.29a1.64,1.64,0,0,0,0-.22H169.54v10.74l0,0a1.62,1.62,0,0,1,0-.22V83.87h56.68a1.09,1.09,0,0,1,.26,0H215.69V94.68h10.74v6.14h-3.09V99.26h1.54V97.77h-1.54v1.5h-4.58V97.74h1.51V96.23h-1.5v1.52h-1.54V96.21h-3.1v-3h-1.53v1.5h-1.51Zm-23.13,0h-1.51V93.17h-1.51v3h3V94.65h1.55V93.17H188Zm-7.66-10.71H169.56V94.66h10.73Zm4.6,53.78v-3h-3v3Z"/><path class="cls-29" d="M226.43,110H224.9v1.56h-6.15v1.52h-1.54v-3h-3.06v1.49H212.6v-1.5h-3v-1.53h1.5V107h-1.51v-1.53h-3.06v-1.55h4.57v1.54h3.08v3.06h6.15v1.53h3.07v-1.52h-3.07v-6.18h1.55V107h3.08v1.55h1.52Z"/><path d="M169.54,140.81V130.07h10.74a1.64,1.64,0,0,1,0,.22v10.52Zm1.56-9.21v7.66h7.64V131.6Z"/><path d="M226.43,94.68H215.69V83.92h10.74Zm-9.2-9.21v7.66h7.65V85.47Z"/><path class="cls-29" d="M194.18,140.81l0-1.93v-1.13h1.52v-4.61h1.54V131.6h3.07v-1.53h6.19v-1.55H208v3.07h-1.55v4.6h-1.56v-3.07h-1.53v-1.51h-1.54v1.52h-3.07v1.54h-1.51v3.08h1.51v1.13c0,.65,0,1.29,0,1.93Z"/><path d="M198.73,140.81c0-.64,0-1.28,0-1.93v-1.13h-1.51v-3.08h1.51v-1.54h3.07v-1.52h1.54v1.51h1.53v3.07h1.56v-4.6H208c0,.87,0,1.74,0,2.61,0,1.18,0,2.36,0,3.54h-3.12v1.52h-1.51v-1.53h1.5v-1.51h-3.06v1.53h-1.5v1.54h1.54v1.52Zm4.61-7.66h-1.49v1.49h1.49Zm-3,1.53v1.51h1.48v-1.51Z"/><path class="cls-29" d="M223.36,122.39v-3.11H220.3v-1.53h1.51v-1.54h-1.52v-1.54h-1.53v-1.51l.23,0h7.22l.22,0v1.48h-1.54v1.58h-1.51v1.5h1.53v-1.48h1.52v6.14h-3.07Z"/><path class="cls-29" d="M208,137.74c0-1.18,0-2.36,0-3.54,0-.87,0-1.74,0-2.61h1.53v3.06h1.53v-1.5h1.53v1.51h3.09v3.08h-1.53v1.54h1.53v1.54h-3.07v-1.54h-1.53v-1.54h1.5v-1.51h-3.06v1.52H208Z"/><path d="M226.43,108.56h-1.52V107h-3.08v-4.66h-1.54v-1.54h-1.54V99.28h4.59v1.56h3.09v1.54h-1.55v1.52h-1.5v1.56h1.5v-1.57l1.55,0v1.59h-1.52V107h1.52Z"/><path class="cls-29" d="M221.8,122.4h1.55v1.54h3.08v1.53h-1.51V127h1.51v1.53h-1.55v1.54h-1.52V127h-1.53v1.5h-1.52v-3h1.5v-3.07Z"/><path class="cls-29" d="M221.83,134.67v-4.6h1.52v3.07h3.08v6.15h-3.05v-1.53h1.49v-1.53h-1.5v-1.56h-1.54Z"/><path class="cls-29" d="M201.86,140.81v-1.52h-1.54v-1.54h1.5v-1.53h3.06v1.51h-1.5v1.53h1.51v-1.52H208v1.54h-1.54v1.53Z"/><path d="M206.46,140.81v-1.53H208v-1.54h1.52v-1.52h3.06v1.51h-1.5v1.54h1.53v1.54Z"/><path d="M226.43,133.13h-3.08v-3.07h1.53v-1.54h1.55Z"/><path d="M226.43,116.24h-1.52v1.48h-1.53v-1.5h1.51v-1.58h1.54Z"/><path class="cls-29" d="M217.21,139.27h3.08v1.54h-3.07Z"/><path d="M183.37,140.81v-1.53h3.06v1.54Z"/><path d="M226.43,123.92h-3.08v-1.54h3.08Z"/><path d="M217.21,139.27v1.54h-1.54v-1.54h1.53Z"/><path class="cls-29" d="M189.51,140.81v-1.52h1.54v1.52Z"/><path class="cls-29" d="M186.44,140.81v-1.54H188v1.54Z"/><path d="M226.43,127h-1.51v-1.54h1.51Z"/><path class="cls-29" d="M226.43,103.89l-1.55,0h0v-1.52h1.55Z"/><path class="cls-29" d="M226.43,107h-1.52v-1.48h1.52Z"/><path class="cls-29" d="M206.47,127v-3.07H208v-3.07h-1.51v-6.16h-3.11v1.52h-4.57v1.51h4.59v-1.49h1.53v4.61h1.57v1.5h-3.09v-3h-1.55v1.52h-1.54v-1.53h-4.6v3.06h-3.07v-1.52h-1.53V119.3h1.51v-1.55h4.6v-4.59h-1.52v1.49h-1.53v-1.51h-3.06v-1.53h-1.55v-1.53h3.06v-1.52h1.53V110h1.55v-1.49h1.53v1.5h1.53v3.08h1.54v1.52h1.54v-1.5h3.08v-1.53h1.55v1.52H211v1.52h-1.5v1.54H208v3.06h1.52v-3h4.58v3h-3v1.58h-1.52v3.07h3v1.57h1.57V127H212.6v4.62h-3.06c0-1.5,0-3,0-4.51,0,0,0,0,0-.08h1.49v-1.54h-1.49V127l-.19,0h-2.9Z"/><path class="cls-29" d="M204.88,102.36v1.53h-3v1.55h-3.08v3.07h-1.53v-3h-1.54v3h-1.52v-6.11h1.5v1.49h1.55v-3h1.53v1.5h1.52v-1.53h-1.51V99.3h-1.52V97.77h4.57v4.59Z"/><path class="cls-29" d="M214.15,100.81h-1.54v1.53h-1.54v-1.51h-1.53v-4.6H208v-4.6h1.5v3.05h1.56v3.1h3.07v3Z"/><path class="cls-29" d="M189.5,125.46h1.57V127h1.54v1.53h1.51v1.54h-1.49v1.55h1.5v1.52h-1.52v1.53h-1.53v-6.14H188V127h1.53v-1.54Z"/><path class="cls-29" d="M186.43,120.85h4.64v1.53h1.52v1.52H189.5v1.56H188V123.9h-1.54v-3.06Z"/><path class="cls-29" d="M218.72,133.11h-4.56v-4.57h4.56Zm-1.53-1.54v-1.5h-1.5v1.5Z"/><path class="cls-29" d="M209.51,107v1.53h-3V110h-1.55v-1.49h-1.53v-3.05h3.06V107Z"/><path class="cls-29" d="M214.17,125.48a2.3,2.3,0,0,1,0-.26v-5.68c0-.08,0-.15,0-.24h1.51v4.6h1.52v3h-1.5v-1.48h-1.51Z"/><path class="cls-29" d="M186.45,110.08v-1.53h3.05v1.5H188v1.54h-1.55v1.53h-1.52V111.6h-1.53v-1.52Z"/><path class="cls-29" d="M189.52,119.26H188v-3h3.07v-1.54h3.06v1.5h-1.52v1.55h-3.09Z"/><path class="cls-29" d="M200.3,108.53V107h1.51v1.49h1.52v1.55h-1.5v3h-1.52v-3h-1.53v-1.54Z"/><path class="cls-29" d="M218.75,99.28v1.54h-1.54v1.55h-3.06v-1.54h1.54V97.75h1.52v1.55h1.54Z"/><path class="cls-29" d="M188,127h-1.53v3.07h-1.54V127h-1.55v-1.52H188V127Z"/><path class="cls-29" d="M198.76,123.89v-1.51h-1.51v-1.52h3v1.5h3.05v1.53Z"/><path class="cls-29" d="M175.68,103.88v1.57h3.07V107h-4.59v-1.51h-1.54v-1.58h3.06Z"/><path class="cls-29" d="M203.36,127v1.52h-3V127h1.5v-1.52h3.05V127Z"/><path class="cls-29" d="M215.68,117.72v-4.56h1.52v1.51h1.52v1.53h-1.51v1.52Z"/><path class="cls-29" d="M220.28,120.85h-3.05v-3.08h1.51v1.5h1.53v1.59Z"/><path class="cls-29" d="M221.82,134.66v3.06h-1.51v-3.05h1.51Z"/><path class="cls-29" d="M178.76,103.89h-3.07v-1.53h3.06v1.54Z"/><path class="cls-29" d="M186.42,87H188v3h-1.53V87Z"/><path class="cls-29" d="M192.63,123.92h3v1.51h-3Z"/><path class="cls-29" d="M218.73,107h-3v-1.49h3Z"/><path class="cls-29" d="M172.62,102.36v-1.54h1.53v1.54h-1.53Z"/><path class="cls-29" d="M211.07,120.85h1.51v1.5h-1.5v-1.51Z"/><path class="cls-29" d="M221.81,122.39h-1.53v-1.54h1.53c0,.51,0,1,0,1.54Z"/><path class="cls-29" d="M218.75,100.82h1.54v1.54h-1.53v-1.55Z"/><path class="cls-29" d="M172.62,103.88H171.1v-1.52h1.51v1.54Z"/><path class="cls-29" d="M215.65,105.43h-1.49v-1.51h1.49Z"/><path class="cls-29" d="M180.29,103.88v1.55h-1.53v-1.54h1.53Z"/><path class="cls-29" d="M174.15,100.82V99.28h1.51v1.52h-1.52Z"/><path class="cls-29" d="M217.22,139.28h-1.54v-1.54h1.54Z"/><path class="cls-29" d="M206.47,128.52h-1.55V127h1.54v1.55Z"/><path class="cls-29" d="M217.22,136.19v-1.51h1.5v1.51Z"/><path class="cls-29" d="M218.75,102.35v1.52h-1.53v-1.52h1.53Z"/><path class="cls-29" d="M184.9,130.06v1.53h-1.53v-1.54h1.53Z"/><path class="cls-29" d="M174.16,99.28h-1.54V97.74h1.53v1.54Z"/><path class="cls-29" d="M186.43,87l-1.53,0h0V85.46h1.52c0,.52,0,1,0,1.56Z"/><path class="cls-29" d="M186.43,108.52c-.47,0-.9,0-1.33,0-.07,0-.18-.11-.18-.18,0-.43,0-.86,0-1.32h1.52Z"/><path class="cls-29" d="M194.17,130.06h1.49v1.51h-1.49Z"/><path class="cls-29" d="M201.81,88.55v1.5h-1.5v-1.5Z"/><path class="cls-29" d="M209.51,111.58H208v-1.49h1.5Z"/><path class="cls-29" d="M197.19,130H195.7v-1.49h1.49Z"/><path class="cls-29" d="M200.27,88.52h-1.49V87h1.49Z"/><path class="cls-29" d="M195.67,127v1.49h-1.5V127Z"/><path class="cls-29" d="M188,113.11v-1.49h1.5v1.49Z"/><path class="cls-29" d="M198.78,125.46h1.48V127h-1.48Z"/><path class="cls-29" d="M197.2,125.47V127h-1.49v-1.49Z"/><path class="cls-29" d="M191.06,113.16v1.51h-1.41c-.05,0-.12-.11-.12-.17,0-.43,0-.87,0-1.33Z"/><path class="cls-29" d="M197.24,125.43v-1.5h1.49v1.5Z"/><path class="cls-29" d="M188,114.7v1.49h-1.49V114.7Z"/><path class="cls-29" d="M197.19,123.89H195.7v-1.5h1.49Z"/><path class="cls-29" d="M220.27,116.23v1.49h-1.51v-1.49Z"/><path class="cls-29" d="M195.71,99.31h1.49v1.5h-1.49Z"/><path d="M171.08,122.38h-1.52v-3.09h1.5v-3.08h-1.5v-4.59h1.52v1.51h1.54v1.52h1.52v-3h6.14v1.51h-4.57v3.08h1.52v4.61h3.06v1.57h-4.6v-1.54h-1.53v-3.11h1.5v-1.51h-3v4.62h-1.53v1.54Z"/><path d="M180.29,83.94V94.66H169.56V83.94Zm-1.54,9.2V85.48H171.1v7.66Z"/><path d="M174.15,99.29V97.75h-1.54V96.23h3.06v1.52h3.08v1.55h-1.51v1.54h1.5v1.55h-3.07v1.53h-3.08v-1.54h1.54v-1.54h1.52V99.29Z"/><path d="M217.22,97.75h-1.53v3.07h-1.55v-3h-3.07v-3.1h1.52v-1.5h1.53v3h3.1Z"/><path d="M188,125.46h-4.61V123.9h1.52v-1.52h-3.06V119.3h1.55v1.54h3.06v3.06H188Z"/><path d="M181.83,125.45h-3.05V127h1.5v1.53h-3v-3h-1.55v-1.54h4.61v-1.54h1.53v3.08Z"/><path d="M171.1,125.48c0-.74,0-1.47,0-2.2v-.9h1.54v-1.54h1.53v1.54h1.53v1.54h-1.52V127h-1.54v-1.5H171.1Z"/><path d="M184.91,130.06h-1.54v1.54h-1.54v-6.15h1.53V127h1.55Z"/><path d="M178.76,97.75V96.23h3.07V93.16h1.51s0,0,0,.07c0,1.51,0,3,0,4.52h-4.6Z"/><path d="M183.36,97.75h1.54v1.53h4.6v1.54h-6l-.17,0h0V97.74Z"/><path d="M184.89,137.72h-3v-3h3Z"/><path d="M188,94.65V96.2h-3v-3h1.51v1.48Z"/><path d="M181.83,100.81h-3.07V99.28h3.07v1.53Z"/><path d="M171.1,125.47V127h-1.54v-1.49h1.54Z"/><path d="M183.36,100.81v1.53h-1.53v-1.53h1.53Z"/><path d="M223.34,99.27v-1.5h1.54v1.49h-1.54Z"/><path d="M188,94.65V93.17h1.55v1.48Z"/><path d="M184.91,85.46V87h-1.52V85.46Z"/><path d="M218.76,99.29h-1.55V97.74h1.54Z"/><path d="M186.44,85.46H184.9V83.94h1.54Z"/><path d="M180.3,103.89h-1.55v-1.54h1.55Z"/><path d="M218.76,97.75V96.23h1.5v1.51h-1.5Z"/><path class="cls-29" d="M171.1,131.6h7.64v7.66H171.1Zm1.53,6.12h4.58v-4.58h-4.58Z"/><path class="cls-29" d="M217.23,85.47h7.65v7.66h-7.65ZM223.35,87h-4.59v4.58h4.59Z"/><path d="M206.46,128.53V127h2.91l.19,0h0s0,0,0,.08c0,1.5,0,3,0,4.51H208v-3.07Z"/><path class="cls-29" d="M203.34,133.15v1.49h-1.49v-1.49Z"/><path class="cls-29" d="M200.32,134.68h1.48v1.51h-1.48Z"/><path d="M215.68,137.74v1.54h-1.53v-1.54Z"/><path class="cls-29" d="M224.88,103.87v1.57h-1.5v-1.56h1.5Z"/><path d="M206.47,120.84H204.9v-4.61h-1.53v1.49h-4.59v-1.51h4.57v-1.52h3.11v6.16Z"/><path d="M209.56,127v-1.54h1.49V127Z"/><path d="M188,127v-1.54h1.54V127Z"/><path d="M217.19,131.57h-1.5v-1.5h1.5Z"/><path d="M218.76,102.36h-1.55v-1.55h1.55Z"/><path class="cls-29" d="M174.16,120.85h-1.55v-4.62h3v1.51h-1.5Z"/><path class="cls-29" d="M175.68,123.92v-1.54h4.62v1.54Z"/><path class="cls-29" d="M172.62,120.84v1.54h-1.54v-1.54Z"/><path class="cls-29" d="M175.69,122.38h-1.54v-1.54h1.54Z"/><path class="cls-29" d="M178.75,93.14H171.1V85.48h7.65Zm-1.54-1.54V87h-4.57V91.6Z"/><path class="cls-29" d="M183.37,100.82h-1.54V99.29h-3.07V97.74h4.62Z"/><path class="cls-29" d="M178.76,99.28v1.54h-1.51V99.28Z"/><path class="cls-29" d="M183.37,125.46h-1.54v-3.08h3.06v1.52h-1.52Z"/><path d="M172.63,137.72v-4.58h4.58v4.58Z"/><path d="M223.35,87v4.58h-4.59V87Z"/><path d="M177.21,91.6h-4.57V87h4.57Z"/><text class="cls-30" transform="translate(79.56 200.36)">S<tspan class="cls-31" x="3.9" y="0">B</tspan><tspan x="8.06" y="0">CARD C</tspan><tspan class="cls-32" x="31.94" y="0">L</tspan><tspan class="cls-33" x="35.29" y="0">A</tspan><tspan class="cls-34" x="39.47" y="0">S</tspan><tspan class="cls-35" x="43.29" y="0">SIC VERSO</tspan></text></svg>