<svg id="Layer_1" data-name="Layer 1" xmlns="http://www.w3.org/2000/svg" xmlns:xlink="http://www.w3.org/1999/xlink" viewBox="0 0 573.86 638.54"><defs><style>.cls-1,.cls-123,.cls-125,.cls-126,.cls-127,.cls-128,.cls-129,.cls-130,.cls-131,.cls-132,.cls-135,.cls-136,.cls-137,.cls-138,.cls-139,.cls-140,.cls-2,.cls-3,.cls-48{fill:none;}.cls-123,.cls-125,.cls-126,.cls-127,.cls-128,.cls-129,.cls-130,.cls-131,.cls-132,.cls-135,.cls-136,.cls-137,.cls-138,.cls-139,.cls-140,.cls-2,.cls-3,.cls-48{stroke-miterlimit:10;}.cls-123,.cls-2,.cls-3,.cls-48{stroke-width:0.25px;}.cls-2{stroke:url(#linear-gradient);}.cls-3{stroke:url(#linear-gradient-2);}.cls-4{clip-path:url(#clip-path);}.cls-5{fill:url(#linear-gradient-3);}.cls-6{clip-path:url(#clip-path-2);}.cls-7{fill:url(#linear-gradient-4);}.cls-8{clip-path:url(#clip-path-3);}.cls-9{fill:url(#linear-gradient-5);}.cls-10{clip-path:url(#clip-path-4);}.cls-11{fill:url(#linear-gradient-6);}.cls-12{clip-path:url(#clip-path-5);}.cls-13{fill:url(#linear-gradient-7);}.cls-14{clip-path:url(#clip-path-6);}.cls-15{fill:url(#linear-gradient-8);}.cls-16{clip-path:url(#clip-path-7);}.cls-17{fill:url(#linear-gradient-9);}.cls-18{clip-path:url(#clip-path-8);}.cls-19{fill:url(#linear-gradient-10);}.cls-20{clip-path:url(#clip-path-9);}.cls-21{fill:url(#linear-gradient-11);}.cls-22{clip-path:url(#clip-path-10);}.cls-23{fill:url(#linear-gradient-12);}.cls-24{clip-path:url(#clip-path-11);}.cls-25{fill:url(#linear-gradient-13);}.cls-26{clip-path:url(#clip-path-12);}.cls-27{fill:url(#linear-gradient-14);}.cls-28{clip-path:url(#clip-path-13);}.cls-29{fill:url(#linear-gradient-15);}.cls-30{clip-path:url(#clip-path-14);}.cls-31{fill:url(#linear-gradient-16);}.cls-32{clip-path:url(#clip-path-15);}.cls-33{fill:url(#linear-gradient-17);}.cls-34{clip-path:url(#clip-path-16);}.cls-35{fill:url(#linear-gradient-18);}.cls-36{clip-path:url(#clip-path-17);}.cls-37{fill:url(#linear-gradient-19);}.cls-38{clip-path:url(#clip-path-18);}.cls-39{fill:url(#linear-gradient-20);}.cls-40{clip-path:url(#clip-path-19);}.cls-41{fill:url(#linear-gradient-21);}.cls-42{clip-path:url(#clip-path-20);}.cls-43{fill:url(#linear-gradient-22);}.cls-44{clip-path:url(#clip-path-21);}.cls-45{fill:url(#linear-gradient-23);}.cls-46{clip-path:url(#clip-path-22);}.cls-47{fill:url(#linear-gradient-24);}.cls-48{stroke:url(#linear-gradient-25);}.cls-49{fill:url(#linear-gradient-26);}.cls-50{fill:url(#linear-gradient-27);}.cls-51{fill:url(#linear-gradient-28);}.cls-52{fill:url(#linear-gradient-29);}.cls-53{fill:url(#linear-gradient-30);}.cls-54{fill:url(#linear-gradient-31);}.cls-55{fill:url(#linear-gradient-32);}.cls-56{fill:url(#linear-gradient-33);}.cls-57{fill:url(#linear-gradient-34);}.cls-58{fill:url(#linear-gradient-35);}.cls-59{fill:url(#linear-gradient-36);}.cls-60{fill:url(#linear-gradient-37);}.cls-61{fill:url(#linear-gradient-38);}.cls-62{fill:url(#linear-gradient-39);}.cls-63{fill:url(#linear-gradient-40);}.cls-64{fill:url(#linear-gradient-41);}.cls-65{fill:url(#linear-gradient-42);}.cls-66{fill:url(#linear-gradient-43);}.cls-67{fill:url(#linear-gradient-44);}.cls-68{fill:url(#linear-gradient-45);}.cls-69{fill:url(#linear-gradient-46);}.cls-70{fill:url(#linear-gradient-47);}.cls-71{fill:url(#linear-gradient-48);}.cls-72{fill:url(#linear-gradient-49);}.cls-73{fill:url(#linear-gradient-50);}.cls-74{fill:url(#linear-gradient-51);}.cls-75{fill:url(#linear-gradient-52);}.cls-76{fill:url(#linear-gradient-53);}.cls-77{fill:url(#linear-gradient-54);}.cls-78{fill:url(#linear-gradient-55);}.cls-79{fill:url(#linear-gradient-56);}.cls-80{fill:url(#linear-gradient-57);}.cls-81{fill:url(#linear-gradient-58);}.cls-82{fill:url(#linear-gradient-59);}.cls-83{fill:url(#linear-gradient-60);}.cls-84{fill:url(#linear-gradient-61);}.cls-85{fill:url(#linear-gradient-62);}.cls-86{fill:url(#linear-gradient-63);}.cls-87{fill:url(#linear-gradient-64);}.cls-88{fill:url(#linear-gradient-65);}.cls-89{fill:url(#linear-gradient-66);}.cls-90{fill:url(#linear-gradient-67);}.cls-91{fill:url(#linear-gradient-68);}.cls-92{fill:url(#linear-gradient-69);}.cls-93{fill:url(#linear-gradient-70);}.cls-94{fill:url(#linear-gradient-71);}.cls-95{fill:url(#linear-gradient-72);}.cls-96{fill:url(#linear-gradient-73);}.cls-97{fill:url(#linear-gradient-74);}.cls-98{fill:url(#linear-gradient-75);}.cls-99{fill:url(#linear-gradient-76);}.cls-100{fill:url(#linear-gradient-77);}.cls-101{fill:url(#linear-gradient-78);}.cls-102{fill:url(#linear-gradient-79);}.cls-103{fill:url(#linear-gradient-80);}.cls-104{fill:url(#linear-gradient-81);}.cls-105{fill:url(#linear-gradient-82);}.cls-106{fill:url(#linear-gradient-83);}.cls-107{fill:url(#linear-gradient-84);}.cls-108{fill:url(#linear-gradient-85);}.cls-109{fill:url(#linear-gradient-86);}.cls-110{fill:url(#linear-gradient-87);}.cls-111{fill:url(#linear-gradient-88);}.cls-112{fill:url(#linear-gradient-89);}.cls-113{fill:url(#linear-gradient-90);}.cls-114{fill:url(#linear-gradient-91);}.cls-115{fill:url(#linear-gradient-92);}.cls-116{fill:url(#linear-gradient-93);}.cls-117{fill:url(#linear-gradient-94);}.cls-118{fill:url(#linear-gradient-95);}.cls-119{fill:url(#linear-gradient-96);}.cls-120{fill:url(#linear-gradient-97);}.cls-121{fill:url(#linear-gradient-98);}.cls-122{fill:url(#linear-gradient-99);}.cls-123{stroke:url(#linear-gradient-100);}.cls-124{fill:#fff;}.cls-125{stroke:url(#linear-gradient-101);}.cls-126,.cls-130{stroke-dasharray:2 2;}.cls-126{stroke:url(#linear-gradient-102);}.cls-127{stroke:url(#linear-gradient-103);}.cls-128,.cls-132{stroke-dasharray:2.03 2.03;}.cls-128{stroke:url(#linear-gradient-104);}.cls-129{stroke:url(#linear-gradient-105);}.cls-130{stroke:url(#linear-gradient-106);}.cls-131{stroke:url(#linear-gradient-107);}.cls-132{stroke:url(#linear-gradient-108);}.cls-133{font-size:42.79px;font-family:MyriadPro-Regular, Myriad Pro;letter-spacing:-0.04em;}.cls-133,.cls-141,.cls-142{fill:#1d1d1b;}.cls-134{letter-spacing:0em;}.cls-135{stroke:url(#linear-gradient-109);}.cls-136,.cls-139{stroke-dasharray:1.97 1.97;}.cls-136{stroke:url(#linear-gradient-110);}.cls-137,.cls-140{stroke-dasharray:1.95 1.95;}.cls-137{stroke:url(#linear-gradient-112);}.cls-138{stroke:url(#linear-gradient-113);}.cls-139{stroke:url(#linear-gradient-114);}.cls-140{stroke:url(#linear-gradient-116);}.cls-141{font-size:11.13px;}.cls-141,.cls-142{font-family:Tahoma;}.cls-142{font-size:7px;}.cls-143{letter-spacing:0em;}.cls-144{letter-spacing:-0.02em;}.cls-145{letter-spacing:0em;}.cls-146{letter-spacing:-0.01em;}.cls-147{letter-spacing:0em;}.cls-148{letter-spacing:-0.02em;}.cls-149{letter-spacing:0em;}</style><linearGradient id="linear-gradient" x1="32.15" y1="354.07" x2="276.18" y2="354.07" gradientUnits="userSpaceOnUse"><stop offset="0" stop-color="#009fe3"/><stop offset="1" stop-color="#672783"/></linearGradient><linearGradient id="linear-gradient-2" x1="333.03" y1="357.55" x2="577.06" y2="357.55" xlink:href="#linear-gradient"/><clipPath id="clip-path" transform="translate(-15.47 -34.61)"><path class="cls-1" d="M202.27,299.38a1,1,0,0,0,.69,1.32,16.55,16.55,0,0,1,8.16,6.09c.22.38.7,1.11,1.1,1.89a16,16,0,0,1,1.79,7,1.14,1.14,0,0,0,.14.54,1,1,0,0,0,1.15.45,1,1,0,0,0,.72-1.06,18,18,0,0,0-4-10.92,18.15,18.15,0,0,0-8.48-6,1,1,0,0,0-.37-.07,1,1,0,0,0-.94.67"/></clipPath><linearGradient id="linear-gradient-3" x1="-924.9" y1="1018.6" x2="-923.9" y2="1018.6" gradientTransform="matrix(0, -110.5, -110.5, 0, 112766.43, -101847.85)" xlink:href="#linear-gradient"/><clipPath id="clip-path-2" transform="translate(-15.47 -34.61)"><path class="cls-1" d="M200.71,303a1,1,0,0,0,.68,1.26,12.24,12.24,0,0,1,7.06,5.54,12.11,12.11,0,0,1,1.73,6.35,1,1,0,1,0,2,0,14.25,14.25,0,0,0-2.67-8.41,15.48,15.48,0,0,0-2.14-2.39,14.2,14.2,0,0,0-5.38-3,1.07,1.07,0,0,0-.35-.06,1,1,0,0,0-.95.71"/></clipPath><linearGradient id="linear-gradient-4" x1="-924.9" y1="1018.6" x2="-923.9" y2="1018.6" gradientTransform="matrix(0, -110.5, -110.5, 0, 112763.77, -101844.89)" xlink:href="#linear-gradient"/><clipPath id="clip-path-3" transform="translate(-15.47 -34.61)"><path class="cls-1" d="M199.34,306.15a1,1,0,0,0-.13,1.07,1.06,1.06,0,0,0,.76.57,8.42,8.42,0,0,1,5.7,4.93,8,8,0,0,1,.67,3.75,1,1,0,0,0,.28.83,1,1,0,0,0,1.09.24,1,1,0,0,0,.64-.91,10.54,10.54,0,0,0-3.92-8.8,10.32,10.32,0,0,0-4.07-2l-.26,0a1,1,0,0,0-.76.37"/></clipPath><linearGradient id="linear-gradient-5" x1="-924.9" y1="1018.6" x2="-923.9" y2="1018.6" gradientTransform="matrix(0, -110.5, -110.5, 0, 112761.01, -101842.18)" xlink:href="#linear-gradient"/><clipPath id="clip-path-4" transform="translate(-15.47 -34.61)"><path class="cls-1" d="M197.74,309.79a1,1,0,0,0-.1,1,1,1,0,0,0,.86.58,4.71,4.71,0,0,1,3.95,3.79,5,5,0,0,1,0,1.69,1,1,0,0,0,.85,1.16,1,1,0,0,0,1.13-.86,6.68,6.68,0,0,0-5.78-7.78h-.15a.92.92,0,0,0-.77.41"/></clipPath><linearGradient id="linear-gradient-6" x1="-924.9" y1="1018.6" x2="-923.9" y2="1018.6" gradientTransform="matrix(0, -110.5, -110.5, 0, 112758.44, -101839.18)" xlink:href="#linear-gradient"/><clipPath id="clip-path-5" transform="translate(-15.47 -34.61)"><path class="cls-1" d="M129.32,373.22a6.65,6.65,0,0,0,6.8,7,6.17,6.17,0,0,0,5-2.25l-.37-.4a5.55,5.55,0,0,1-4.61,2.14,6.49,6.49,0,0,1,0-13,5.55,5.55,0,0,1,4.61,2.14l.37-.4a6.17,6.17,0,0,0-5-2.25,6.63,6.63,0,0,0-6.8,7"/></clipPath><linearGradient id="linear-gradient-7" x1="-924.9" y1="1018.6" x2="-923.9" y2="1018.6" gradientTransform="matrix(0, -110.5, -110.5, 0, 112692.57, -101765.25)" xlink:href="#linear-gradient"/><clipPath id="clip-path-6" transform="translate(-15.47 -34.61)"><path class="cls-1" d="M144.74,376.32c0-1.84,1.23-3.18,4.37-3.18h5.27v3.05a5.24,5.24,0,0,1-5.27,3.53c-2.76,0-4.37-1.31-4.37-3.4m-.16-8,.38.38a7.2,7.2,0,0,1,5-1.93c2.86,0,4.39,1.47,4.39,4.36v1.53h-5.25c-3.69,0-4.92,1.74-4.92,3.72,0,2.33,1.79,3.88,4.9,3.88a5.46,5.46,0,0,0,5.27-3v2.94h.53v-9.08c0-3.15-1.74-4.84-4.95-4.84a7.86,7.86,0,0,0-5.38,2.06"/></clipPath><linearGradient id="linear-gradient-8" x1="-924.9" y1="1018.59" x2="-923.9" y2="1018.59" gradientTransform="matrix(0, -110.5, -110.5, 0, 112706.27, -101776.55)" xlink:href="#linear-gradient"/><clipPath id="clip-path-7" transform="translate(-15.47 -34.61)"><path class="cls-1" d="M161.45,369.9v-3.59h-.54v13.84h.54v-7.44c0-3.67,2-5.95,5.27-5.95h.16v-.53a5.25,5.25,0,0,0-5.43,3.67"/></clipPath><linearGradient id="linear-gradient-9" x1="-924.9" y1="1018.59" x2="-923.9" y2="1018.59" gradientTransform="matrix(0, -110.5, -110.5, 0, 112720.81, -101787.62)" xlink:href="#linear-gradient"/><clipPath id="clip-path-8" transform="translate(-15.47 -34.61)"><path class="cls-1" d="M169.66,373.22a6.19,6.19,0,1,1,6.19,6.5,6.12,6.12,0,0,1-6.19-6.5M182,360.29v10.22a6.42,6.42,0,0,0-6.18-4.28,7,7,0,0,0,0,14,6.41,6.41,0,0,0,6.18-4.31v4.23h.54V360.29Z"/></clipPath><linearGradient id="linear-gradient-10" x1="-924.9" y1="1018.61" x2="-923.9" y2="1018.61" gradientTransform="matrix(0, -110.5, -110.5, 0, 112734.06, -101798.14)" xlink:href="#linear-gradient"/><clipPath id="clip-path-9" transform="translate(-15.47 -34.61)"><path class="cls-1" d="M154.34,324.57v.09h0v10.66h3v-7.74h13.74c6.2,0,9,2.22,9,5.61,0,3.08-2.68,5.37-9,5.37H140.81c-6.2,0-9-2.22-9-5.61,0-3.08,2.68-5.37,9-5.37H151.3v-3H140.93c-8.79,0-12.05,3.56-12.05,8.28,0,5,3.52,8.72,12.18,8.72h30c6.28,0,9,2.29,9,5.37,0,3.39-2.76,5.61-9,5.61H157.34v-7.44h-3v10.3h0v.15h16.49c8.67,0,12.18-3.73,12.18-8.72a7.11,7.11,0,0,0-4.13-6.77,7.13,7.13,0,0,0,4.13-6.78c0-5-3.51-8.72-12.18-8.72Z"/></clipPath><linearGradient id="linear-gradient-11" x1="-924.9" y1="1018.64" x2="-923.9" y2="1018.64" gradientTransform="matrix(0, -110.5, -110.5, 0, 112718.27, -101793.99)" xlink:href="#linear-gradient"/><clipPath id="clip-path-10" transform="translate(-15.47 -34.61)"><path class="cls-1" d="M128.88,347.26v0c0,4.72,3.26,8.28,12.05,8.28H151.3v-3H140.81c-6.22,0-8.91-2.25-9-5.29Z"/></clipPath><linearGradient id="linear-gradient-12" x1="-924.9" y1="1018.59" x2="-923.9" y2="1018.59" gradientTransform="matrix(0, -110.5, -110.5, 0, 112696.51, -101777.43)" xlink:href="#linear-gradient"/><clipPath id="clip-path-11" transform="translate(-15.47 -34.61)"><path class="cls-1" d="M115.1,380.12V324.68A10.9,10.9,0,0,1,126,313.79h59.93a10.9,10.9,0,0,1,10.88,10.89v55.44A10.9,10.9,0,0,1,185.91,391H126a10.9,10.9,0,0,1-10.88-10.89M126,313.05a11.64,11.64,0,0,0-11.63,11.63v55.44A11.65,11.65,0,0,0,126,391.75h59.93a11.65,11.65,0,0,0,11.63-11.63V324.68a11.64,11.64,0,0,0-11.63-11.63Z"/></clipPath><linearGradient id="linear-gradient-13" x1="-924.9" y1="1018.59" x2="-923.9" y2="1018.59" gradientTransform="matrix(0, -110.5, -110.5, 0, 112712.79, -101789.33)" xlink:href="#linear-gradient"/><clipPath id="clip-path-12" transform="translate(-15.47 -34.61)"><path class="cls-1" d="M141.71,540.26a1,1,0,0,0,.7,1.33,16.53,16.53,0,0,1,8.15,6.09c.23.38.71,1.11,1.11,1.89a15.79,15.79,0,0,1,1.78,7,1.29,1.29,0,0,0,.15.55,1,1,0,0,0,1.15.45,1,1,0,0,0,.72-1.07A18.21,18.21,0,0,0,143,539.66a1.19,1.19,0,0,0-.37-.06,1,1,0,0,0-.94.66"/></clipPath><linearGradient id="linear-gradient-14" x1="-925.83" y1="1020.65" x2="-924.83" y2="1020.65" gradientTransform="matrix(0, -110.5, -110.5, 0, 112932.15, -101709.4)" xlink:href="#linear-gradient"/><clipPath id="clip-path-13" transform="translate(-15.47 -34.61)"><path class="cls-1" d="M140.16,543.83a1,1,0,0,0,.68,1.27,12.24,12.24,0,0,1,7,5.53,12.07,12.07,0,0,1,1.74,6.35,1,1,0,1,0,2,0,14.22,14.22,0,0,0-2.66-8.41,15.85,15.85,0,0,0-2.14-2.38,14.44,14.44,0,0,0-5.38-3,1.48,1.48,0,0,0-.35,0,1,1,0,0,0-1,.7"/></clipPath><linearGradient id="linear-gradient-15" x1="-925.83" y1="1020.65" x2="-924.83" y2="1020.65" gradientTransform="matrix(0, -110.5, -110.5, 0, 112929.49, -101706.45)" xlink:href="#linear-gradient"/><clipPath id="clip-path-14" transform="translate(-15.47 -34.61)"><path class="cls-1" d="M138.79,547a1,1,0,0,0-.13,1.07,1.06,1.06,0,0,0,.76.57,8.43,8.43,0,0,1,5.7,4.92,8.09,8.09,0,0,1,.67,3.76,1,1,0,0,0,.28.83,1,1,0,0,0,1.73-.67,10.54,10.54,0,0,0-3.92-8.8,10.25,10.25,0,0,0-4.07-2,1.26,1.26,0,0,0-.27,0,1,1,0,0,0-.75.38"/></clipPath><linearGradient id="linear-gradient-16" x1="-925.83" y1="1020.64" x2="-924.83" y2="1020.64" gradientTransform="matrix(0, -110.5, -110.5, 0, 112926.74, -101703.73)" xlink:href="#linear-gradient"/><clipPath id="clip-path-15" transform="translate(-15.47 -34.61)"><path class="cls-1" d="M137.18,550.68a1,1,0,0,0-.09,1,1,1,0,0,0,.86.58,4.68,4.68,0,0,1,3.94,3.79,5,5,0,0,1,0,1.69,1,1,0,1,0,2,.3,6.69,6.69,0,0,0-5.78-7.79H138a.94.94,0,0,0-.78.42"/></clipPath><linearGradient id="linear-gradient-17" x1="-925.83" y1="1020.64" x2="-924.83" y2="1020.64" gradientTransform="matrix(0, -110.5, -110.5, 0, 112924.16, -101700.73)" xlink:href="#linear-gradient"/><clipPath id="clip-path-16" transform="translate(-15.47 -34.61)"><path class="cls-1" d="M68.77,614.1a6.66,6.66,0,0,0,6.8,7,6.18,6.18,0,0,0,5-2.25l-.37-.4a5.55,5.55,0,0,1-4.61,2.14,6.49,6.49,0,0,1,0-13,5.55,5.55,0,0,1,4.61,2.14l.37-.4a6.18,6.18,0,0,0-5-2.25,6.63,6.63,0,0,0-6.8,7"/></clipPath><linearGradient id="linear-gradient-18" x1="-925.83" y1="1020.65" x2="-924.83" y2="1020.65" gradientTransform="matrix(0, -110.5, -110.5, 0, 112858.3, -101626.8)" xlink:href="#linear-gradient"/><clipPath id="clip-path-17" transform="translate(-15.47 -34.61)"><path class="cls-1" d="M84.19,617.21c0-1.85,1.23-3.19,4.36-3.19h5.28v3.06a5.24,5.24,0,0,1-5.28,3.53c-2.75,0-4.36-1.31-4.36-3.4m-.16-8,.37.37a7.28,7.28,0,0,1,5-1.92c2.86,0,4.39,1.47,4.39,4.36v1.53H88.58c-3.69,0-4.93,1.74-4.93,3.72,0,2.33,1.8,3.88,4.9,3.88a5.47,5.47,0,0,0,5.28-3V621h.53V612c0-3.16-1.74-4.84-5-4.84A7.86,7.86,0,0,0,84,609.18"/></clipPath><linearGradient id="linear-gradient-19" x1="-925.83" y1="1020.64" x2="-924.83" y2="1020.64" gradientTransform="matrix(0, -110.5, -110.5, 0, 112871.99, -101638.1)" xlink:href="#linear-gradient"/><clipPath id="clip-path-18" transform="translate(-15.47 -34.61)"><path class="cls-1" d="M100.89,610.78V607.2h-.53V621h.53V613.6c0-3.67,2-6,5.28-6h.16v-.53a5.27,5.27,0,0,0-5.44,3.66"/></clipPath><linearGradient id="linear-gradient-20" x1="-925.83" y1="1020.64" x2="-924.83" y2="1020.64" gradientTransform="matrix(0, -110.5, -110.5, 0, 112886.53, -101649.18)" xlink:href="#linear-gradient"/><clipPath id="clip-path-19" transform="translate(-15.47 -34.61)"><path class="cls-1" d="M109.11,614.1a6.19,6.19,0,1,1,6.18,6.51c-3.53,0-6.18-2.68-6.18-6.51m12.37-12.93V611.4a6.41,6.41,0,0,0-6.19-4.28,7,7,0,0,0,0,14,6.41,6.41,0,0,0,6.19-4.31V621H122V601.17Z"/></clipPath><linearGradient id="linear-gradient-21" x1="-925.83" y1="1020.65" x2="-924.83" y2="1020.65" gradientTransform="matrix(0, -110.5, -110.5, 0, 112899.78, -101659.7)" xlink:href="#linear-gradient"/><clipPath id="clip-path-20" transform="translate(-15.47 -34.61)"><path class="cls-1" d="M93.79,565.46v.09h0V576.2h3v-7.73h13.74c6.2,0,9,2.22,9,5.61,0,3.08-2.68,5.37-9,5.37H80.26c-6.2,0-9-2.23-9-5.61,0-3.08,2.68-5.37,9-5.37H90.75v-3H80.38c-8.79,0-12,3.55-12,8.27,0,5,3.51,8.73,12.18,8.73h30c6.28,0,9,2.29,9,5.37,0,3.39-2.76,5.61-9,5.61H96.79V586h-3v10.3h0v.15h16.49c8.66,0,12.18-3.73,12.18-8.72a7.14,7.14,0,0,0-4.13-6.78,7.11,7.11,0,0,0,4.13-6.77c0-5-3.51-8.72-12.18-8.72Z"/></clipPath><linearGradient id="linear-gradient-22" x1="-925.83" y1="1020.69" x2="-924.83" y2="1020.69" gradientTransform="matrix(0, -110.5, -110.5, 0, 112883.99, -101655.54)" xlink:href="#linear-gradient"/><clipPath id="clip-path-21" transform="translate(-15.47 -34.61)"><path class="cls-1" d="M68.33,588.15v0c0,4.72,3.27,8.28,12.06,8.28H90.74v-3H80.25c-6.22,0-8.9-2.26-9-5.29Z"/></clipPath><linearGradient id="linear-gradient-23" x1="-925.83" y1="1020.64" x2="-924.83" y2="1020.64" gradientTransform="matrix(0, -110.5, -110.5, 0, 112862.23, -101638.98)" xlink:href="#linear-gradient"/><clipPath id="clip-path-22" transform="translate(-15.47 -34.61)"><path class="cls-1" d="M54.55,621V565.56a10.89,10.89,0,0,1,10.88-10.88h59.93a10.89,10.89,0,0,1,10.88,10.88V621a10.89,10.89,0,0,1-10.88,10.88H65.43A10.89,10.89,0,0,1,54.55,621m10.88-67.07A11.64,11.64,0,0,0,53.8,565.56V621a11.65,11.65,0,0,0,11.63,11.63h59.93A11.65,11.65,0,0,0,137,621V565.56a11.64,11.64,0,0,0-11.63-11.62Z"/></clipPath><linearGradient id="linear-gradient-24" x1="-925.83" y1="1020.64" x2="-924.83" y2="1020.64" gradientTransform="matrix(0, -110.5, -110.5, 0, 112878.51, -101650.88)" xlink:href="#linear-gradient"/><linearGradient id="linear-gradient-25" x1="17.53" y1="76.66" x2="261.56" y2="76.66" xlink:href="#linear-gradient"/><linearGradient id="linear-gradient-26" x1="348.06" y1="344.58" x2="384.22" y2="370.81" xlink:href="#linear-gradient"/><linearGradient id="linear-gradient-27" x1="351.44" y1="340.25" x2="387.7" y2="366.54" xlink:href="#linear-gradient"/><linearGradient id="linear-gradient-28" x1="354.78" y1="336.34" x2="390.71" y2="362.4" xlink:href="#linear-gradient"/><linearGradient id="linear-gradient-29" x1="358.2" y1="331.83" x2="394.3" y2="358.01" xlink:href="#linear-gradient"/><linearGradient id="linear-gradient-30" x1="361.9" y1="327.51" x2="397.69" y2="353.47" xlink:href="#linear-gradient"/><linearGradient id="linear-gradient-31" x1="342.6" y1="351.65" x2="378.78" y2="377.89" xlink:href="#linear-gradient"/><linearGradient id="linear-gradient-32" x1="346.29" y1="346.94" x2="382.45" y2="373.17" xlink:href="#linear-gradient"/><linearGradient id="linear-gradient-33" x1="349.28" y1="343.17" x2="385.45" y2="369.4" xlink:href="#linear-gradient"/><linearGradient id="linear-gradient-34" x1="352.51" y1="340.24" x2="387.81" y2="365.85" xlink:href="#linear-gradient"/><linearGradient id="linear-gradient-35" x1="354.8" y1="336.24" x2="390.93" y2="362.44" xlink:href="#linear-gradient"/><linearGradient id="linear-gradient-36" x1="358.21" y1="332.16" x2="394.22" y2="358.28" xlink:href="#linear-gradient"/><linearGradient id="linear-gradient-37" x1="361.08" y1="328.23" x2="397.25" y2="354.46" xlink:href="#linear-gradient"/><linearGradient id="linear-gradient-38" x1="364.1" y1="324.41" x2="400.26" y2="350.64" xlink:href="#linear-gradient"/><linearGradient id="linear-gradient-39" x1="337.26" y1="358.36" x2="373.63" y2="384.74" xlink:href="#linear-gradient"/><linearGradient id="linear-gradient-40" x1="340.26" y1="355.07" x2="376.19" y2="381.13" xlink:href="#linear-gradient"/><linearGradient id="linear-gradient-41" x1="343.65" y1="350.54" x2="379.76" y2="376.73" xlink:href="#linear-gradient"/><linearGradient id="linear-gradient-42" x1="346.82" y1="346.27" x2="383.1" y2="372.58" xlink:href="#linear-gradient"/><linearGradient id="linear-gradient-43" x1="434.03" y1="544.68" x2="470.2" y2="570.91" xlink:href="#linear-gradient"/><linearGradient id="linear-gradient-44" x1="437.41" y1="540.35" x2="473.67" y2="566.65" xlink:href="#linear-gradient"/><linearGradient id="linear-gradient-45" x1="440.76" y1="536.44" x2="476.69" y2="562.5" xlink:href="#linear-gradient"/><linearGradient id="linear-gradient-46" x1="444.17" y1="531.93" x2="480.28" y2="558.11" xlink:href="#linear-gradient"/><linearGradient id="linear-gradient-47" x1="447.87" y1="527.61" x2="483.67" y2="553.57" xlink:href="#linear-gradient"/><linearGradient id="linear-gradient-48" x1="428.57" y1="551.75" x2="464.76" y2="577.99" xlink:href="#linear-gradient"/><linearGradient id="linear-gradient-49" x1="432.27" y1="547.04" x2="468.43" y2="573.27" xlink:href="#linear-gradient"/><linearGradient id="linear-gradient-50" x1="435.26" y1="543.27" x2="471.42" y2="569.5" xlink:href="#linear-gradient"/><linearGradient id="linear-gradient-51" x1="438.48" y1="540.34" x2="473.79" y2="565.95" xlink:href="#linear-gradient"/><linearGradient id="linear-gradient-52" x1="440.78" y1="536.34" x2="476.9" y2="562.54" xlink:href="#linear-gradient"/><linearGradient id="linear-gradient-53" x1="444.18" y1="532.26" x2="480.2" y2="558.38" xlink:href="#linear-gradient"/><linearGradient id="linear-gradient-54" x1="447.06" y1="528.33" x2="483.22" y2="554.56" xlink:href="#linear-gradient"/><linearGradient id="linear-gradient-55" x1="450.07" y1="524.51" x2="486.24" y2="550.74" xlink:href="#linear-gradient"/><linearGradient id="linear-gradient-56" x1="423.23" y1="558.46" x2="459.61" y2="584.84" xlink:href="#linear-gradient"/><linearGradient id="linear-gradient-57" x1="426.24" y1="555.17" x2="462.17" y2="581.23" xlink:href="#linear-gradient"/><linearGradient id="linear-gradient-58" x1="429.63" y1="550.64" x2="465.74" y2="576.83" xlink:href="#linear-gradient"/><linearGradient id="linear-gradient-59" x1="432.8" y1="546.37" x2="469.08" y2="572.68" xlink:href="#linear-gradient"/><linearGradient id="linear-gradient-60" x1="552.79" y1="287.78" x2="567.42" y2="299.75" xlink:href="#linear-gradient"/><linearGradient id="linear-gradient-61" x1="550.71" y1="290.32" x2="565.34" y2="302.29" xlink:href="#linear-gradient"/><linearGradient id="linear-gradient-62" x1="548.62" y1="292.87" x2="563.25" y2="304.84" xlink:href="#linear-gradient"/><linearGradient id="linear-gradient-63" x1="546.52" y1="295.44" x2="561.15" y2="307.41" xlink:href="#linear-gradient"/><linearGradient id="linear-gradient-64" x1="345.56" y1="418.76" x2="398.77" y2="431.4" xlink:href="#linear-gradient"/><linearGradient id="linear-gradient-65" x1="345.88" y1="417.43" x2="399.08" y2="430.06" xlink:href="#linear-gradient"/><linearGradient id="linear-gradient-66" x1="346.22" y1="415.98" x2="399.43" y2="428.61" xlink:href="#linear-gradient"/><linearGradient id="linear-gradient-67" x1="346.87" y1="413.23" x2="400.08" y2="425.87" xlink:href="#linear-gradient"/><linearGradient id="linear-gradient-68" x1="345.73" y1="418.06" x2="398.93" y2="430.7" xlink:href="#linear-gradient"/><linearGradient id="linear-gradient-69" x1="343.91" y1="425.73" x2="397.11" y2="438.36" xlink:href="#linear-gradient"/><linearGradient id="linear-gradient-70" x1="353.26" y1="536.47" x2="367.9" y2="548.44" xlink:href="#linear-gradient"/><linearGradient id="linear-gradient-71" x1="351.18" y1="539.02" x2="365.81" y2="550.99" xlink:href="#linear-gradient"/><linearGradient id="linear-gradient-72" x1="349.1" y1="541.57" x2="363.73" y2="553.54" xlink:href="#linear-gradient"/><linearGradient id="linear-gradient-73" x1="347" y1="544.14" x2="361.63" y2="556.11" xlink:href="#linear-gradient"/><linearGradient id="linear-gradient-74" x1="251.5" y1="544.14" x2="304.71" y2="556.77" xlink:href="#linear-gradient"/><linearGradient id="linear-gradient-75" x1="251.82" y1="542.8" x2="305.02" y2="555.44" xlink:href="#linear-gradient"/><linearGradient id="linear-gradient-76" x1="252.16" y1="541.35" x2="305.37" y2="553.99" xlink:href="#linear-gradient"/><linearGradient id="linear-gradient-77" x1="252.81" y1="538.61" x2="306.02" y2="551.24" xlink:href="#linear-gradient"/><linearGradient id="linear-gradient-78" x1="251.67" y1="543.44" x2="304.87" y2="556.07" xlink:href="#linear-gradient"/><linearGradient id="linear-gradient-79" x1="249.85" y1="551.1" x2="303.05" y2="563.74" xlink:href="#linear-gradient"/><linearGradient id="linear-gradient-80" x1="563.77" y1="41.16" x2="578.4" y2="53.13" xlink:href="#linear-gradient"/><linearGradient id="linear-gradient-81" x1="561.68" y1="43.71" x2="576.32" y2="55.68" xlink:href="#linear-gradient"/><linearGradient id="linear-gradient-82" x1="559.6" y1="46.26" x2="574.23" y2="58.23" xlink:href="#linear-gradient"/><linearGradient id="linear-gradient-83" x1="557.5" y1="48.82" x2="572.13" y2="60.8" xlink:href="#linear-gradient"/><linearGradient id="linear-gradient-84" x1="356.54" y1="172.15" x2="409.74" y2="184.79" xlink:href="#linear-gradient"/><linearGradient id="linear-gradient-85" x1="356.85" y1="170.81" x2="410.06" y2="183.45" xlink:href="#linear-gradient"/><linearGradient id="linear-gradient-86" x1="357.2" y1="169.36" x2="410.4" y2="182" xlink:href="#linear-gradient"/><linearGradient id="linear-gradient-87" x1="357.85" y1="166.62" x2="411.06" y2="179.26" xlink:href="#linear-gradient"/><linearGradient id="linear-gradient-88" x1="356.7" y1="171.45" x2="409.91" y2="184.08" xlink:href="#linear-gradient"/><linearGradient id="linear-gradient-89" x1="354.88" y1="179.11" x2="408.09" y2="191.75" xlink:href="#linear-gradient"/><linearGradient id="linear-gradient-90" x1="251.36" y1="41.19" x2="266" y2="53.16" xlink:href="#linear-gradient"/><linearGradient id="linear-gradient-91" x1="249.28" y1="43.73" x2="263.91" y2="55.7" xlink:href="#linear-gradient"/><linearGradient id="linear-gradient-92" x1="247.19" y1="46.28" x2="261.83" y2="58.25" xlink:href="#linear-gradient"/><linearGradient id="linear-gradient-93" x1="245.09" y1="48.85" x2="259.73" y2="60.82" xlink:href="#linear-gradient"/><linearGradient id="linear-gradient-94" x1="44.13" y1="172.17" x2="97.34" y2="184.81" xlink:href="#linear-gradient"/><linearGradient id="linear-gradient-95" x1="44.45" y1="170.84" x2="97.66" y2="183.47" xlink:href="#linear-gradient"/><linearGradient id="linear-gradient-96" x1="44.79" y1="169.39" x2="98" y2="182.02" xlink:href="#linear-gradient"/><linearGradient id="linear-gradient-97" x1="45.45" y1="166.65" x2="98.65" y2="179.28" xlink:href="#linear-gradient"/><linearGradient id="linear-gradient-98" x1="44.3" y1="171.47" x2="97.51" y2="184.11" xlink:href="#linear-gradient"/><linearGradient id="linear-gradient-99" x1="42.48" y1="179.14" x2="95.69" y2="191.77" xlink:href="#linear-gradient"/><linearGradient id="linear-gradient-100" x1="329.84" y1="76.66" x2="573.86" y2="76.66" xlink:href="#linear-gradient"/><linearGradient id="linear-gradient-101" x1="71.89" y1="118.65" x2="201.05" y2="118.65" xlink:href="#linear-gradient"/><linearGradient id="linear-gradient-102" x1="71.89" y1="118.9" x2="201.05" y2="118.9" xlink:href="#linear-gradient"/><linearGradient id="linear-gradient-103" x1="71.89" y1="118.65" x2="201.05" y2="118.65" xlink:href="#linear-gradient"/><linearGradient id="linear-gradient-104" x1="71.89" y1="71.8" x2="201.05" y2="71.8" xlink:href="#linear-gradient"/><linearGradient id="linear-gradient-105" x1="71.89" y1="25.96" x2="201.05" y2="25.96" xlink:href="#linear-gradient"/><linearGradient id="linear-gradient-106" x1="71.89" y1="25.71" x2="201.05" y2="25.71" xlink:href="#linear-gradient"/><linearGradient id="linear-gradient-107" x1="71.89" y1="25.96" x2="201.05" y2="25.96" xlink:href="#linear-gradient"/><linearGradient id="linear-gradient-108" x1="71.89" y1="72.81" x2="201.05" y2="72.81" xlink:href="#linear-gradient"/><linearGradient id="linear-gradient-109" x1="339.63" y1="110.5" x2="431.3" y2="110.5" xlink:href="#linear-gradient"/><linearGradient id="linear-gradient-110" x1="339.63" y1="110.75" x2="431.3" y2="110.75" xlink:href="#linear-gradient"/><linearGradient id="linear-gradient-112" x1="339.63" y1="77.01" x2="431.3" y2="77.01" xlink:href="#linear-gradient"/><linearGradient id="linear-gradient-113" x1="339.63" y1="44.5" x2="431.3" y2="44.5" xlink:href="#linear-gradient"/><linearGradient id="linear-gradient-114" x1="339.63" y1="44.25" x2="431.3" y2="44.25" xlink:href="#linear-gradient"/><linearGradient id="linear-gradient-116" x1="339.63" y1="77.99" x2="431.3" y2="77.99" xlink:href="#linear-gradient"/></defs><title>new JOSIA smart business card to print 2023</title><path class="cls-2" d="M267.55,430.6H40.78a8.5,8.5,0,0,1-8.5-8.5V286a8.5,8.5,0,0,1,8.5-8.5H267.55a8.51,8.51,0,0,1,8.51,8.5V422.1a8.51,8.51,0,0,1-8.51,8.5" transform="translate(-15.47 -34.61)"/><path class="cls-3" d="M568.43,434.08H341.66a8.5,8.5,0,0,1-8.5-8.5V289.52a8.51,8.51,0,0,1,8.5-8.51H568.43a8.51,8.51,0,0,1,8.51,8.51V425.58a8.5,8.5,0,0,1-8.51,8.5" transform="translate(-15.47 -34.61)"/><g class="cls-4"><rect class="cls-5" x="197.6" y="296.67" width="22.89" height="22.22" transform="translate(-177.44 245.38) rotate(-51.53)"/></g><g class="cls-6"><rect class="cls-7" x="196.89" y="300.5" width="18.96" height="18.43" transform="translate(-179.97 244.01) rotate(-51.53)"/></g><g class="cls-8"><rect class="cls-9" x="196.16" y="304.33" width="15.21" height="14.81" transform="translate(-182.54 242.73) rotate(-51.53)"/></g><g class="cls-10"><rect class="cls-11" x="195.43" y="308.18" width="11.37" height="11.13" transform="translate(-185.11 241.42) rotate(-51.53)"/></g><g class="cls-12"><rect class="cls-13" x="126.07" y="364.26" width="18.29" height="17.93" transform="translate(-256.59 212.31) rotate(-51.53)"/></g><g class="cls-14"><rect class="cls-15" x="140.75" y="364.68" width="17.62" height="17.1" transform="translate(-251.17 223.54) rotate(-51.53)"/></g><g class="cls-16"><rect class="cls-17" x="156.59" y="366.52" width="14.61" height="13.34" transform="matrix(0.62, -0.78, 0.78, 0.62, -245.72, 234.75)"/></g><g class="cls-18"><rect class="cls-19" x="163.86" y="358.79" width="23.98" height="22.93" transform="translate(-238.91 243) rotate(-51.53)"/></g><g class="cls-20"><rect class="cls-21" x="126.97" y="309.23" width="57.94" height="61.67" transform="translate(-222.79 216.01) rotate(-51.53)"/></g><g class="cls-22"><rect class="cls-23" x="129.86" y="340.05" width="20.44" height="22.72" transform="translate(-237.66 207.87) rotate(-51.53)"/></g><g class="cls-24"><rect class="cls-25" x="99.26" y="295.35" width="113.37" height="114.09" transform="translate(-232.45 220.67) rotate(-51.53)"/></g><g class="cls-26"><rect class="cls-27" x="137.05" y="537.56" width="22.89" height="22.22" transform="translate(-388.93 289.01) rotate(-51.53)"/></g><g class="cls-28"><rect class="cls-29" x="136.34" y="541.39" width="18.96" height="18.43" transform="translate(-391.46 287.64) rotate(-51.53)"/></g><g class="cls-30"><rect class="cls-31" x="135.6" y="545.22" width="15.21" height="14.81" transform="translate(-394.03 286.36) rotate(-51.53)"/></g><g class="cls-32"><rect class="cls-33" x="134.87" y="549.07" width="11.37" height="11.13" transform="translate(-396.6 285.05) rotate(-51.53)"/></g><g class="cls-34"><rect class="cls-35" x="65.52" y="605.15" width="18.29" height="17.93" transform="translate(-468.08 255.93) rotate(-51.53)"/></g><g class="cls-36"><rect class="cls-37" x="80.2" y="605.57" width="17.62" height="17.1" transform="translate(-462.66 267.17) rotate(-51.53)"/></g><g class="cls-38"><rect class="cls-39" x="96.04" y="607.41" width="14.61" height="13.34" transform="translate(-457.21 278.38) rotate(-51.53)"/></g><g class="cls-40"><rect class="cls-41" x="103.31" y="599.68" width="23.98" height="22.93" transform="translate(-450.4 286.63) rotate(-51.53)"/></g><g class="cls-42"><rect class="cls-43" x="66.42" y="550.12" width="57.94" height="61.67" transform="translate(-434.28 259.63) rotate(-51.53)"/></g><g class="cls-44"><rect class="cls-45" x="69.31" y="580.94" width="20.44" height="22.72" transform="translate(-449.15 251.5) rotate(-51.53)"/></g><g class="cls-46"><rect class="cls-47" x="38.71" y="536.24" width="113.37" height="114.09" transform="translate(-443.94 264.29) rotate(-51.53)"/></g><rect class="cls-48" x="17.66" y="0.13" width="243.78" height="153.07" rx="8.5"/><path class="cls-49" d="M348.77,348.24l.37-.76a2.85,2.85,0,0,0,1.54.45c.64,0,.9-.19.9-.46,0-.82-2.72-.26-2.72-1.87,0-.74.65-1.36,2-1.36a3.29,3.29,0,0,1,1.62.39l-.33.76a2.83,2.83,0,0,0-1.3-.34c-.64,0-.89.22-.89.5,0,.8,2.72.25,2.72,1.84,0,.73-.65,1.35-2,1.35A3.49,3.49,0,0,1,348.77,348.24Z" transform="translate(-15.47 -34.61)"/><path class="cls-50" d="M361.67,348.67v-2.61l-1.38,2.15h-.49l-1.37-2.1v2.56h-1v-4.35h.89l1.75,2.7,1.73-2.7h.89v4.35Z" transform="translate(-15.47 -34.61)"/><path class="cls-51" d="M370.9,347.74h-2.18l-.41.93H367.2l2.09-4.35h1.07l2.09,4.35h-1.14Zm-.34-.77-.75-1.67-.74,1.67Z" transform="translate(-15.47 -34.61)"/><path class="cls-52" d="M379.93,348.67l-.9-1.21h-1v1.21H377v-4.35h2c1.25,0,2,.6,2,1.57a1.42,1.42,0,0,1-1,1.38l1,1.4Zm-1-3.53H378v1.51h.89c.66,0,1-.28,1-.76S379.58,345.14,378.92,345.14Z" transform="translate(-15.47 -34.61)"/><path class="cls-53" d="M386.78,345.14h-1.5v-.82h4.08v.82h-1.5v3.53h-1.08Z" transform="translate(-15.47 -34.61)"/><path class="cls-54" d="M353.43,358.54c0,.75-.64,1.18-1.87,1.18h-2.42v-4.35h2.28c1.17,0,1.77.45,1.77,1.13a1,1,0,0,1-.62,1A1.1,1.1,0,0,1,353.43,358.54Zm-1.09-.11c0-.37-.3-.54-.86-.54h-1.27V359h1.27C352,359,352.34,358.8,352.34,358.43Zm-2.13-2.3v1h1.08c.53,0,.82-.17.82-.51s-.29-.51-.82-.51Z" transform="translate(-15.47 -34.61)"/><path class="cls-55" d="M358.23,357.81v-2.44h1.08v2.4c0,.83.39,1.17,1,1.17s1-.34,1-1.17v-2.4h1.07v2.44a2.12,2.12,0,0,1-4.23,0Z" transform="translate(-15.47 -34.61)"/><path class="cls-56" d="M367.18,359.29l.37-.75a2.94,2.94,0,0,0,1.54.45c.64,0,.9-.2.9-.47,0-.81-2.72-.25-2.72-1.87,0-.74.65-1.35,2-1.35a3.4,3.4,0,0,1,1.62.38l-.34.77a2.78,2.78,0,0,0-1.29-.35c-.64,0-.89.23-.89.5,0,.8,2.72.25,2.72,1.85,0,.73-.65,1.35-2,1.35A3.49,3.49,0,0,1,367.18,359.29Z" transform="translate(-15.47 -34.61)"/><path class="cls-57" d="M375.83,355.37h1.08v4.35h-1.08Z" transform="translate(-15.47 -34.61)"/><path class="cls-58" d="M386.32,355.37v4.35h-.89l-2.33-2.64v2.64H382v-4.35h.9l2.32,2.64v-2.64Z" transform="translate(-15.47 -34.61)"/><path class="cls-59" d="M395.07,358.91v.81h-3.62v-4.35H395v.81h-2.46v.94h2.18v.79h-2.18v1Z" transform="translate(-15.47 -34.61)"/><path class="cls-60" d="M399.58,359.29l.37-.75a2.94,2.94,0,0,0,1.54.45c.64,0,.9-.2.9-.47,0-.81-2.72-.25-2.72-1.87,0-.74.65-1.35,2-1.35a3.41,3.41,0,0,1,1.63.38l-.34.77a2.78,2.78,0,0,0-1.29-.35c-.64,0-.89.23-.89.5,0,.8,2.72.25,2.72,1.85,0,.73-.65,1.35-2,1.35A3.48,3.48,0,0,1,399.58,359.29Z" transform="translate(-15.47 -34.61)"/><path class="cls-61" d="M407.86,359.29l.37-.75a2.94,2.94,0,0,0,1.54.45c.64,0,.9-.2.9-.47,0-.81-2.72-.25-2.72-1.87,0-.74.64-1.35,2-1.35a3.41,3.41,0,0,1,1.63.38l-.34.77a2.78,2.78,0,0,0-1.29-.35c-.64,0-.89.23-.89.5,0,.8,2.72.25,2.72,1.85,0,.73-.65,1.35-2,1.35A3.48,3.48,0,0,1,407.86,359.29Z" transform="translate(-15.47 -34.61)"/><path class="cls-62" d="M348.84,368.6a2.34,2.34,0,0,1,2.54-2.25,2.5,2.5,0,0,1,1.93.77l-.7.6a1.53,1.53,0,0,0-1.17-.51,1.39,1.39,0,1,0,0,2.78,1.53,1.53,0,0,0,1.17-.51l.7.59a2.47,2.47,0,0,1-1.93.78A2.34,2.34,0,0,1,348.84,368.6Z" transform="translate(-15.47 -34.61)"/><path class="cls-63" d="M361,369.85h-2.17l-.42.93h-1.11l2.09-4.35h1.07l2.09,4.35h-1.14Zm-.34-.77-.74-1.67-.75,1.67Z" transform="translate(-15.47 -34.61)"/><path class="cls-64" d="M370.07,370.78l-.9-1.21h-1v1.21h-1.09v-4.35h2c1.25,0,2,.6,2,1.57a1.41,1.41,0,0,1-1,1.38l1.05,1.4Zm-1-3.53h-.88v1.51h.88c.66,0,1-.28,1-.76S369.72,367.25,369.06,367.25Z" transform="translate(-15.47 -34.61)"/><path class="cls-65" d="M376,366.43h2.13c1.53,0,2.58.85,2.58,2.17s-1.05,2.18-2.58,2.18H376Zm2.07,3.52a1.36,1.36,0,1,0,0-2.7h-1V370Z" transform="translate(-15.47 -34.61)"/><path class="cls-66" d="M434.75,548.34l.36-.76a2.92,2.92,0,0,0,1.55.46c.64,0,.9-.2.9-.47,0-.82-2.72-.26-2.72-1.87,0-.74.64-1.36,2-1.36a3.24,3.24,0,0,1,1.62.39l-.33.76a2.77,2.77,0,0,0-1.3-.34c-.64,0-.88.22-.88.5,0,.8,2.72.25,2.72,1.84,0,.73-.65,1.35-2,1.35A3.48,3.48,0,0,1,434.75,548.34Z" transform="translate(-15.47 -34.61)"/><path class="cls-67" d="M447.65,548.77v-2.61l-1.37,2.15h-.49l-1.37-2.1v2.56h-1v-4.35h.9l1.75,2.7,1.72-2.7h.89l0,4.35Z" transform="translate(-15.47 -34.61)"/><path class="cls-68" d="M456.87,547.84H454.7l-.41.93h-1.11l2.08-4.35h1.07l2.09,4.35h-1.13Zm-.34-.77-.74-1.67-.74,1.67Z" transform="translate(-15.47 -34.61)"/><path class="cls-69" d="M465.91,548.77l-.91-1.21h-1v1.21h-1.08v-4.35h2c1.25,0,2,.6,2,1.58a1.41,1.41,0,0,1-1,1.37l1.05,1.4Zm-1-3.53H464v1.51h.88c.66,0,1-.28,1-.75S465.55,545.24,464.89,545.24Z" transform="translate(-15.47 -34.61)"/><path class="cls-70" d="M472.76,545.24h-1.5v-.82h4.08v.82h-1.5v3.53h-1.08Z" transform="translate(-15.47 -34.61)"/><path class="cls-71" d="M439.4,558.64c0,.75-.64,1.18-1.87,1.18h-2.42v-4.35h2.29c1.17,0,1.77.46,1.77,1.13a1,1,0,0,1-.62,1A1.09,1.09,0,0,1,439.4,558.64Zm-1.09-.11c0-.37-.3-.54-.86-.54h-1.26v1.08h1.26C438,559.07,438.31,558.9,438.31,558.53Zm-2.12-2.3v1h1.08c.52,0,.81-.18.81-.52s-.29-.51-.81-.51Z" transform="translate(-15.47 -34.61)"/><path class="cls-72" d="M444.2,557.91v-2.44h1.08v2.4c0,.83.39,1.17,1.05,1.17s1-.34,1-1.17v-2.4h1.07v2.44a2.12,2.12,0,0,1-4.24,0Z" transform="translate(-15.47 -34.61)"/><path class="cls-73" d="M453.16,559.39l.36-.75a3,3,0,0,0,1.55.45c.64,0,.9-.2.9-.47,0-.81-2.72-.25-2.72-1.87,0-.74.64-1.35,2-1.35a3.34,3.34,0,0,1,1.62.38l-.33.77a2.77,2.77,0,0,0-1.3-.34c-.64,0-.88.22-.88.49,0,.8,2.72.25,2.72,1.85,0,.73-.65,1.35-2,1.35A3.48,3.48,0,0,1,453.16,559.39Z" transform="translate(-15.47 -34.61)"/><path class="cls-74" d="M461.8,555.47h1.08v4.35H461.8Z" transform="translate(-15.47 -34.61)"/><path class="cls-75" d="M472.3,555.47v4.35h-.89l-2.33-2.64v2.64H468v-4.35h.89l2.33,2.64v-2.64Z" transform="translate(-15.47 -34.61)"/><path class="cls-76" d="M481.05,559v.8h-3.63v-4.35H481v.81H478.5v.94h2.17V558H478.5v1Z" transform="translate(-15.47 -34.61)"/><path class="cls-77" d="M485.56,559.39l.36-.75a3,3,0,0,0,1.55.45c.64,0,.9-.2.9-.47,0-.81-2.72-.25-2.72-1.87,0-.74.64-1.35,2-1.35a3.34,3.34,0,0,1,1.62.38l-.33.77a2.77,2.77,0,0,0-1.3-.34c-.64,0-.88.22-.88.49,0,.8,2.72.25,2.72,1.85,0,.73-.65,1.35-2,1.35A3.48,3.48,0,0,1,485.56,559.39Z" transform="translate(-15.47 -34.61)"/><path class="cls-78" d="M493.83,559.39l.37-.75a3,3,0,0,0,1.55.45c.64,0,.9-.2.9-.47,0-.81-2.72-.25-2.72-1.87,0-.74.64-1.35,2-1.35a3.34,3.34,0,0,1,1.62.38l-.33.77a2.77,2.77,0,0,0-1.3-.34c-.64,0-.89.22-.89.49,0,.8,2.72.25,2.72,1.85,0,.73-.64,1.35-2,1.35A3.54,3.54,0,0,1,493.83,559.39Z" transform="translate(-15.47 -34.61)"/><path class="cls-79" d="M434.82,568.7a2.33,2.33,0,0,1,2.54-2.25,2.48,2.48,0,0,1,1.92.77l-.69.6a1.55,1.55,0,0,0-1.18-.51,1.39,1.39,0,1,0,0,2.78,1.55,1.55,0,0,0,1.18-.51l.69.6a2.48,2.48,0,0,1-1.93.77A2.33,2.33,0,0,1,434.82,568.7Z" transform="translate(-15.47 -34.61)"/><path class="cls-80" d="M447,570h-2.17l-.41.93h-1.11l2.08-4.35h1.07l2.09,4.35h-1.13Zm-.34-.77-.74-1.67-.74,1.67Z" transform="translate(-15.47 -34.61)"/><path class="cls-81" d="M456.05,570.88l-.9-1.21h-1v1.21h-1.08v-4.35h2c1.25,0,2,.6,2,1.57a1.42,1.42,0,0,1-1,1.38l1,1.4Zm-1-3.53h-.88v1.51H455c.67,0,1-.28,1-.76S455.7,567.35,455,567.35Z" transform="translate(-15.47 -34.61)"/><path class="cls-82" d="M462,566.53h2.12c1.53,0,2.58.85,2.58,2.17s-1.05,2.18-2.58,2.18H462Zm2.07,3.52a1.36,1.36,0,1,0,0-2.7h-1v2.7Z" transform="translate(-15.47 -34.61)"/><path class="cls-83" d="M564.56,295.56a16.55,16.55,0,0,0-8.16-6.09,1,1,0,1,1,.62-1.92,18.21,18.21,0,0,1,4.17,2,17.76,17.76,0,0,1,4.31,3.94,18,18,0,0,1,4,10.92,1,1,0,0,1-.71,1.06,1,1,0,0,1-1.15-.44,1.37,1.37,0,0,1-.15-.55,15.83,15.83,0,0,0-1.78-7C565.26,296.67,564.78,295.94,564.56,295.56Z" transform="translate(-15.47 -34.61)"/><path class="cls-84" d="M563,296.48a14.19,14.19,0,0,1,2.67,8.41,1,1,0,0,1-1,1.06,1,1,0,0,1-1-1.16,7.63,7.63,0,0,0-.19-2.82c-1.52-4.71-4.41-7.67-8.6-9a1,1,0,1,1,.62-1.91,14.13,14.13,0,0,1,5.38,3A15,15,0,0,1,563,296.48Z" transform="translate(-15.47 -34.61)"/><path class="cls-85" d="M559.76,298.56a10.55,10.55,0,0,1,2,6.84,1,1,0,0,1-.65.91.94.94,0,0,1-1.08-.24,1.06,1.06,0,0,1-.28-.91,7.62,7.62,0,0,0-.77-3.89,8.41,8.41,0,0,0-5.6-4.71,1,1,0,0,1-.76-.57.94.94,0,0,1,.13-1.07,1,1,0,0,1,1-.34,10.59,10.59,0,0,1,4.07,2A10.91,10.91,0,0,1,559.76,298.56Z" transform="translate(-15.47 -34.61)"/><path class="cls-86" d="M556.68,300.83a6.67,6.67,0,0,1,1.2,5.11,1,1,0,0,1-1.13.86,1,1,0,0,1-.85-1.16,4.8,4.8,0,0,0,0-1.69,4.69,4.69,0,0,0-3.95-3.79,1,1,0,0,1-.85-.58,1,1,0,0,1,.09-1,.93.93,0,0,1,.92-.4A6.69,6.69,0,0,1,556.68,300.83Z" transform="translate(-15.47 -34.61)"/><path class="cls-87" d="M371.55,422.31a2.22,2.22,0,0,1,1.84.84l.18.25.52-.56-.13-.17a3,3,0,0,0-2.41-1.09,3.36,3.36,0,0,0,0,6.71A3,3,0,0,0,374,427.2l.13-.17-.52-.55-.18.24a2.2,2.2,0,0,1-1.84.85,2.63,2.63,0,0,1,0-5.26Z" transform="translate(-15.47 -34.61)"/><path class="cls-88" d="M377.69,421.58a3.79,3.79,0,0,0-2.56,1l-.18.18.52.52.17-.17a3,3,0,0,1,2.12-.78A1.68,1.68,0,0,1,379.4,424v.43h-2.08c-2.2,0-2.43,1.33-2.43,1.9,0,1.2.95,2,2.42,2a2.8,2.8,0,0,0,2.09-.79v.76h.74V424A2.21,2.21,0,0,0,377.69,421.58Zm-.38,3.56h2.09v1.06a2.08,2.08,0,0,1-2.09,1.37c-1.07,0-1.68-.46-1.68-1.26S376.19,425.14,377.31,425.14Z" transform="translate(-15.47 -34.61)"/><path class="cls-89" d="M383,422.49v-.87h-.74v6.64H383v-3.55c0-1.52.76-2.39,2.09-2.39h.32v-.74h-.25A2.69,2.69,0,0,0,383,422.49Z" transform="translate(-15.47 -34.61)"/><path class="cls-90" d="M391.67,418.94v3.82a3.11,3.11,0,0,0-2.49-1.18,3.36,3.36,0,0,0,0,6.71,3.08,3.08,0,0,0,2.49-1.18v1.15h.74v-9.32Zm-2.49,8.63a2.63,2.63,0,1,1,2.49-2.64A2.49,2.49,0,0,1,389.18,427.57Z" transform="translate(-15.47 -34.61)"/><path class="cls-91" d="M365.4,421.17a3.17,3.17,0,0,0,1.84-3c0-2.21-1.56-3.87-5.41-3.87h-7.32v0h0v4.73h1.34v-3.43h6.09c2.75,0,4,1,4,2.49s-1.19,2.38-4,2.38H348.51c-2.75,0-4-1-4-2.49s1.18-2.38,4-2.38h4.65v-1.34h-4.59c-3.9,0-5.35,1.58-5.35,3.67s1.56,3.87,5.4,3.87h13.32c2.79,0,4,1,4,2.39s-1.23,2.49-4,2.49h-6.09V423.4h-1.34V428h0V428h7.32c3.84,0,5.4-1.65,5.4-3.87A3.14,3.14,0,0,0,365.4,421.17Z" transform="translate(-15.47 -34.61)"/><path class="cls-92" d="M344.54,424.36h-1.32c0,2.09,1.45,3.67,5.34,3.67h4.6V426.7h-4.65C345.75,426.7,344.56,425.71,344.54,424.36Z" transform="translate(-15.47 -34.61)"/><path class="cls-93" d="M365,544.26a16.47,16.47,0,0,0-8.15-6.09,1,1,0,0,1-.69-1.33,1,1,0,0,1,1.3-.6,17.82,17.82,0,0,1,4.17,2,18.3,18.3,0,0,1,8.28,14.86,1,1,0,0,1-.72,1.07,1,1,0,0,1-1.15-.45,1.15,1.15,0,0,1-.14-.55,15.93,15.93,0,0,0-1.79-7C365.74,545.37,365.26,544.63,365,544.26Z" transform="translate(-15.47 -34.61)"/><path class="cls-94" d="M363.45,545.17a14.2,14.2,0,0,1,2.66,8.41,1,1,0,0,1-1,1.07,1,1,0,0,1-1-1.17,7.78,7.78,0,0,0-.19-2.81c-1.52-4.71-4.42-7.68-8.6-9a1,1,0,1,1,.62-1.92,14.44,14.44,0,0,1,5.38,3A15.37,15.37,0,0,1,363.45,545.17Z" transform="translate(-15.47 -34.61)"/><path class="cls-95" d="M360.23,547.26a10.48,10.48,0,0,1,2,6.84,1,1,0,0,1-1.73.67,1.07,1.07,0,0,1-.28-.91,7.53,7.53,0,0,0-.77-3.9,8.38,8.38,0,0,0-5.6-4.7,1.08,1.08,0,0,1-.76-.57,1,1,0,0,1,.13-1.07,1,1,0,0,1,1-.34,10.57,10.57,0,0,1,6,4Z" transform="translate(-15.47 -34.61)"/><path class="cls-96" d="M357.16,549.53a6.74,6.74,0,0,1,1.2,5.11,1,1,0,1,1-2-.3,5.11,5.11,0,0,0,0-1.7,4.68,4.68,0,0,0-3.94-3.78,1,1,0,0,1-.86-.58,1,1,0,0,1,.1-1,.91.91,0,0,1,.92-.41A6.76,6.76,0,0,1,357.16,549.53Z" transform="translate(-15.47 -34.61)"/><path class="cls-97" d="M277.49,547.68a2.23,2.23,0,0,1,1.85.85l.17.24.52-.55-.13-.17a3,3,0,0,0-2.41-1.1,3.36,3.36,0,0,0,0,6.72,3,3,0,0,0,2.41-1.1l.13-.17-.52-.55-.17.24a2.23,2.23,0,0,1-1.85.85,2.63,2.63,0,0,1,0-5.26Z" transform="translate(-15.47 -34.61)"/><path class="cls-98" d="M283.63,547a3.75,3.75,0,0,0-2.56,1l-.18.18.52.51.17-.17a3,3,0,0,1,2.12-.78,1.68,1.68,0,0,1,1.64,1.69v.42h-2.08c-2.19,0-2.43,1.33-2.43,1.9,0,1.2.95,2,2.42,2a2.81,2.81,0,0,0,2.09-.8v.76h.74v-4.28A2.21,2.21,0,0,0,283.63,547Zm-.38,3.57h2.09v1.05a2.08,2.08,0,0,1-2.09,1.37c-1.07,0-1.68-.46-1.68-1.26S282.13,550.52,283.25,550.52Z" transform="translate(-15.47 -34.61)"/><path class="cls-99" d="M289,547.86V547h-.74v6.64H289v-3.55c0-1.52.76-2.39,2.09-2.39h.32V547h-.25A2.69,2.69,0,0,0,289,547.86Z" transform="translate(-15.47 -34.61)"/><path class="cls-100" d="M297.61,544.32v3.81a3.11,3.11,0,0,0-2.49-1.18,3.36,3.36,0,0,0,0,6.72,3.09,3.09,0,0,0,2.49-1.19v1.15h.74v-9.31Zm-2.49,8.62a2.63,2.63,0,1,1,2.49-2.64A2.49,2.49,0,0,1,295.12,552.94Z" transform="translate(-15.47 -34.61)"/><path class="cls-101" d="M271.34,546.54a3.15,3.15,0,0,0,1.84-3c0-2.21-1.56-3.87-5.41-3.87h-7.31v0h0v4.73h1.33V541h6.09c2.75,0,4,1,4,2.49s-1.19,2.38-4,2.38H254.45c-2.75,0-4-1-4-2.49s1.19-2.38,4-2.38h4.66v-1.34h-4.6c-3.9,0-5.35,1.58-5.35,3.68s1.56,3.87,5.4,3.87h13.32c2.79,0,4,1,4,2.38s-1.23,2.49-4,2.49h-6.09v-3.3h-1.33v4.57h0v.07h7.31c3.85,0,5.41-1.66,5.41-3.87A3.15,3.15,0,0,0,271.34,546.54Z" transform="translate(-15.47 -34.61)"/><path class="cls-102" d="M250.48,549.73h-1.32c0,2.09,1.45,3.67,5.35,3.67h4.59v-1.33h-4.65C251.69,552.08,250.5,551.08,250.48,549.73Z" transform="translate(-15.47 -34.61)"/><path class="cls-103" d="M575.54,48.94a16.53,16.53,0,0,0-8.16-6.08,1,1,0,1,1,.62-1.93A18.27,18.27,0,0,1,580.44,57.8a1,1,0,0,1-.71,1.07,1,1,0,0,1-1.15-.45,1.16,1.16,0,0,1-.15-.55,16.13,16.13,0,0,0-1.78-7C576.24,50.06,575.76,49.32,575.54,48.94Z" transform="translate(-15.47 -34.61)"/><path class="cls-104" d="M574,49.86a14.21,14.21,0,0,1,2.67,8.41,1,1,0,0,1-1,1.07,1,1,0,0,1-1-1.17,7.57,7.57,0,0,0-.19-2.81c-1.52-4.71-4.41-7.68-8.6-9a1,1,0,1,1,.62-1.92,14.36,14.36,0,0,1,5.38,3A15.37,15.37,0,0,1,574,49.86Z" transform="translate(-15.47 -34.61)"/><path class="cls-105" d="M570.73,52a10.48,10.48,0,0,1,2,6.84,1,1,0,0,1-.64.9,1,1,0,0,1-1.09-.23,1.06,1.06,0,0,1-.27-.92,7.63,7.63,0,0,0-.78-3.89,8.38,8.38,0,0,0-5.6-4.7,1.07,1.07,0,0,1-.75-.57A1,1,0,0,1,564.79,48a10.58,10.58,0,0,1,5.94,4Z" transform="translate(-15.47 -34.61)"/><path class="cls-106" d="M567.66,54.22a6.74,6.74,0,0,1,1.2,5.11,1,1,0,1,1-2-.3,5.11,5.11,0,0,0,0-1.7,4.7,4.7,0,0,0-4-3.78,1,1,0,0,1-.85-.58.94.94,0,0,1,.09-1,.91.91,0,0,1,.92-.41A6.72,6.72,0,0,1,567.66,54.22Z" transform="translate(-15.47 -34.61)"/><path class="cls-107" d="M382.53,175.69a2.21,2.21,0,0,1,1.84.85l.18.24.52-.55-.14-.17a2.94,2.94,0,0,0-2.4-1.09,3.36,3.36,0,0,0,0,6.71,2.94,2.94,0,0,0,2.4-1.1l.14-.16-.52-.56-.18.24a2.21,2.21,0,0,1-1.84.85,2.63,2.63,0,0,1,0-5.26Z" transform="translate(-15.47 -34.61)"/><path class="cls-108" d="M388.67,175a3.74,3.74,0,0,0-2.56,1l-.19.18.52.52.18-.17a3,3,0,0,1,2.11-.79,1.69,1.69,0,0,1,1.65,1.69v.42H388.3c-2.2,0-2.44,1.33-2.44,1.91,0,1.19,1,2,2.43,2a2.83,2.83,0,0,0,2.09-.8v.76h.74v-4.27A2.21,2.21,0,0,0,388.67,175Zm-.38,3.56h2.09v1.05a2.06,2.06,0,0,1-2.09,1.37c-1.07,0-1.69-.46-1.69-1.26S387.17,178.53,388.29,178.53Z" transform="translate(-15.47 -34.61)"/><path class="cls-109" d="M394,175.87V175h-.73v6.64H394v-3.55c0-1.52.76-2.39,2.09-2.39h.32V175h-.25A2.71,2.71,0,0,0,394,175.87Z" transform="translate(-15.47 -34.61)"/><path class="cls-110" d="M402.65,172.33v3.82a3.1,3.1,0,0,0-2.5-1.18,3.36,3.36,0,0,0,0,6.71,3.11,3.11,0,0,0,2.5-1.19v1.15h.73v-9.31Zm-2.5,8.62a2.63,2.63,0,1,1,2.5-2.63A2.48,2.48,0,0,1,400.15,181Z" transform="translate(-15.47 -34.61)"/><path class="cls-111" d="M376.38,174.55a3.16,3.16,0,0,0,1.83-3c0-2.22-1.56-3.87-5.4-3.87h-7.32v0h0v4.72h1.33V169h6.1c2.75,0,4,1,4,2.49s-1.19,2.38-4,2.38H359.49c-2.75,0-4-1-4-2.49,0-1.36,1.19-2.38,4-2.38h4.65v-1.33h-4.6c-3.9,0-5.35,1.57-5.35,3.67s1.56,3.87,5.41,3.87h13.32c2.78,0,4,1,4,2.38,0,1.51-1.22,2.49-4,2.49h-6.1v-3.3h-1.33v4.57h0v.07h7.32c3.84,0,5.4-1.66,5.4-3.87A3.17,3.17,0,0,0,376.38,174.55Z" transform="translate(-15.47 -34.61)"/><path class="cls-112" d="M355.51,177.74h-1.32c0,2.1,1.45,3.68,5.35,3.68h4.6v-1.34h-4.65C356.73,180.09,355.54,179.09,355.51,177.74Z" transform="translate(-15.47 -34.61)"/><path class="cls-113" d="M263.13,49A16.53,16.53,0,0,0,255,42.88a1,1,0,1,1,.61-1.92,18.11,18.11,0,0,1,8.49,5.95,18.07,18.07,0,0,1,4,10.92,1,1,0,0,1-.72,1.07,1,1,0,0,1-1.15-.45,1.37,1.37,0,0,1-.15-.55,15.83,15.83,0,0,0-1.78-7C263.84,50.08,263.36,49.35,263.13,49Z" transform="translate(-15.47 -34.61)"/><path class="cls-114" d="M261.55,49.89a14.18,14.18,0,0,1,2.66,8.41,1,1,0,0,1-1,1.06,1,1,0,0,1-1-1.16,7.85,7.85,0,0,0-.19-2.82c-1.52-4.71-4.42-7.67-8.61-9a1,1,0,1,1,.63-1.91,14.28,14.28,0,0,1,5.38,3A16,16,0,0,1,261.55,49.89Z" transform="translate(-15.47 -34.61)"/><path class="cls-115" d="M258.33,52a10.45,10.45,0,0,1,2,6.83,1,1,0,0,1-.65.91.94.94,0,0,1-1.08-.24,1.06,1.06,0,0,1-.28-.91,7.52,7.52,0,0,0-.77-3.89A8.36,8.36,0,0,0,252,50a1.06,1.06,0,0,1-.76-.57A1,1,0,0,1,252.38,48a10.52,10.52,0,0,1,4.07,2A10.33,10.33,0,0,1,258.33,52Z" transform="translate(-15.47 -34.61)"/><path class="cls-116" d="M255.25,54.24a6.72,6.72,0,0,1,1.21,5.11,1,1,0,0,1-1.14.86,1,1,0,0,1-.85-1.16,4.8,4.8,0,0,0,0-1.69,4.69,4.69,0,0,0-3.94-3.79,1,1,0,0,1-.86-.57,1,1,0,0,1,.09-1,1,1,0,0,1,.93-.4A6.66,6.66,0,0,1,255.25,54.24Z" transform="translate(-15.47 -34.61)"/><path class="cls-117" d="M70.13,175.72a2.23,2.23,0,0,1,1.84.84l.18.25.51-.56-.13-.17a3,3,0,0,0-2.4-1.09,3.36,3.36,0,0,0,0,6.71,3,3,0,0,0,2.4-1.09l.13-.17-.51-.55-.18.24a2.21,2.21,0,0,1-1.84.85,2.63,2.63,0,0,1,0-5.26Z" transform="translate(-15.47 -34.61)"/><path class="cls-118" d="M76.27,175a3.81,3.81,0,0,0-2.57,1l-.18.18.52.52.18-.17a2.91,2.91,0,0,1,2.11-.78A1.68,1.68,0,0,1,78,177.4v.43H75.9c-2.2,0-2.44,1.33-2.44,1.9,0,1.2,1,2,2.42,2a2.8,2.8,0,0,0,2.09-.79v.76h.74v-4.28A2.21,2.21,0,0,0,76.27,175Zm-.39,3.56H78v1.06A2.07,2.07,0,0,1,75.88,181c-1.07,0-1.68-.46-1.68-1.26S74.77,178.55,75.88,178.55Z" transform="translate(-15.47 -34.61)"/><path class="cls-119" d="M81.61,175.9V175h-.74v6.64h.74v-3.55c0-1.52.76-2.39,2.09-2.39H84V175h-.25A2.69,2.69,0,0,0,81.61,175.9Z" transform="translate(-15.47 -34.61)"/><path class="cls-120" d="M90.24,172.35v3.82A3.11,3.11,0,0,0,87.75,175a3.36,3.36,0,0,0,0,6.71,3.08,3.08,0,0,0,2.49-1.18v1.15H91v-9.32ZM87.75,181a2.63,2.63,0,1,1,2.49-2.64A2.48,2.48,0,0,1,87.75,181Z" transform="translate(-15.47 -34.61)"/><path class="cls-121" d="M64,174.58a3.17,3.17,0,0,0,1.84-3c0-2.21-1.56-3.87-5.41-3.87H53.09v0h0v4.73h1.33V169h6.1c2.74,0,4,1,4,2.49,0,1.36-1.19,2.38-4,2.38H47.08c-2.74,0-4-1-4-2.49s1.19-2.38,4-2.38h4.66V167.7h-4.6c-3.9,0-5.35,1.58-5.35,3.67s1.56,3.87,5.41,3.87H60.52c2.78,0,4,1,4,2.38s-1.23,2.49-4,2.49h-6.1v-3.3H53.09v4.57h0v.06H60.4c3.85,0,5.41-1.65,5.41-3.87A3.15,3.15,0,0,0,64,174.58Z" transform="translate(-15.47 -34.61)"/><path class="cls-122" d="M43.11,177.77H41.79c0,2.09,1.45,3.67,5.35,3.67h4.6v-1.34H47.08C44.32,180.11,43.13,179.12,43.11,177.77Z" transform="translate(-15.47 -34.61)"/><rect class="cls-123" x="329.96" y="0.13" width="243.78" height="153.07" rx="8.5"/><path class="cls-124" d="M367.28,98.09h1.46v3.33H372V98.09h1.46v8.24H372v-3.69h-3.29v3.69h-1.46Z" transform="translate(-15.47 -34.61)"/><path class="cls-124" d="M380.7,104.81a15.13,15.13,0,0,0,.09,1.52h-1.25a5.88,5.88,0,0,1-.09-.81,2.08,2.08,0,0,1-3.8-1c0-1,.71-2,2.87-2h.8v-.5c0-.53-.16-1-1-1s-1,.38-1.07.91h-1.37c.07-1,.66-1.93,2.46-1.93,1.4,0,2.35.51,2.35,2Zm-1.34-1.32h-.82c-1.24,0-1.47.51-1.47,1a.85.85,0,0,0,1,.89c1.05,0,1.33-.7,1.33-1.73Z" transform="translate(-15.47 -34.61)"/><path class="cls-124" d="M383.22,102.08c0-1.18,0-1.63,0-1.91h1.37a6.26,6.26,0,0,1,.05.78,1.88,1.88,0,0,1,1.72-.9,1.51,1.51,0,0,1,1.55,1,2,2,0,0,1,1.84-1c1,0,1.92.53,1.92,2.13v4.15h-1.38v-3.91c0-.62-.22-1.2-1-1.2s-1.16.63-1.16,1.57v3.54h-1.38v-4c0-.62-.28-1.13-1-1.13s-1.18.51-1.18,1.64v3.46h-1.39Z" transform="translate(-15.47 -34.61)"/><path class="cls-124" d="M393.61,105.25c1-1.24,2.11-2.69,3.08-4h-2.9v-1.13h4.49v1.12c-.95,1.24-2.06,2.66-3,3.92h3.2l-.18,1.12h-4.66Z" transform="translate(-15.47 -34.61)"/><path class="cls-124" d="M405.06,104.81a15.13,15.13,0,0,0,.09,1.52H403.9a5.88,5.88,0,0,1-.09-.81,2.08,2.08,0,0,1-3.8-1c0-1,.71-2,2.87-2h.8v-.5c0-.53-.16-1-1-1s-1,.38-1.07.91h-1.37c.07-1,.66-1.93,2.46-1.93,1.4,0,2.35.51,2.35,2Zm-1.34-1.32h-.82c-1.24,0-1.47.51-1.47,1a.85.85,0,0,0,1,.89c1.05,0,1.33-.7,1.33-1.73Z" transform="translate(-15.47 -34.61)"/><path class="cls-124" d="M367.28,116.09h2.81A3.58,3.58,0,0,1,373.9,120c0,2.69-1.44,4.3-3.91,4.3h-2.71Zm1.46,7.09H370c1.6,0,2.42-1.16,2.42-3.12,0-1.7-.84-2.79-2.41-2.79h-1.24Z" transform="translate(-15.47 -34.61)"/><path class="cls-124" d="M382.73,124.33h-1.08a7.55,7.55,0,0,1-.11-1,2.32,2.32,0,0,1-2.33,1.15c-2.16,0-3.26-1.81-3.26-4.19s1.3-4.28,3.69-4.28a2.83,2.83,0,0,1,3.11,2.45h-1.43a1.62,1.62,0,0,0-1.76-1.27c-1.52,0-2.11,1.42-2.11,3.11s.6,3,2.07,3,1.77-1,1.77-2.2v0h-1.86v-1.24h3.3Z" transform="translate(-15.47 -34.61)"/><rect class="cls-124" x="475.32" y="42.58" width="68.17" height="68.17"/><path d="M521.09,139.75H518v-1.52h-1.53v1.52h-1.54v-1.54h-1.53v-3.06h1.54v1.51h6.15v-3h-1.53v1.5H518v-1.53h-1.56V129h-1.53v1.52h-1.53V132h-3.08v-1.51h1.53V129h1.56v-3.07h1.52v1.53H518v6.14h1.53v-1.54H521v-1.52h-1.5V129H521v-1.54h-1.52v-1.52H518v-1.53h-1.57v-1.55h3.09v-1.53H518v-1.52h-4.64v-1.58h-1.53V116.7h-4.6v1.5H505.7v-1.53h1.5v-1.54h-1.51v-1.51h3.07v1.49h3V113.6h-1.52v-1.54h-1.54V109h-3.07v-1.53h-4.61V106h-1.53v3h-3.06v-1.52H498v-1.54h-1.5V96.68h3.06v1.53h1.53v1.55h-1.53v1.53H498v1.53h1.52v1.57h1.53v1.51h4.59v-1.52H502.6v-1.56h3.08v1.55h1.52v-1.55h1.54v1.58h-1.53v1.53H505.7v1.51h4.58v-3h3.06v-1.57h-1.49v-1.51h3v3.08h1.54c0,.45,0,.86,0,1.27,0,.21.07.27.28.27h2.56l.23,0v-1.52H518v-1.56h-1.52v-1.53H518V99.75h3V96.68h-4.59V95.15H518V90.54h-9.2V89h1.53V87.46h1.51V85.93h1.53v3h1.54V86h-1.54c0-.52,0-1,0-1.56h3.09v3.09H518V89h1.53v1.53h3.05v3.07h-1.53v-1.5h-1.5v3h4.6v-3h1.52v3h1.54v-3h1.54v1.49h1.54v-3h1.5v3.07H530.3v1.52h1.52v4.59h3.07v-3h-1.5V89h1.5V87.48h-3.08V89h-3.07v1.52h-3.08v-3h-1.53V89h-3.08V85.92h-1.54V84.38H518v-1.5h1.52V84.4h3.07v1.51h3V84.39h-1.5V82.87h3.06v3h3.08V84.38h1.53v-1.5h3.09v3.05h1.55v3H538v-3h1.55V82.88H541v4.59h-1.52v3.08H538v3.06h-1.56v-3h-1.5v4.59h1.52v4.61H538v1.51h1.54V99.75h1.55v1.53h3.07v1.53h1.52v-1.53h1.54v6.19h3.06V109h-3.07v-1.52h-6.14v-3.07H538v-1.54h-4.58v1.55h3.07v1.54H538v1.53h-1.49V109h3v1.5h1.54V109h3.07v3h1.54v-1.52h6.15V109h1.53v3.13a1.81,1.81,0,0,0-.23,0H545.9l-.22,0v1.52h1.53v1.53h1.52v1.54h-1.51v1.54h3.06v3.1l-1.56,0v-1.55h-1.53v-1.58h-1.54v-1.5h-1.5v3.07h3.05v1.55h1.53v3.06h-1.51v3h1.52v-1.5h1.54V129h-1.54v4.61h-1.52v3h1.52V133.6h1.55v1.55h1.5v1.53h-1.5v1.53h3.06v1.54H547.2v-1.54h-3.06v-1.53h-1.55V133.6h-3.08v-1.52H538v1.5h-1.52v-3.05h3.07V125.9h1.56v-1.5h1.51v1.49h1.51v-3h-1.52v-4.61h-1.51a2.32,2.32,0,0,0,0,.24v5.69a2.13,2.13,0,0,0,0,.25h-1.57v-1.57h-3v-3.07H538v1.51h1.51v-1.5H538V118.2h3v-3h-4.59v3h-1.52v-3.07h1.53V113.6H538v-1.53h-4.59v-1.51h-1.55v1.52h-3.09v1.51H527.2v-1.53h-1.55V109h-1.53v-1.5h-1.53V109H521v-1.48h-1.52V109h-3.06v1.53H518v1.53h3.06v1.51h1.53v-1.49h1.52v4.59h-4.6v1.55H518v1.53h1.52v1.53h3.08v-3.06h4.6v1.52h1.53v-1.51h1.56v3h3.08v-1.5h1.51v3.07h-1.5v3.08h-1.55v1.53h1.54V129H527.2v1.52h-3.07v1.54h-1.54v4.62h-1.52c0,.39,0,.76,0,1.13C521.07,138.46,521.08,139.1,521.09,139.75Zm10.7-38.45h-3.06V96.71h-4.57v1.52h1.51v1.53h1.52v1.53h-1.53V99.78h-1.53v3h-1.54v-1.49h-1.5v6.11h1.52v-3h1.54v3h1.53v-3.07h3.07v-1.55h3ZM545.64,132v-4.56h-4.57V132Zm-9.21-26.11h-3.07v-1.51h-3.05v3.06h1.52V109h1.55v-1.52h3ZM513.36,109h-3.05v1.52h1.53v1.52h1.52v-1.52h1.54V109h1.51v-1.5h-3Zm3.08,9.18v-1.52h3.09v-1.54H521v-1.5h-3v1.53h-3.08v3Zm10.77-10.72h-1.52V109h1.53v3h1.53V109h1.5v-1.54h-1.52V106h-1.52Zm-1.53,15.35h4.57V121.3h-3v-1.5h-3v1.51h1.52Zm4.6,3.09h1.51V124.4h-3v1.52h-1.51v1.51h3Zm12.32-9.25h1.52v-1.53h1.52V113.6h-1.52v-1.5H542.6Zm-23.05,6.2v1.5h3v-1.5Zm26.09-17v-1.5h-3v1.5Zm-3.07-1.54v-1.51h-1.5v1.51Zm1.57,30.75h1.5v-1.5h-1.5Zm-30.79-27.66V106h-1.52c0,.46,0,.9,0,1.33a.24.24,0,0,0,.17.17C512.45,107.47,512.88,107.46,513.35,107.46ZM521.08,129v1.5h1.49V129Zm7.65-41.51h-1.5V89h1.5Zm7.69,23V109h-1.49v1.49ZM524.11,129v-1.5h-1.49V129Zm3.07-41.52V86h-1.49v1.5Zm-4.6,38.48h-1.49v1.5h1.49ZM514.92,112h1.49v-1.49h-1.49Zm10.77,12.35v1.51h1.49v-1.51Zm-1.57,0h-1.5v1.49h1.5ZM518,112.1h-1.53c0,.46,0,.89,0,1.32,0,.06.08.17.12.17H518Zm6.19,12.26h1.48v-1.5h-1.48Zm-9.28-10.73h-1.5v1.49h1.5Zm9.23,9.19v-1.49h-1.49v1.49Zm23.08-7.65h-1.51v1.49h1.51ZM522.63,98.24v1.5h1.48v-1.5Z" transform="translate(-15.47 -34.61)"/><path class="cls-124" d="M538,93.61V90.55h1.52V87.47H541V82.88h-1.5v3.05H538v3h-1.52v-3h-1.55V82.88h-3.09v1.5h-1.53v1.53h-3.08v-3h-3.06v1.52h1.5v1.52h-3V84.4h-3.07V82.88H518v1.5h1.5v1.54h1.54V89h3.08V87.48h1.53v3h3.08V89h3.07V87.48h3.08V89h-1.5v7.7h1.5v3h-3.07V95.15H530.3V93.63h1.49V90.56h-1.5v3h-1.54V92.1h-1.54v3h-1.54v-3h-1.52v3h-4.6v-3h1.5v1.5h1.53V90.54h-3.05V89H518V87.48h-1.56V84.39h-3.08V82.88h-1.55V84.4h-1.5v1.54h1.5v1.53H510.3V89h-1.53v1.54H518v4.61h-1.52v1.53H521v3.07h-3v1.54h-1.55v1.53H518v1.56h1.53v1.52l-.23,0h-2.56c-.21,0-.29-.06-.28-.27,0-.41,0-.82,0-1.27H514.9v-3.08h-3v1.51h1.49v1.57h-3.06v3H505.7v-1.51h1.51V104.4h1.53v-1.58h-1.53v-1.55h-1.53V99.75h3.08v1.53h1.53V99.75h6.13V98.22h-4.59V96.68h-1.54V92.17a.21.21,0,0,0,0-.07h-1.5v3.06h-3.07v1.52h-3.09V95.17h-3.06v1.52h-3v9.24H498v1.54h-1.51V109h3.06v-3h1.53v1.51h4.61V109h3.07v3.07h1.54v1.54h1.52v1.51h-3v-1.49h-3.07v1.51h1.51v1.54h-1.5v1.53h1.52v-1.5h4.6v1.51h1.53v1.56H510.3v-1.54h-1.55v3.09H507.2v-1.56h-3.06v-4.62h-1.51v-3.08h4.57v-1.5h-6.15v3h-1.51v-1.52H498v-1.52h-1.53v4.6H498v3.07h-1.5v3.09H498c0,.3,0,.6,0,.9,0,.74,0,1.47,0,2.2h-1.55v1.49H498v-1.5h1.53v1.5h1.53v-3.05h1.54v1.54h1.54v3h3.05V125.9h-1.5v-1.52h3.05v6.15h1.53V132h3.08v-1.51h1.53V129h1.53v4.58H518v1.53h1.54v-1.5h1.53v3H514.9v-1.51h-1.54v3.06h-3.08v1.54h-3.07c0-.05,0-.1,0-.15V129.22a1.49,1.49,0,0,0,0-.21H496.46v10.74l-.06,0V82.8h56.69a1.22,1.22,0,0,1,.26.06H542.61V93.62h10.74v6.14h-3.1V98.19h1.55V96.71h-1.54V98.2h-4.59V96.68h1.52V95.17h-1.51v1.51h-1.53V95.14H541v-3h-1.53v1.51H538Zm-23.12,0h-1.51V92.11h-1.52v3h3c0-.53,0-1,0-1.55h1.54V92.1h-1.54Zm-7.66-10.71H496.48V93.6h10.73Zm4.6,53.78v-3h-3v3Z" transform="translate(-15.47 -34.61)"/><path class="cls-124" d="M553.35,109h-1.53v1.55h-6.15V112h-1.54v-3h-3.07v1.49h-1.54V109h-3v-1.53H538v-1.53h-1.5V104.4h-3.07v-1.55H538v1.54h3.08v3.07h6.14V109h3.07v-1.51H547.2v-6.19h1.55v4.66h3.07v1.55h1.53Z" transform="translate(-15.47 -34.61)"/><path d="M496.46,139.75V129H507.2a1.49,1.49,0,0,1,0,.21V139.6c0,.05,0,.1,0,.15Zm1.56-9.22v7.66h7.64v-7.66Z" transform="translate(-15.47 -34.61)"/><path d="M553.35,93.61H542.61V82.86h10.74Zm-9.21-9.21v7.66h7.65V84.4Z" transform="translate(-15.47 -34.61)"/><path class="cls-124" d="M521.09,139.75c0-.65,0-1.29,0-1.93,0-.37,0-.74,0-1.13h1.52v-4.62h1.54v-1.54h3.07V129h6.18v-1.55h1.53v3.07h-1.54v4.59h-1.56v-3.07h-1.54v-1.51h-1.53v1.52h-3.07v1.55h-1.51v3.08h1.51v1.13l0,1.93Z" transform="translate(-15.47 -34.61)"/><path d="M525.64,139.75l0-1.93v-1.13h-1.51v-3.08h1.51v-1.55h3.07v-1.52h1.53v1.51h1.54v3.07h1.56v-4.59h1.55c0,.87,0,1.74,0,2.6,0,1.19,0,2.37,0,3.55h-3.11v1.52h-1.52v-1.54h1.5v-1.51h-3v1.53h-1.51v1.54h1.54v1.53Zm4.62-7.67h-1.5v1.5h1.5Zm-3,1.53v1.51h1.49v-1.51Z" transform="translate(-15.47 -34.61)"/><path class="cls-124" d="M550.28,121.32v-3.1h-3.06v-1.54h1.51v-1.54h-1.52v-1.53h-1.53v-1.52l.22,0h7.22a1.81,1.81,0,0,1,.23,0v1.48H551.8v1.57h-1.51v1.51h1.53v-1.49h1.53v6.14h-3.07Z" transform="translate(-15.47 -34.61)"/><path class="cls-124" d="M534.92,136.68c0-1.18,0-2.36,0-3.55,0-.86,0-1.73,0-2.6h1.53v3.05H538v-1.5h1.54v1.52h3.08v3.08h-1.52v1.54h1.52v1.54h-3.07V138.2H538v-1.54h1.5v-1.5h-3.07v1.51h-1.51Z" transform="translate(-15.47 -34.61)"/><path d="M553.35,107.49h-1.53v-1.55h-3.07v-4.66h-1.54V99.76h-1.55V98.21h4.59v1.56h3.1v1.54H551.8v1.52h-1.5v1.56h1.49V102.8l1.56,0v1.59h-1.52v1.48h1.52Z" transform="translate(-15.47 -34.61)"/><path class="cls-124" d="M548.72,121.34l1.56,0h0v1.54h3.08v1.54h-1.52v1.53h1.52v1.54H551.8V129h-1.52v-3.06h-1.54v1.5h-1.52v-3h1.51v-3.06Z" transform="translate(-15.47 -34.61)"/><path class="cls-124" d="M548.74,133.61V129h1.53v3.08h3.08v6.14h-3.06v-1.53h1.5v-1.53h-1.5V133.6h-1.55Z" transform="translate(-15.47 -34.61)"/><path class="cls-124" d="M528.77,139.75v-1.53h-1.54v-1.54h1.51v-1.53h3v1.51h-1.5v1.54h1.52v-1.52h3.1v1.55h-1.53v1.53Z" transform="translate(-15.47 -34.61)"/><path d="M533.38,139.75v-1.53h1.53v-1.55h1.52v-1.51h3.07v1.5H538v1.54h1.52v1.55Z" transform="translate(-15.47 -34.61)"/><path d="M553.35,132.07h-3.08V129h1.53v-1.53h1.55Z" transform="translate(-15.47 -34.61)"/><path d="M553.35,115.17h-1.53v1.49h-1.53v-1.51h1.51v-1.57h1.55Z" transform="translate(-15.47 -34.61)"/><path class="cls-124" d="M544.13,138.21h3.07v1.54h-3.07Z" transform="translate(-15.47 -34.61)"/><path d="M510.28,139.75v-1.54h3.07v1.54Z" transform="translate(-15.47 -34.61)"/><path d="M553.35,122.85h-3.08v-1.54h3.08Z" transform="translate(-15.47 -34.61)"/><path d="M544.13,138.21v1.54h-1.54v-1.54h1.54Z" transform="translate(-15.47 -34.61)"/><path class="cls-124" d="M516.43,139.75v-1.52H518v1.52Z" transform="translate(-15.47 -34.61)"/><path class="cls-124" d="M513.35,139.75v-1.54h1.54v1.54Z" transform="translate(-15.47 -34.61)"/><path d="M553.35,125.92h-1.52v-1.53h1.52Z" transform="translate(-15.47 -34.61)"/><path class="cls-124" d="M553.35,102.83l-1.56,0h0v-1.52h1.55Z" transform="translate(-15.47 -34.61)"/><path class="cls-124" d="M553.35,105.9h-1.52v-1.48h1.52Z" transform="translate(-15.47 -34.61)"/><path class="cls-124" d="M533.39,125.93v-3.08h1.5v-3.07h-1.51v-6.15h-3.11v1.51h-4.58v1.52h4.6v-1.49h1.53v4.61h1.56v1.5H530.3v-3h-1.56v1.51h-1.53v-1.52h-4.6v3.06h-3.08v-1.53H518v-1.53h1.51v-1.55h4.6v-4.59H522.6v1.49h-1.53v-1.51H518v-1.53h-1.55V109h3.06v-1.52H521V109h1.55v-1.48h1.53V109h1.53v3.07h1.55v1.53h1.53v-1.51h3.09v-1.52h1.55v1.51H538v1.53h-1.51v1.53h-1.53v3.07h1.52v-3H541v3h-3v1.58h-1.51v3.07h3v1.57h1.57v1.5h-1.56v4.63h-3.06c0-1.51,0-3,0-4.52a.31.31,0,0,1,0-.08H538V124.4h-1.48V126l-.19,0c-1,0-1.94,0-2.91,0Z" transform="translate(-15.47 -34.61)"/><path class="cls-124" d="M531.79,101.3v1.52h-3v1.55h-3.07v3.07h-1.53v-3h-1.54v3h-1.52v-6.11h1.5v1.49h1.54v-3h1.53v1.51h1.53V99.76h-1.52V98.23h-1.51V96.71h4.57v4.59Z" transform="translate(-15.47 -34.61)"/><path class="cls-124" d="M541.07,99.75h-1.55v1.53H538V99.77h-1.53V95.16h-1.52V90.57h1.5v3H538V96.7h3.08v3.06Z" transform="translate(-15.47 -34.61)"/><path class="cls-124" d="M516.42,124.39H518v1.53h1.53v1.52H521V129h-1.5v1.55H521v1.52h-1.51v1.54H518v-6.14h-3.11v-1.53h1.54v-1.55Z" transform="translate(-15.47 -34.61)"/><path class="cls-124" d="M513.35,119.79H518v1.52h1.52v1.53h-3.09v1.55h-1.53v-1.56h-1.53v-3Z" transform="translate(-15.47 -34.61)"/><path class="cls-124" d="M545.64,132h-4.57v-4.56h4.57Zm-1.53-1.53V129H542.6v1.5Z" transform="translate(-15.47 -34.61)"/><path class="cls-124" d="M536.43,105.93v1.52h-3V109h-1.55v-1.49h-1.52v-3.06h3.05v1.51Z" transform="translate(-15.47 -34.61)"/><path class="cls-124" d="M541.08,124.41a2.13,2.13,0,0,1,0-.25v-5.69a2.32,2.32,0,0,1,0-.24h1.51v4.61h1.52v3h-1.51V124.4h-1.51Z" transform="translate(-15.47 -34.61)"/><path class="cls-124" d="M513.36,109v-1.52h3V109H514.9v1.54h-1.54v1.52h-1.52v-1.52h-1.53V109Z" transform="translate(-15.47 -34.61)"/><path class="cls-124" d="M516.44,118.19h-1.53v-3H518v-1.53h3v1.5h-1.51v1.54h-3.09Z" transform="translate(-15.47 -34.61)"/><path class="cls-124" d="M527.21,107.47V106h1.52v1.5h1.52V109h-1.5V112h-1.53v-3h-1.53v-1.53Z" transform="translate(-15.47 -34.61)"/><path class="cls-124" d="M545.66,98.21v1.55h-1.53v1.54h-3.06V99.75h1.53V96.69h1.53v1.54h1.53Z" transform="translate(-15.47 -34.61)"/><path class="cls-124" d="M514.89,125.92h-1.52V129h-1.55v-3.1h-1.54v-1.52h4.61v1.55Z" transform="translate(-15.47 -34.61)"/><path class="cls-124" d="M525.68,122.82v-1.51h-1.52V119.8h3v1.5h3v1.52Z" transform="translate(-15.47 -34.61)"/><path class="cls-124" d="M502.6,102.82v1.56h3.06v1.52h-4.59v-1.51h-1.53v-1.57h3.06Z" transform="translate(-15.47 -34.61)"/><path class="cls-124" d="M530.28,125.91v1.52h-3v-1.51h1.51V124.4h3v1.51Z" transform="translate(-15.47 -34.61)"/><path class="cls-124" d="M542.6,116.66V112.1h1.52v1.5h1.52v1.53h-1.52v1.53Z" transform="translate(-15.47 -34.61)"/><path class="cls-124" d="M547.2,119.78h-3.05v-3.07h1.5v1.5h1.54v1.58Z" transform="translate(-15.47 -34.61)"/><path class="cls-124" d="M548.74,133.6v3.05h-1.52v-3h1.52Z" transform="translate(-15.47 -34.61)"/><path class="cls-124" d="M505.68,102.82h-3.07v-1.54h3.06v1.55Z" transform="translate(-15.47 -34.61)"/><path class="cls-124" d="M513.34,86h1.54v3h-1.54v-3Z" transform="translate(-15.47 -34.61)"/><path class="cls-124" d="M519.55,122.86h3v1.5h-3Z" transform="translate(-15.47 -34.61)"/><path class="cls-124" d="M545.64,105.91h-3v-1.5h3Z" transform="translate(-15.47 -34.61)"/><path class="cls-124" d="M499.54,101.29V99.76h1.52v1.54h-1.52Z" transform="translate(-15.47 -34.61)"/><path class="cls-124" d="M538,119.78h1.52v1.5H538v-1.51Z" transform="translate(-15.47 -34.61)"/><path class="cls-124" d="M548.73,121.33H547.2v-1.55h1.52v1.55Z" transform="translate(-15.47 -34.61)"/><path class="cls-124" d="M545.66,99.76h1.55v1.53h-1.54V99.75Z" transform="translate(-15.47 -34.61)"/><path class="cls-124" d="M499.54,102.82H498v-1.53h1.51v1.54Z" transform="translate(-15.47 -34.61)"/><path class="cls-124" d="M542.57,104.37h-1.5v-1.51h1.5Z" transform="translate(-15.47 -34.61)"/><path class="cls-124" d="M507.2,102.82v1.55h-1.52v-1.55h1.52Z" transform="translate(-15.47 -34.61)"/><path class="cls-124" d="M501.07,99.76V98.21h1.51v1.53h-1.51Z" transform="translate(-15.47 -34.61)"/><path class="cls-124" d="M544.14,138.21H542.6v-1.54h1.54Z" transform="translate(-15.47 -34.61)"/><path class="cls-124" d="M533.38,127.46h-1.54v-1.53h1.54v1.54Z" transform="translate(-15.47 -34.61)"/><path class="cls-124" d="M544.14,135.12v-1.5h1.5v1.5Z" transform="translate(-15.47 -34.61)"/><path class="cls-124" d="M545.66,101.28v1.53h-1.52v-1.53h1.52Z" transform="translate(-15.47 -34.61)"/><path class="cls-124" d="M511.81,129v1.54h-1.52V129h1.52Z" transform="translate(-15.47 -34.61)"/><path class="cls-124" d="M501.07,98.21h-1.53V96.68h1.52v1.53Z" transform="translate(-15.47 -34.61)"/><path class="cls-124" d="M513.34,85.94h-1.52V84.39h1.53c0,.52,0,1,0,1.56Z" transform="translate(-15.47 -34.61)"/><path class="cls-124" d="M513.35,107.46c-.47,0-.9,0-1.34,0a.24.24,0,0,1-.17-.17c0-.43,0-.87,0-1.33h1.52Z" transform="translate(-15.47 -34.61)"/><path class="cls-124" d="M521.08,129h1.49v1.5h-1.49Z" transform="translate(-15.47 -34.61)"/><path class="cls-124" d="M528.73,87.49V89h-1.5v-1.5Z" transform="translate(-15.47 -34.61)"/><path class="cls-124" d="M536.42,110.51h-1.49V109h1.49Z" transform="translate(-15.47 -34.61)"/><path class="cls-124" d="M524.11,129h-1.49v-1.5h1.49Z" transform="translate(-15.47 -34.61)"/><path class="cls-124" d="M527.18,87.45h-1.49V86h1.49Z" transform="translate(-15.47 -34.61)"/><path class="cls-124" d="M522.58,125.93v1.5h-1.49v-1.5Z" transform="translate(-15.47 -34.61)"/><path class="cls-124" d="M514.92,112v-1.49h1.49V112Z" transform="translate(-15.47 -34.61)"/><path class="cls-124" d="M525.69,124.39h1.49v1.51h-1.49Z" transform="translate(-15.47 -34.61)"/><path class="cls-124" d="M524.12,124.4v1.49h-1.5V124.4Z" transform="translate(-15.47 -34.61)"/><path class="cls-124" d="M518,112.1v1.5h-1.41s-.12-.11-.12-.17c0-.43,0-.86,0-1.32Z" transform="translate(-15.47 -34.61)"/><path class="cls-124" d="M524.16,124.36v-1.5h1.48v1.5Z" transform="translate(-15.47 -34.61)"/><path class="cls-124" d="M514.88,113.63v1.49h-1.5v-1.49Z" transform="translate(-15.47 -34.61)"/><path class="cls-124" d="M524.11,122.82h-1.49v-1.49h1.49Z" transform="translate(-15.47 -34.61)"/><path class="cls-124" d="M547.19,115.17v1.49h-1.51v-1.49Z" transform="translate(-15.47 -34.61)"/><path class="cls-124" d="M522.63,98.24h1.48v1.5h-1.48Z" transform="translate(-15.47 -34.61)"/><path d="M498,121.31h-1.52v-3.09H498v-3.07h-1.51v-4.6H498v1.52h1.54v1.52h1.51v-3h6.15v1.5h-4.57v3.08h1.51v4.62h3.06v1.56h-4.59v-1.54h-1.54v-3.11h1.51v-1.51h-3.05v4.62H498v1.54Z" transform="translate(-15.47 -34.61)"/><path d="M507.21,82.88V93.6H496.48V82.88Zm-1.55,9.19V84.41H498v7.66Z" transform="translate(-15.47 -34.61)"/><path d="M501.06,98.22V96.69h-1.53V95.17h3.06v1.51h3.08v1.54h-1.5v1.55h1.5v1.54h-3.07v1.54h-3.08v-1.54h1.53V99.75h1.52V98.22Z" transform="translate(-15.47 -34.61)"/><path d="M544.14,96.69H542.6v3.07h-1.54V96.7H538V93.61h1.53V92.1H541v3h3.1Z" transform="translate(-15.47 -34.61)"/><path d="M514.89,124.39h-4.6v-1.56h1.52v-1.52h-3.06v-3.09h1.55v1.54h3.06v3.06h1.53Z" transform="translate(-15.47 -34.61)"/><path d="M508.75,124.38H505.7v1.52h1.5v1.53h-3.05v-3h-1.54v-1.54h4.6v-1.54h1.53v3.08Z" transform="translate(-15.47 -34.61)"/><path d="M498,124.41c0-.73,0-1.46,0-2.2,0-.3,0-.6,0-.9h1.53v-1.54h1.53v1.54h1.54v1.54h-1.53v3.05h-1.53v-1.5H498Z" transform="translate(-15.47 -34.61)"/><path d="M511.82,129h-1.53v1.53h-1.54v-6.15h1.53v1.52h1.54Z" transform="translate(-15.47 -34.61)"/><path d="M505.68,96.68V95.16h3.07V92.1h1.5a.21.21,0,0,1,0,.07v4.51h-4.6Z" transform="translate(-15.47 -34.61)"/><path d="M510.28,96.68h1.54v1.54h4.59v1.53h-6.12V96.68Z" transform="translate(-15.47 -34.61)"/><path d="M511.81,136.66h-3v-3h3Z" transform="translate(-15.47 -34.61)"/><path d="M514.86,93.58v1.55h-3v-3h1.52v1.48h1.5Z" transform="translate(-15.47 -34.61)"/><path d="M508.75,99.75h-3.07V98.21h3.06v1.54Z" transform="translate(-15.47 -34.61)"/><path d="M498,124.4v1.5h-1.54v-1.49H498Z" transform="translate(-15.47 -34.61)"/><path d="M510.28,99.75v1.53h-1.53V99.75h1.53Z" transform="translate(-15.47 -34.61)"/><path d="M550.26,98.2V96.71h1.54v1.48h-1.54Z" transform="translate(-15.47 -34.61)"/><path d="M514.87,93.59V92.1h1.54v1.48h-1.54Z" transform="translate(-15.47 -34.61)"/><path d="M511.82,84.39v1.54h-1.51V84.39Z" transform="translate(-15.47 -34.61)"/><path d="M545.67,98.22h-1.54V96.68h1.53Z" transform="translate(-15.47 -34.61)"/><path d="M513.36,84.4h-1.55V82.88h1.55Z" transform="translate(-15.47 -34.61)"/><path d="M507.21,102.83h-1.54v-1.55h1.54Z" transform="translate(-15.47 -34.61)"/><path d="M545.67,96.68V95.17h1.51v1.51h-1.51Z" transform="translate(-15.47 -34.61)"/><path class="cls-124" d="M498,130.53h7.64v7.66H498Zm1.52,6.13h4.59v-4.58h-4.59Z" transform="translate(-15.47 -34.61)"/><path class="cls-124" d="M544.14,84.4h7.65v7.66h-7.65ZM550.26,86h-4.58v4.58h4.58Z" transform="translate(-15.47 -34.61)"/><path d="M533.38,127.46v-1.54c1,0,1.94,0,2.91,0l.19,0h0a.31.31,0,0,0,0,.08c0,1.51,0,3,0,4.52h-1.55v-3.07Z" transform="translate(-15.47 -34.61)"/><path class="cls-124" d="M530.26,132.08v1.5h-1.5v-1.5Z" transform="translate(-15.47 -34.61)"/><path class="cls-124" d="M527.23,133.61h1.49v1.51h-1.49Z" transform="translate(-15.47 -34.61)"/><path d="M542.6,136.67v1.54h-1.53v-1.54Z" transform="translate(-15.47 -34.61)"/><path class="cls-124" d="M551.79,102.8v1.57H550.3v-1.56h1.49Z" transform="translate(-15.47 -34.61)"/><path d="M533.38,119.78h-1.56v-4.61h-1.53v1.49h-4.6v-1.52h4.58v-1.51h3.11v6.15Z" transform="translate(-15.47 -34.61)"/><path d="M536.48,126V124.4H538v1.54h-1.48Z" transform="translate(-15.47 -34.61)"/><path d="M514.89,125.93v-1.55h1.54v1.55Z" transform="translate(-15.47 -34.61)"/><path d="M544.11,130.51H542.6V129h1.51Z" transform="translate(-15.47 -34.61)"/><path d="M545.67,101.29h-1.54V99.75h1.54Z" transform="translate(-15.47 -34.61)"/><path class="cls-124" d="M501.07,119.78h-1.54v-4.62h3.05v1.51h-1.51Z" transform="translate(-15.47 -34.61)"/><path class="cls-124" d="M502.6,122.85v-1.54h4.61v1.54Z" transform="translate(-15.47 -34.61)"/><path class="cls-124" d="M499.53,119.78v1.54H498v-1.54Z" transform="translate(-15.47 -34.61)"/><path class="cls-124" d="M502.61,121.32h-1.55v-1.54h1.55Z" transform="translate(-15.47 -34.61)"/><path class="cls-124" d="M505.66,92.07H498V84.41h7.65Zm-1.53-1.53V86h-4.58v4.59Z" transform="translate(-15.47 -34.61)"/><path class="cls-124" d="M510.29,99.76h-1.55V98.22h-3.07V96.68h4.62Z" transform="translate(-15.47 -34.61)"/><path class="cls-124" d="M505.68,98.21v1.55h-1.51V98.21Z" transform="translate(-15.47 -34.61)"/><path class="cls-124" d="M510.29,124.39h-1.55v-3.08h3.07v1.52h-1.52Z" transform="translate(-15.47 -34.61)"/><path d="M499.54,136.66v-4.58h4.59v4.58Z" transform="translate(-15.47 -34.61)"/><path d="M550.26,86v4.58h-4.58V86Z" transform="translate(-15.47 -34.61)"/><path d="M504.13,90.54h-4.58V86h4.58Z" transform="translate(-15.47 -34.61)"/><rect class="cls-124" x="467.29" y="297.53" width="68.17" height="68.17"/><path d="M513.06,394.7h-3.12v-1.52H508.4v1.52h-1.54v-1.54h-1.53v-3.06h1.55v1.5H513v-3H511.5v1.49H510v-1.52H508.4V384h-1.54v1.51h-1.53V387h-3.08v-1.52h1.54V384h1.55v-3.07h1.53v1.52H510v6.14h1.53V387H513v-1.52h-1.5v-1.55H513V382.4H511.5v-1.53H510v-1.52h-1.57v-1.56h3.09v-1.52H510v-1.53h-4.64v-1.58h-1.53v-1.51h-4.6v1.5h-1.52v-1.52h1.5v-1.54h-1.51v-1.51h3.07v1.49h3v-1.52h-1.52V367h-1.54V364h-3.08v-1.54H493V360.9H491.5v3h-3.05v-1.53H490v-1.54h-1.5v-9.24h3.06v1.54h1.54v1.54h-1.53v1.54H490v1.53h1.52v1.57h1.54v1.51h4.58v-1.52h-3.06v-1.56h3.08v1.54h1.53v-1.55h1.53v1.59h-1.53v1.53h-1.51v1.51h4.59v-3h3.06v-1.57h-1.5v-1.51h3.05v3.08h1.54c0,.45,0,.86,0,1.26,0,.22.07.28.28.27h2.56l.23,0v-1.53H510v-1.55h-1.52v-1.53H510V354.7h3v-3.06h-4.59v-1.53h1.52v-4.62h-9.2V344h1.53v-1.53h1.52v-1.54l1.53,0v3h1.53v-3h-1.54c0-.53,0-1.05,0-1.57h3.1v3.09H510V344h1.54v1.54h3v3.06H513v-1.5h-1.51v3h4.6v-3h1.52v3h1.55v-3h1.53v1.49h1.54v-3h1.51v3.06h-1.5v1.53h1.52v4.58h3.07v-3.05h-1.5V344h1.5v-1.51h-3.08V344h-3.07v1.52h-3.07v-3.05H516.1v1.5H513v-3.06h-1.54v-1.54H510v-1.51h1.51v1.52h3.08v1.51h3v-1.51h-1.5v-1.52h3.07v3h3.07v-1.53h1.54v-1.51h3.09v3.06h1.54v3.05H530v-3.06h1.55v-3.05H533v4.6h-1.52v3.08H530v3.06H528.4v-3.05h-1.5v4.6h1.53v4.6H530v1.51h1.54V354.7H533v1.54h3.07v1.52h1.53v-1.52h1.53v6.18h3.07v1.52h-3.08v-1.53H533v-3.06h-3.08v-1.54h-4.58v1.55h3.07v1.53h1.51v1.54h-1.5V364h3v1.5H533V364h3.07v3h1.54v-1.52h6.15v-1.55h1.53v3.12l-.22,0h-7.22l-.23,0v1.51h1.53v1.54h1.52v1.54h-1.51v1.53h3.06v3.11h-1.56v-1.54h-1.53v-1.59h-1.53v-1.5h-1.51v3.08h3v1.54h1.53v3.07h-1.51v3h1.52v-1.5h1.54V384h-1.53v4.6h-1.53v3.05h1.52v-3.06h1.55v1.56h1.5v1.53h-1.5v1.53h3.06v1.53h-6.14v-1.54h-3.07v-1.54h-1.55v-3.08h-3.08V387h-1.54v1.5h-1.52v-3.06h3.07v-4.62h1.56v-1.5h1.52v1.48h1.5v-3h-1.52v-4.6H533a2,2,0,0,0,0,.24v5.68c0,.09,0,.17,0,.26h-1.57V377.8h-3v-3.07H530v1.51h1.51v-1.5H530v-1.58h3v-3h-4.58v3h-1.53v-3.06h1.54v-1.54h1.5V367h-4.59v-1.52h-1.55V367H520.7v1.5h-1.53V367h-1.55v-3.08h-1.53v-1.5h-1.52v1.49H513v-1.48h-1.53V364h-3.06v1.53H510V367H513v1.51h1.53v-1.49h1.52v4.59h-4.6v1.55H510v1.53h1.53v1.52h3.07v-3.06h4.6v1.53h1.54v-1.52h1.55v3h3.09v-1.5h1.5v3.07h-1.5v3.07h-1.55v1.53h1.55V384h-6.19v1.53H516.1V387h-1.54v4.61H513v1.13C513.05,393.42,513.06,394.06,513.06,394.7Zm10.7-38.45H520.7v-4.59h-4.57v1.53h1.52v1.52h1.51v1.53h-1.52v-1.5h-1.53v3h-1.55v-1.49h-1.5v6.11h1.52v-3h1.54v3h1.53v-3.07h3.07v-1.55h3ZM537.61,387v-4.57H533V387Zm-9.21-26.12h-3.07v-1.5h-3.05v3.05h1.52v1.49h1.56v-1.51h3ZM505.34,364h-3.06v1.52h1.53V367h1.52v-1.52h1.55v-1.55h1.51v-1.5h-3.05Zm3.07,9.18v-1.52h3.09v-1.55H513v-1.5H510v1.54h-3.07v3Zm10.78-10.73h-1.53V364h1.54v3h1.52V364h1.5V362.4H520.7v-1.49h-1.51Zm-1.54,15.36h4.57v-1.53h-3.05v-1.5h-3v1.52h1.52Zm4.6,3.08h1.51v-1.5h-3v1.52h-1.5v1.5h3Zm12.32-9.25h1.52v-1.52h1.52v-1.53h-1.52v-1.51h-1.52Zm-23.05,6.2v1.51h3v-1.51Zm26.09-16.95v-1.49h-3v1.49Zm-3.07-1.54v-1.51h-1.49v1.51Zm1.57,30.76h1.5v-1.51h-1.5Zm-30.79-27.67v-1.5H503.8c0,.46,0,.89,0,1.32,0,.07.11.17.18.18ZM513.06,384v1.51h1.49V384Zm7.64-41.51h-1.5v1.5h1.5Zm7.7,23V364h-1.5v1.49Zm-12.32,18.45v-1.49h-1.49v1.49Zm3.08-41.51V340.9h-1.49v1.51Zm-4.6,38.48h-1.5v1.49h1.5ZM506.89,367h1.5v-1.49h-1.5Zm10.78,12.35v1.5h1.48v-1.5Zm-1.58,0H514.6v1.49h1.49ZM510,367.05h-1.54c0,.46,0,.9,0,1.33,0,.06.08.17.13.17H510Zm6.18,12.27h1.49v-1.5h-1.49Zm-9.28-10.73h-1.49v1.49h1.49Zm9.23,9.19v-1.5h-1.49v1.5Zm23.08-7.66h-1.51v1.49h1.51ZM514.6,353.2v1.5h1.49v-1.5Z" transform="translate(-15.47 -34.61)"/><path class="cls-124" d="M530,348.57v-3.06h1.51v-3.08H533v-4.6h-1.5v3.05H530v3.06h-1.52v-3.05h-1.54v-3.06H523.8v1.51h-1.54v1.53h-3.07v-3h-3.07v1.52h1.5v1.51h-3v-1.51H511.5v-1.52H510v1.51h1.5v1.54H513v3.06h3.07v-1.5h1.54v3.05h3.07V344h3.07v-1.53h3.08V344h-1.5v7.69h1.5v3.05h-3.07v-4.58h-1.52v-1.53h1.5v-3.06h-1.51v3h-1.54v-1.49h-1.53v3h-1.55v-3h-1.52v3h-4.6v-3H513v1.5h1.52V345.5h-3V344H510v-1.53h-1.55v-3.09h-3.09v-1.52h-1.54v1.52h-1.51v1.54h1.51v1.54h-1.52V344h-1.53v1.54h9.2v4.62h-1.52v1.53H513v3.06h-3v1.55h-1.55v1.53H510v1.55h1.52v1.53l-.23,0h-2.56c-.21,0-.28-.05-.28-.27,0-.4,0-.81,0-1.26h-1.54v-3.08h-3.05v1.51h1.5v1.57h-3.06v3h-4.59v-1.51h1.51v-1.53h1.53v-1.59h-1.52v-1.54h-1.54V354.7h3.08v1.53h1.53V354.7l.17,0h6v-1.54h-4.6v-1.53h-1.54c0-1.51,0-3,0-4.52,0,0,0,0,0-.07h-1.5v3.07h-3.07v1.52h-3.09v-1.51H491.5v1.51h-3.05v9.24H490v1.54h-1.5v1.53h3.05v-3H493v1.51h4.61V364h3.08V367h1.54v1.53h1.52v1.52h-3v-1.49h-3.07v1.51h1.51v1.54h-1.5v1.52h1.52v-1.5h4.6v1.51h1.53v1.58h-3.05v-1.54h-1.55v3.08h-1.54v-1.57h-3.06V370.1H494.6V367h4.57v-1.51H493v3h-1.52V367H490v-1.51h-1.53v4.59H490v3.08h-1.5v3.09H490v.9c0,.73,0,1.46,0,2.2h-1.54v1.48H490v-1.49h1.53v1.5H493V377.8h1.54v1.54h1.55v3.05h3v-1.53h-1.5v-1.52h3.05v6.15h1.53V387h3.08v-1.52h1.53V384h1.54v4.58H510v1.52h1.54v-1.49H513v3h-6.14v-1.5h-1.55v3.06h-3.07v1.53h-3.08a.66.66,0,0,0,0-.14V384.18a1.64,1.64,0,0,0,0-.22H488.43V394.7l-.05,0a1.62,1.62,0,0,1,0-.22V337.76h56.68a1.19,1.19,0,0,1,.26.05H534.58v10.76h10.74v6.14h-3.1v-1.56h1.55v-1.49h-1.54v1.5h-4.59v-1.55h1.51v-1.51h-1.51v1.52h-1.53V350.1H533v-3h-1.53v1.5H530Zm-23.13,0h-1.51v-1.48h-1.51v3h3v-1.55h1.54v-1.48h-1.54Zm-7.66-10.71H488.45v10.72h10.73Zm4.6,53.78v-3h-3v3Z" transform="translate(-15.47 -34.61)"/><path class="cls-124" d="M545.32,363.93h-1.53v1.55h-6.15V367H536.1v-3H533v1.49h-1.54V364h-3v-1.53h1.5v-1.54h-1.51v-1.53h-3.07v-1.55h4.58v1.54H533v3.06h6.14v1.53h3.08v-1.52h-3.07v-6.18h1.55v4.66h3.07v1.55h1.53Z" transform="translate(-15.47 -34.61)"/><path d="M488.43,394.7V384h10.74a1.64,1.64,0,0,1,0,.22v10.38a.66.66,0,0,1,0,.14Zm1.56-9.21v7.66h7.64v-7.66Z" transform="translate(-15.47 -34.61)"/><path d="M545.32,348.57H534.58V337.81h10.74Zm-9.2-9.21V347h7.65v-7.66Z" transform="translate(-15.47 -34.61)"/><path class="cls-124" d="M513.06,394.7c0-.64,0-1.28,0-1.93v-1.13h1.52V387h1.54v-1.54h3.07V384h6.19v-1.55h1.52v3.07h-1.54v4.6h-1.56V387h-1.54V385.5h-1.53V387h-3.07v1.54h-1.51v3.08h1.51v1.13c0,.65,0,1.29,0,1.93Z" transform="translate(-15.47 -34.61)"/><path d="M517.62,394.7c0-.64,0-1.28,0-1.93v-1.13h-1.51v-3.08h1.51V387h3.07V385.5h1.53V387h1.54v3.07h1.56v-4.6h1.55c0,.87,0,1.74,0,2.61,0,1.18,0,2.36,0,3.54h-3.11v1.52h-1.51v-1.53h1.5v-1.51h-3.06v1.53h-1.5v1.54h1.53v1.52Zm4.61-7.66h-1.49v1.49h1.49Zm-3,1.53v1.51h1.48v-1.51Z" transform="translate(-15.47 -34.61)"/><path class="cls-124" d="M542.25,376.28v-3.11h-3.06v-1.53h1.51V370.1h-1.52v-1.54h-1.53v-1.51l.23,0h7.22l.22,0v1.48h-1.54v1.58h-1.52v1.5h1.53v-1.48h1.53v6.14h-3.07Z" transform="translate(-15.47 -34.61)"/><path class="cls-124" d="M526.89,391.63c0-1.18,0-2.36,0-3.54,0-.87,0-1.74,0-2.61h1.53v3.06h1.52V387h1.54v1.51h3.08v3.08H533v1.54h1.52v1.54H531.5v-1.54H530v-1.54h1.5v-1.51h-3.06v1.52h-1.52Z" transform="translate(-15.47 -34.61)"/><path d="M545.32,362.45h-1.53V360.9h-3.07v-4.66h-1.54v-1.54h-1.54v-1.54h4.58v1.56h3.1v1.54h-1.55v1.52h-1.5v1.56h1.49v-1.57l1.56,0v1.59H543.8v1.48h1.52Z" transform="translate(-15.47 -34.61)"/><path class="cls-124" d="M540.69,376.29h1.55v1.54h3.08v1.53H543.8v1.54h1.52v1.53h-1.55V384h-1.52v-3.07h-1.54v1.5h-1.52v-3h1.51v-3.07Z" transform="translate(-15.47 -34.61)"/><path class="cls-124" d="M540.72,388.56V384h1.52V387h3.08v6.15h-3.06v-1.53h1.5v-1.53h-1.5v-1.56h-1.54Z" transform="translate(-15.47 -34.61)"/><path class="cls-124" d="M520.74,394.7v-1.52h-1.53v-1.54h1.5v-1.53h3.06v1.51h-1.5v1.53h1.51v-1.52h3.1v1.54h-1.53v1.53Z" transform="translate(-15.47 -34.61)"/><path d="M525.35,394.7v-1.53h1.53v-1.54h1.53v-1.52h3.06v1.51H530v1.54h1.53v1.54Z" transform="translate(-15.47 -34.61)"/><path d="M545.32,387h-3.08V384h1.53v-1.54h1.55Z" transform="translate(-15.47 -34.61)"/><path d="M545.32,370.13h-1.53v1.48h-1.53v-1.5h1.52v-1.58h1.54Z" transform="translate(-15.47 -34.61)"/><path class="cls-124" d="M536.1,393.16h3.08v1.54H536.1Z" transform="translate(-15.47 -34.61)"/><path d="M502.26,394.7v-1.53h3.06v1.54Z" transform="translate(-15.47 -34.61)"/><path d="M545.32,377.81h-3.08v-1.54h3.08Z" transform="translate(-15.47 -34.61)"/><path d="M536.1,393.16v1.54h-1.53v-1.54h1.54Z" transform="translate(-15.47 -34.61)"/><path class="cls-124" d="M508.4,394.7v-1.52h1.54v1.52Z" transform="translate(-15.47 -34.61)"/><path class="cls-124" d="M505.33,394.7v-1.54h1.54v1.54Z" transform="translate(-15.47 -34.61)"/><path d="M545.32,380.88H543.8v-1.54h1.52Z" transform="translate(-15.47 -34.61)"/><path class="cls-124" d="M545.32,357.78l-1.56,0h0v-1.52h1.55Z" transform="translate(-15.47 -34.61)"/><path class="cls-124" d="M545.32,360.85H543.8v-1.48h1.52Z" transform="translate(-15.47 -34.61)"/><path class="cls-124" d="M525.36,380.88v-3.07h1.5v-3.07h-1.51v-6.16h-3.11v1.52h-4.57v1.51h4.59v-1.49h1.53v4.61h1.57v1.5h-3.09v-3h-1.55v1.52h-1.54v-1.53h-4.6v3.06h-3.07v-1.52H510v-1.53h1.51v-1.55h4.6v-4.59h-1.52v1.49H513V367H510V365.5h-1.55V364h3.06v-1.52H513v1.48h1.55v-1.49h1.52v1.5h1.53V367h1.55v1.52h1.53V367h3.09v-1.53h1.55V367h4.59v1.52h-1.5v1.54h-1.54v3.06h1.53v-3H533v3h-3v1.58h-1.52v3.07h3v1.57h1.57v1.5h-1.56v4.62h-3.06c0-1.5,0-3,0-4.51,0,0,0-.05,0-.08h1.49v-1.54h-1.49v1.54l-.19,0h-2.9Z" transform="translate(-15.47 -34.61)"/><path class="cls-124" d="M523.76,356.25v1.53h-3v1.55h-3.07v3.07h-1.53v-3h-1.54v3h-1.52v-6.11h1.5v1.49h1.55v-3h1.53v1.5h1.52v-1.53h-1.51v-1.52h-1.52v-1.53h4.57v4.59Z" transform="translate(-15.47 -34.61)"/><path class="cls-124" d="M533,354.7H531.5v1.53H530v-1.51h-1.53v-4.6H526.9v-4.6h1.5v3.05H530v3.1H533v3Z" transform="translate(-15.47 -34.61)"/><path class="cls-124" d="M508.39,379.35H510v1.52h1.54v1.53H513v1.54h-1.49v1.55H513V387H511.5v1.53H510V382.4h-3.1v-1.52h1.53v-1.54Z" transform="translate(-15.47 -34.61)"/><path class="cls-124" d="M505.32,374.74H510v1.53h1.52v1.52h-3.09v1.56h-1.52v-1.56h-1.54v-3.06Z" transform="translate(-15.47 -34.61)"/><path class="cls-124" d="M537.61,387H533v-4.57h4.57Zm-1.53-1.54V384h-1.5v1.5Z" transform="translate(-15.47 -34.61)"/><path class="cls-124" d="M528.4,360.88v1.53h-3v1.51H523.8v-1.49h-1.52v-3.05h3.05v1.5Z" transform="translate(-15.47 -34.61)"/><path class="cls-124" d="M533.05,379.37c0-.09,0-.17,0-.26v-5.68a2,2,0,0,1,0-.24h1.51v4.6h1.52v3h-1.5v-1.48h-1.52Z" transform="translate(-15.47 -34.61)"/><path class="cls-124" d="M505.34,364v-1.53h3.05v1.5h-1.51v1.55h-1.55V367h-1.52v-1.52h-1.53V364Z" transform="translate(-15.47 -34.61)"/><path class="cls-124" d="M508.41,373.15h-1.52v-3H510v-1.54H513v1.5H511.5v1.55h-3.09Z" transform="translate(-15.47 -34.61)"/><path class="cls-124" d="M519.19,362.42v-1.51h1.51v1.49h1.52V364h-1.5V367H519.2v-3h-1.54v-1.54Z" transform="translate(-15.47 -34.61)"/><path class="cls-124" d="M537.64,353.17v1.54H536.1v1.55H533V354.7h1.54v-3.07h1.52v1.55h1.54Z" transform="translate(-15.47 -34.61)"/><path class="cls-124" d="M506.87,380.88h-1.53V384H503.8v-3.09h-1.55v-1.52h4.61v1.54Z" transform="translate(-15.47 -34.61)"/><path class="cls-124" d="M517.65,377.78v-1.51h-1.52v-1.52h3v1.5h3.05v1.53Z" transform="translate(-15.47 -34.61)"/><path class="cls-124" d="M494.57,357.78v1.56h3.06v1.52h-4.58v-1.51h-1.54v-1.57h3.06Z" transform="translate(-15.47 -34.61)"/><path class="cls-124" d="M522.25,380.86v1.52h-3v-1.5h1.5v-1.52h3v1.5Z" transform="translate(-15.47 -34.61)"/><path class="cls-124" d="M534.57,371.61v-4.56h1.52v1.51h1.52v1.53h-1.52v1.52Z" transform="translate(-15.47 -34.61)"/><path class="cls-124" d="M539.17,374.74h-3v-3.08h1.51v1.5h1.53v1.59Z" transform="translate(-15.47 -34.61)"/><path class="cls-124" d="M540.71,388.55v3.06h-1.52v-3.05h1.52Z" transform="translate(-15.47 -34.61)"/><path class="cls-124" d="M497.65,357.78h-3.07v-1.53h3.06v1.54Z" transform="translate(-15.47 -34.61)"/><path class="cls-124" d="M505.31,340.91h1.54v3h-1.53v-3Z" transform="translate(-15.47 -34.61)"/><path class="cls-124" d="M511.52,377.81h3v1.51h-3Z" transform="translate(-15.47 -34.61)"/><path class="cls-124" d="M537.61,360.86h-3v-1.49h3Z" transform="translate(-15.47 -34.61)"/><path class="cls-124" d="M491.51,356.25v-1.54H493v1.54h-1.53Z" transform="translate(-15.47 -34.61)"/><path class="cls-124" d="M530,374.74h1.51v1.5H530v-1.51Z" transform="translate(-15.47 -34.61)"/><path class="cls-124" d="M540.7,376.28h-1.53v-1.54h1.52v1.54Z" transform="translate(-15.47 -34.61)"/><path class="cls-124" d="M537.64,354.71h1.54v1.54h-1.54V354.7Z" transform="translate(-15.47 -34.61)"/><path class="cls-124" d="M491.51,357.78H490v-1.53h1.51v1.54Z" transform="translate(-15.47 -34.61)"/><path class="cls-124" d="M534.54,359.32h-1.49v-1.51h1.49Z" transform="translate(-15.47 -34.61)"/><path class="cls-124" d="M499.18,357.77v1.55h-1.53v-1.54h1.53Z" transform="translate(-15.47 -34.61)"/><path class="cls-124" d="M493,354.71v-1.54h1.51v1.52H493Z" transform="translate(-15.47 -34.61)"/><path class="cls-124" d="M536.11,393.17h-1.54v-1.54h1.54Z" transform="translate(-15.47 -34.61)"/><path class="cls-124" d="M525.36,382.41h-1.55v-1.53h1.54v1.55Z" transform="translate(-15.47 -34.61)"/><path class="cls-124" d="M536.11,390.08v-1.51h1.5v1.51Z" transform="translate(-15.47 -34.61)"/><path class="cls-124" d="M537.64,356.24v1.52h-1.53v-1.52h1.53Z" transform="translate(-15.47 -34.61)"/><path class="cls-124" d="M503.79,384v1.53h-1.53V384h1.53Z" transform="translate(-15.47 -34.61)"/><path class="cls-124" d="M493.05,353.17h-1.54v-1.54H493v1.54Z" transform="translate(-15.47 -34.61)"/><path class="cls-124" d="M505.32,340.9l-1.53,0h0v-1.54h1.52c0,.52,0,1,0,1.57Z" transform="translate(-15.47 -34.61)"/><path class="cls-124" d="M505.32,362.41H504c-.07,0-.18-.11-.18-.18,0-.43,0-.86,0-1.32h1.52Z" transform="translate(-15.47 -34.61)"/><path class="cls-124" d="M513.06,384h1.49v1.51h-1.49Z" transform="translate(-15.47 -34.61)"/><path class="cls-124" d="M520.7,342.44v1.5h-1.5v-1.5Z" transform="translate(-15.47 -34.61)"/><path class="cls-124" d="M528.4,365.47h-1.5V364h1.5Z" transform="translate(-15.47 -34.61)"/><path class="cls-124" d="M516.08,383.92h-1.49v-1.49h1.49Z" transform="translate(-15.47 -34.61)"/><path class="cls-124" d="M519.16,342.41h-1.49V340.9h1.49Z" transform="translate(-15.47 -34.61)"/><path class="cls-124" d="M514.56,380.89v1.49h-1.5v-1.49Z" transform="translate(-15.47 -34.61)"/><path class="cls-124" d="M506.89,367v-1.49h1.5V367Z" transform="translate(-15.47 -34.61)"/><path class="cls-124" d="M517.67,379.35h1.48v1.5h-1.48Z" transform="translate(-15.47 -34.61)"/><path class="cls-124" d="M516.09,379.36v1.49H514.6v-1.49Z" transform="translate(-15.47 -34.61)"/><path class="cls-124" d="M510,367.05v1.51h-1.41c-.05,0-.12-.11-.13-.17,0-.43,0-.87,0-1.33Z" transform="translate(-15.47 -34.61)"/><path class="cls-124" d="M516.13,379.32v-1.5h1.49v1.5Z" transform="translate(-15.47 -34.61)"/><path class="cls-124" d="M506.85,368.59v1.49h-1.49v-1.49Z" transform="translate(-15.47 -34.61)"/><path class="cls-124" d="M516.08,377.78h-1.49v-1.5h1.49Z" transform="translate(-15.47 -34.61)"/><path class="cls-124" d="M539.16,370.12v1.49h-1.51v-1.49Z" transform="translate(-15.47 -34.61)"/><path class="cls-124" d="M514.6,353.2h1.49v1.5H514.6Z" transform="translate(-15.47 -34.61)"/><path d="M490,376.27h-1.52v-3.09H490V370.1h-1.51v-4.59H490V367h1.54v1.52H493v-3h6.14V367H494.6v3.08h1.52v4.61h3.06v1.57h-4.6v-1.54H493v-3.11h1.51v-1.51H491.5v4.62H490v1.54Z" transform="translate(-15.47 -34.61)"/><path d="M499.18,337.83v10.72H488.45V337.83Zm-1.55,9.2v-7.66H490V347Z" transform="translate(-15.47 -34.61)"/><path d="M493,353.18v-1.54H491.5v-1.51h3.06v1.51h3.08v1.55h-1.5v1.54h1.5v1.55h-3.07v1.53H491.5v-1.54H493V354.7h1.52v-1.52Z" transform="translate(-15.47 -34.61)"/><path d="M536.11,351.64h-1.53v3.07H533v-3H530v-3.1h1.52v-1.5H533v3h3.1Z" transform="translate(-15.47 -34.61)"/><path d="M506.87,379.35h-4.61v-1.56h1.52v-1.52h-3.06v-3.08h1.55v1.54h3.06v3.06h1.54Z" transform="translate(-15.47 -34.61)"/><path d="M500.72,379.34h-3.05v1.52h1.5v1.53h-3v-3.05h-1.55V377.8h4.61v-1.54h1.53v3.08Z" transform="translate(-15.47 -34.61)"/><path d="M490,379.37c0-.74,0-1.47,0-2.2v-.9h1.54v-1.54H493v1.54h1.53v1.54H493v3.06h-1.53v-1.5H490Z" transform="translate(-15.47 -34.61)"/><path d="M503.8,384h-1.54v1.54h-1.54v-6.15h1.53v1.52h1.55Z" transform="translate(-15.47 -34.61)"/><path d="M497.65,351.64v-1.52h3.07v-3.07h1.5s0,.05,0,.07c0,1.51,0,3,0,4.52h-4.6Z" transform="translate(-15.47 -34.61)"/><path d="M502.25,351.64h1.54v1.53h4.6v1.54h-6l-.17,0h0v-3.08Z" transform="translate(-15.47 -34.61)"/><path d="M503.78,391.61h-3v-3h3Z" transform="translate(-15.47 -34.61)"/><path d="M506.84,348.54v1.55h-3v-3h1.51v1.48Z" transform="translate(-15.47 -34.61)"/><path d="M500.72,354.7h-3.07v-1.54h3.07v1.53Z" transform="translate(-15.47 -34.61)"/><path d="M490,379.36v1.49h-1.53v-1.48H490Z" transform="translate(-15.47 -34.61)"/><path d="M502.25,354.7v1.53h-1.53V354.7h1.53Z" transform="translate(-15.47 -34.61)"/><path d="M542.23,353.16v-1.5h1.54v1.49h-1.54Z" transform="translate(-15.47 -34.61)"/><path d="M506.84,348.54v-1.48h1.54v1.48Z" transform="translate(-15.47 -34.61)"/><path d="M503.8,339.35v1.54h-1.52v-1.54Z" transform="translate(-15.47 -34.61)"/><path d="M537.64,353.18H536.1v-1.55h1.54Z" transform="translate(-15.47 -34.61)"/><path d="M505.33,339.35h-1.54v-1.52h1.54Z" transform="translate(-15.47 -34.61)"/><path d="M499.19,357.78h-1.55v-1.54h1.55Z" transform="translate(-15.47 -34.61)"/><path d="M537.64,351.64v-1.52h1.51v1.51h-1.51Z" transform="translate(-15.47 -34.61)"/><path class="cls-124" d="M490,385.49h7.64v7.66H490Zm1.53,6.12h4.58V387h-4.58Z" transform="translate(-15.47 -34.61)"/><path class="cls-124" d="M536.12,339.36h7.65V347h-7.65Zm6.12,1.54h-4.59v4.58h4.59Z" transform="translate(-15.47 -34.61)"/><path d="M525.35,382.42v-1.55h2.91l.19,0h0s0,.05,0,.08c0,1.5,0,3,0,4.51h-1.55v-3.07Z" transform="translate(-15.47 -34.61)"/><path class="cls-124" d="M522.23,387v1.49h-1.49V387Z" transform="translate(-15.47 -34.61)"/><path class="cls-124" d="M519.21,388.57h1.48v1.51h-1.48Z" transform="translate(-15.47 -34.61)"/><path d="M534.57,391.63v1.54H533v-1.54Z" transform="translate(-15.47 -34.61)"/><path class="cls-124" d="M543.76,357.76v1.57h-1.49v-1.56h1.49Z" transform="translate(-15.47 -34.61)"/><path d="M525.36,374.73h-1.57v-4.61h-1.53v1.49h-4.59V370.1h4.57v-1.52h3.11v6.16Z" transform="translate(-15.47 -34.61)"/><path d="M528.45,380.9v-1.54h1.49v1.54Z" transform="translate(-15.47 -34.61)"/><path d="M506.86,380.88v-1.54h1.54v1.54Z" transform="translate(-15.47 -34.61)"/><path d="M536.08,385.46h-1.5V384h1.5Z" transform="translate(-15.47 -34.61)"/><path d="M537.64,356.25H536.1V354.7h1.54Z" transform="translate(-15.47 -34.61)"/><path class="cls-124" d="M493,374.74H491.5v-4.62h3.05v1.51H493Z" transform="translate(-15.47 -34.61)"/><path class="cls-124" d="M494.57,377.81v-1.54h4.62v1.54Z" transform="translate(-15.47 -34.61)"/><path class="cls-124" d="M491.51,374.73v1.54H490v-1.54Z" transform="translate(-15.47 -34.61)"/><path class="cls-124" d="M494.58,376.27H493v-1.54h1.54Z" transform="translate(-15.47 -34.61)"/><path class="cls-124" d="M497.63,347H490v-7.66h7.64Zm-1.53-1.54v-4.58h-4.58v4.58Z" transform="translate(-15.47 -34.61)"/><path class="cls-124" d="M502.26,354.71h-1.54v-1.53h-3.08v-1.55h4.62Z" transform="translate(-15.47 -34.61)"/><path class="cls-124" d="M497.65,353.17v1.54h-1.51v-1.54Z" transform="translate(-15.47 -34.61)"/><path class="cls-124" d="M502.26,379.35h-1.54v-3.08h3.06v1.52h-1.52Z" transform="translate(-15.47 -34.61)"/><path d="M491.52,391.61V387h4.58v4.58Z" transform="translate(-15.47 -34.61)"/><path d="M542.24,340.9v4.58h-4.59V340.9Z" transform="translate(-15.47 -34.61)"/><path d="M496.1,345.49h-4.58v-4.58h4.58Z" transform="translate(-15.47 -34.61)"/><polyline class="cls-125" points="200.55 117.9 200.55 118.9 199.55 118.9"/><line class="cls-126" x1="197.55" y1="118.9" x2="74.39" y2="118.9"/><polyline class="cls-127" points="73.39 118.9 72.39 118.9 72.39 117.9"/><line class="cls-128" x1="72.39" y1="115.88" x2="72.39" y2="27.72"/><polyline class="cls-129" points="72.39 26.7 72.39 25.7 73.39 25.7"/><line class="cls-130" x1="75.4" y1="25.71" x2="198.55" y2="25.71"/><polyline class="cls-131" points="199.55 25.7 200.55 25.7 200.55 26.7"/><line class="cls-132" x1="200.55" y1="28.73" x2="200.55" y2="116.89"/><text class="cls-133" transform="translate(85.1 88.21) scale(0.99 1)">L<tspan class="cls-134" x="18.53" y="0">OGO</tspan></text><polyline class="cls-135" points="430.8 109.75 430.8 110.75 429.8 110.75"/><line class="cls-136" x1="427.83" y1="110.75" x2="342.12" y2="110.75"/><polyline class="cls-135" points="341.13 110.75 340.13 110.75 340.13 109.75"/><line class="cls-137" x1="340.13" y1="107.79" x2="340.13" y2="46.23"/><polyline class="cls-138" points="340.13 45.25 340.13 44.25 341.13 44.25"/><line class="cls-139" x1="343.1" y1="44.25" x2="428.82" y2="44.25"/><polyline class="cls-138" points="429.8 44.25 430.8 44.25 430.8 45.25"/><line class="cls-140" x1="430.8" y1="47.21" x2="430.8" y2="108.77"/><text class="cls-141" transform="translate(349.23 64.26) scale(0.98 1)">NOM<tspan x="0" y="16">PRENOM</tspan><tspan x="0" y="32">FONCTION</tspan></text><text class="cls-142" transform="translate(69 419.64)">S<tspan class="cls-143" x="3.9" y="0">B</tspan><tspan x="8.06" y="0">CARD C</tspan><tspan class="cls-144" x="31.94" y="0">L</tspan><tspan class="cls-145" x="35.29" y="0">A</tspan><tspan class="cls-146" x="39.47" y="0">S</tspan><tspan class="cls-147" x="43.29" y="0">SIC REC</tspan><tspan class="cls-148" x="68.67" y="0">T</tspan><tspan class="cls-149" x="72.6" y="0">O</tspan></text><text class="cls-142" transform="translate(77.64 172.89)">S<tspan class="cls-143" x="3.9" y="0">B</tspan><tspan x="8.06" y="0">CARD PRO REC</tspan><tspan class="cls-148" x="55.56" y="0">T</tspan><tspan class="cls-149" x="59.49" y="0">O</tspan></text><text class="cls-142" transform="translate(382.98 419.64)">S<tspan class="cls-143" x="3.9" y="0">B</tspan><tspan x="8.06" y="0">CARD C</tspan><tspan class="cls-144" x="31.94" y="0">L</tspan><tspan class="cls-145" x="35.29" y="0">A</tspan><tspan class="cls-146" x="39.47" y="0">S</tspan><tspan class="cls-147" x="43.29" y="0">SIC VERSO</tspan></text><text class="cls-142" transform="translate(379.38 172.89)">S<tspan class="cls-143" x="3.9" y="0">B</tspan><tspan x="8.06" y="0">CARD PRO VERSO</tspan></text></svg>