<svg id="Layer_1" data-name="Layer 1" xmlns="http://www.w3.org/2000/svg" xmlns:xlink="http://www.w3.org/1999/xlink" viewBox="0 0 298.35 213.23"><defs><style>.cls-1,.cls-2{fill:none;}.cls-2{stroke-miterlimit:10;stroke-width:0.25px;stroke:url(#linear-gradient);}.cls-3{clip-path:url(#clip-path);}.cls-4{fill:url(#linear-gradient-2);}.cls-5{clip-path:url(#clip-path-2);}.cls-6{fill:url(#linear-gradient-3);}.cls-7{clip-path:url(#clip-path-3);}.cls-8{fill:url(#linear-gradient-4);}.cls-9{clip-path:url(#clip-path-4);}.cls-10{fill:url(#linear-gradient-5);}.cls-11{clip-path:url(#clip-path-5);}.cls-12{fill:url(#linear-gradient-6);}.cls-13{clip-path:url(#clip-path-6);}.cls-14{fill:url(#linear-gradient-7);}.cls-15{clip-path:url(#clip-path-7);}.cls-16{fill:url(#linear-gradient-8);}.cls-17{clip-path:url(#clip-path-8);}.cls-18{fill:url(#linear-gradient-9);}.cls-19{clip-path:url(#clip-path-9);}.cls-20{fill:url(#linear-gradient-10);}.cls-21{clip-path:url(#clip-path-10);}.cls-22{fill:url(#linear-gradient-11);}.cls-23{clip-path:url(#clip-path-11);}.cls-24{fill:url(#linear-gradient-12);}.cls-25{font-size:7px;fill:#1d1d1b;font-family:Tahoma;}.cls-26{letter-spacing:0em;}.cls-27{letter-spacing:-0.02em;}.cls-28{letter-spacing:0em;}.cls-29{letter-spacing:-0.01em;}.cls-30{letter-spacing:0em;}.cls-31{letter-spacing:-0.02em;}.cls-32{letter-spacing:0em;}</style><linearGradient id="linear-gradient" x1="32.15" y1="97.75" x2="276.18" y2="97.75" gradientUnits="userSpaceOnUse"><stop offset="0" stop-color="#009fe3"/><stop offset="1" stop-color="#672783"/></linearGradient><clipPath id="clip-path"><path class="cls-1" d="M202.27,43.06a1,1,0,0,0,.69,1.33,16.5,16.5,0,0,1,8.16,6.09c.22.37.7,1.11,1.1,1.88a16,16,0,0,1,1.79,7,1.15,1.15,0,0,0,.14.55,1,1,0,0,0,1.15.45,1,1,0,0,0,.72-1.07,18.23,18.23,0,0,0-12.44-16.87,1.24,1.24,0,0,0-.37-.06,1,1,0,0,0-.94.66"/></clipPath><linearGradient id="linear-gradient-2" x1="-924.9" y1="762.29" x2="-923.9" y2="762.29" gradientTransform="matrix(0, -110.5, -110.5, 0, 84443.22, -102104.15)" xlink:href="#linear-gradient"/><clipPath id="clip-path-2"><path class="cls-1" d="M200.71,46.63a1,1,0,0,0,.68,1.27,12.37,12.37,0,0,1,8.79,11.88,1,1,0,1,0,2,0,14.28,14.28,0,0,0-2.67-8.41A15.37,15.37,0,0,0,207.39,49,14.36,14.36,0,0,0,202,46a1.41,1.41,0,0,0-.35,0,1,1,0,0,0-.95.7"/></clipPath><linearGradient id="linear-gradient-3" x1="-924.9" y1="762.28" x2="-923.9" y2="762.28" gradientTransform="matrix(0, -110.5, -110.5, 0, 84440.56, -102101.22)" xlink:href="#linear-gradient"/><clipPath id="clip-path-3"><path class="cls-1" d="M199.34,49.84a1,1,0,0,0-.13,1.07,1.08,1.08,0,0,0,.76.57,8.4,8.4,0,0,1,5.7,4.92,8,8,0,0,1,.67,3.75,1,1,0,0,0,.28.84,1,1,0,0,0,1.73-.67,10.48,10.48,0,0,0-2-6.84,10.57,10.57,0,0,0-5.95-4,.82.82,0,0,0-.26,0,1,1,0,0,0-.76.38"/></clipPath><linearGradient id="linear-gradient-4" x1="-924.9" y1="762.28" x2="-923.9" y2="762.28" gradientTransform="matrix(0, -110.5, -110.5, 0, 84437.8, -102098.48)" xlink:href="#linear-gradient"/><clipPath id="clip-path-4"><path class="cls-1" d="M197.74,53.48a1,1,0,0,0-.1,1,1,1,0,0,0,.86.58,4.7,4.7,0,0,1,3.95,3.78,5.11,5.11,0,0,1,0,1.7,1,1,0,1,0,2,.3,6.69,6.69,0,0,0-5.78-7.79h-.15a.9.9,0,0,0-.77.42"/></clipPath><linearGradient id="linear-gradient-5" x1="-924.9" y1="762.28" x2="-923.9" y2="762.28" gradientTransform="matrix(0, -110.5, -110.5, 0, 84435.23, -102095.53)" xlink:href="#linear-gradient"/><clipPath id="clip-path-5"><path class="cls-1" d="M129.32,116.9a6.66,6.66,0,0,0,6.8,7,6.17,6.17,0,0,0,5-2.25l-.37-.4a5.57,5.57,0,0,1-4.61,2.14,6.5,6.5,0,0,1,0-13,5.55,5.55,0,0,1,4.61,2.15l.37-.41a6.16,6.16,0,0,0-5-2.24,6.63,6.63,0,0,0-6.8,7"/></clipPath><linearGradient id="linear-gradient-6" x1="-924.9" y1="762.28" x2="-923.9" y2="762.28" gradientTransform="matrix(0, -110.5, -110.5, 0, 84369.37, -102021.56)" xlink:href="#linear-gradient"/><clipPath id="clip-path-6"><path class="cls-1" d="M144.74,120c0-1.85,1.23-3.19,4.37-3.19h5.27v3.05a5.25,5.25,0,0,1-5.27,3.54c-2.76,0-4.37-1.31-4.37-3.4m-.16-8,.38.37a7.24,7.24,0,0,1,5-1.93c2.86,0,4.39,1.48,4.39,4.37v1.52h-5.25c-3.69,0-4.92,1.74-4.92,3.73,0,2.32,1.79,3.88,4.9,3.88a5.46,5.46,0,0,0,5.27-3v3h.53v-9.08c0-3.16-1.74-4.84-4.95-4.84a7.86,7.86,0,0,0-5.38,2.06"/></clipPath><linearGradient id="linear-gradient-7" x1="-924.9" y1="762.28" x2="-923.9" y2="762.28" gradientTransform="matrix(0, -110.5, -110.5, 0, 84383.06, -102032.84)" xlink:href="#linear-gradient"/><clipPath id="clip-path-7"><path class="cls-1" d="M161.45,113.58V110h-.54v13.84h.54v-7.45c0-3.66,2-5.94,5.27-5.94h.16v-.53a5.24,5.24,0,0,0-5.43,3.66"/></clipPath><linearGradient id="linear-gradient-8" x1="-924.9" y1="762.28" x2="-923.9" y2="762.28" gradientTransform="matrix(0, -110.5, -110.5, 0, 84397.6, -102043.96)" xlink:href="#linear-gradient"/><clipPath id="clip-path-8"><path class="cls-1" d="M169.66,116.9a6.19,6.19,0,1,1,12.37,0c0,3.83-2.65,6.51-6.18,6.51a6.14,6.14,0,0,1-6.19-6.51M182,104V114.2a6.41,6.41,0,0,0-6.18-4.28,7,7,0,0,0,0,14,6.41,6.41,0,0,0,6.18-4.31v4.23h.54V104Z"/></clipPath><linearGradient id="linear-gradient-9" x1="-924.9" y1="762.29" x2="-923.9" y2="762.29" gradientTransform="matrix(0, -110.5, -110.5, 0, 84410.85, -102054.47)" xlink:href="#linear-gradient"/><clipPath id="clip-path-9"><path class="cls-1" d="M154.34,68.25v.09h0V79h3V71.26h13.74c6.2,0,9,2.23,9,5.61,0,3.08-2.68,5.38-9,5.38H140.81c-6.2,0-9-2.23-9-5.62,0-3.07,2.68-5.37,9-5.37H151.3v-3H140.93c-8.79,0-12.05,3.56-12.05,8.28,0,5,3.52,8.73,12.18,8.73h30c6.28,0,9,2.29,9,5.37,0,3.39-2.76,5.61-9,5.61H157.34V88.8h-3V99.1h0v.15h16.49c8.67,0,12.18-3.73,12.18-8.72a7.12,7.12,0,0,0-4.13-6.78A7.11,7.11,0,0,0,183,77c0-5-3.51-8.73-12.18-8.73Z"/></clipPath><linearGradient id="linear-gradient-10" x1="-924.9" y1="762.33" x2="-923.9" y2="762.33" gradientTransform="matrix(0, -110.5, -110.5, 0, 84395.06, -102050.31)" xlink:href="#linear-gradient"/><clipPath id="clip-path-10"><path class="cls-1" d="M128.88,91v0c0,4.72,3.26,8.27,12.05,8.27H151.3v-3H140.81c-6.22,0-8.91-2.25-9-5.28Z"/></clipPath><linearGradient id="linear-gradient-11" x1="-924.9" y1="762.28" x2="-923.9" y2="762.28" gradientTransform="matrix(0, -110.5, -110.5, 0, 84373.3, -102033.71)" xlink:href="#linear-gradient"/><clipPath id="clip-path-11"><path class="cls-1" d="M115.1,123.81V68.36A10.89,10.89,0,0,1,126,57.48h59.93a10.89,10.89,0,0,1,10.88,10.88v55.45a10.89,10.89,0,0,1-10.88,10.88H126a10.89,10.89,0,0,1-10.88-10.88M126,56.73a11.65,11.65,0,0,0-11.63,11.63v55.45A11.65,11.65,0,0,0,126,135.44h59.93a11.65,11.65,0,0,0,11.63-11.63V68.36a11.65,11.65,0,0,0-11.63-11.63Z"/></clipPath><linearGradient id="linear-gradient-12" x1="-924.9" y1="762.28" x2="-923.9" y2="762.28" gradientTransform="matrix(0, -110.5, -110.5, 0, 84389.58, -102045.65)" xlink:href="#linear-gradient"/></defs><title>new JOSIA smart business card to print 2023</title><path class="cls-2" d="M267.55,174.29H40.78a8.5,8.5,0,0,1-8.5-8.51V29.72a8.49,8.49,0,0,1,8.5-8.5H267.55a8.5,8.5,0,0,1,8.51,8.5V165.78a8.51,8.51,0,0,1-8.51,8.51"/><g class="cls-3"><rect class="cls-4" x="197.6" y="40.36" width="22.89" height="22.22" transform="translate(38.71 183.13) rotate(-51.53)"/></g><g class="cls-5"><rect class="cls-6" x="196.89" y="44.19" width="18.96" height="18.43" transform="translate(36.18 181.76) rotate(-51.53)"/></g><g class="cls-7"><rect class="cls-8" x="196.16" y="48.02" width="15.21" height="14.81" transform="translate(33.61 180.48) rotate(-51.53)"/></g><g class="cls-9"><rect class="cls-10" x="195.43" y="51.87" width="11.37" height="11.13" transform="translate(31.04 179.17) rotate(-51.53)"/></g><g class="cls-11"><rect class="cls-12" x="126.07" y="107.95" width="18.29" height="17.93" transform="translate(-40.44 150.05) rotate(-51.53)"/></g><g class="cls-13"><rect class="cls-14" x="140.75" y="108.37" width="17.62" height="17.1" transform="translate(-35.02 161.28) rotate(-51.53)"/></g><g class="cls-15"><rect class="cls-16" x="156.59" y="110.21" width="14.61" height="13.34" transform="matrix(0.62, -0.78, 0.78, 0.62, -29.57, 172.49)"/></g><g class="cls-17"><rect class="cls-18" x="163.86" y="102.48" width="23.98" height="22.93" transform="translate(-22.76 180.74) rotate(-51.53)"/></g><g class="cls-19"><rect class="cls-20" x="126.97" y="52.92" width="57.94" height="61.67" transform="translate(-6.64 153.75) rotate(-51.53)"/></g><g class="cls-21"><rect class="cls-22" x="129.86" y="83.74" width="20.44" height="22.72" transform="translate(-21.51 145.62) rotate(-51.53)"/></g><g class="cls-23"><rect class="cls-24" x="99.26" y="39.04" width="113.37" height="114.09" transform="translate(-16.3 158.41) rotate(-51.53)"/></g><text class="cls-25" transform="translate(84.47 197.94)">S<tspan class="cls-26" x="3.9" y="0">B</tspan><tspan x="8.06" y="0">CARD C</tspan><tspan class="cls-27" x="31.94" y="0">L</tspan><tspan class="cls-28" x="35.29" y="0">A</tspan><tspan class="cls-29" x="39.47" y="0">S</tspan><tspan class="cls-30" x="43.29" y="0">SIC REC</tspan><tspan class="cls-31" x="68.67" y="0">T</tspan><tspan class="cls-32" x="72.6" y="0">O</tspan></text></svg>