<svg id="Layer_1" data-name="Layer 1" xmlns="http://www.w3.org/2000/svg" xmlns:xlink="http://www.w3.org/1999/xlink" viewBox="0 0 304.61 217.71"><defs><style>.cls-1,.cls-12,.cls-13,.cls-14,.cls-15,.cls-16,.cls-17,.cls-18,.cls-19{fill:none;stroke-miterlimit:10;}.cls-1{stroke-width:0.25px;stroke:url(#linear-gradient);}.cls-2{fill:url(#linear-gradient-2);}.cls-3{fill:url(#linear-gradient-3);}.cls-4{fill:url(#linear-gradient-4);}.cls-5{fill:url(#linear-gradient-5);}.cls-6{fill:url(#linear-gradient-6);}.cls-7{fill:url(#linear-gradient-7);}.cls-8{fill:url(#linear-gradient-8);}.cls-9{fill:url(#linear-gradient-9);}.cls-10{fill:url(#linear-gradient-10);}.cls-11{fill:url(#linear-gradient-11);}.cls-12{stroke:url(#linear-gradient-12);}.cls-13,.cls-17{stroke-dasharray:2 2;}.cls-13{stroke:url(#linear-gradient-13);}.cls-14{stroke:url(#linear-gradient-14);}.cls-15,.cls-19{stroke-dasharray:2.03 2.03;}.cls-15{stroke:url(#linear-gradient-15);}.cls-16{stroke:url(#linear-gradient-16);}.cls-17{stroke:url(#linear-gradient-17);}.cls-18{stroke:url(#linear-gradient-18);}.cls-19{stroke:url(#linear-gradient-19);}.cls-20{font-size:42.79px;font-family:MyriadPro-Regular, Myriad Pro;letter-spacing:-0.04em;}.cls-20,.cls-22{fill:#1d1d1b;}.cls-21{letter-spacing:0em;}.cls-22{font-size:7px;font-family:Tahoma;}.cls-23{letter-spacing:0em;}.cls-24{letter-spacing:-0.02em;}.cls-25{letter-spacing:0em;}</style><linearGradient id="linear-gradient" x1="33" y1="111.27" x2="277.03" y2="111.27" gradientUnits="userSpaceOnUse"><stop offset="0" stop-color="#009fe3"/><stop offset="1" stop-color="#672783"/></linearGradient><linearGradient id="linear-gradient-2" x1="251.36" y1="41.19" x2="266" y2="53.16" xlink:href="#linear-gradient"/><linearGradient id="linear-gradient-3" x1="249.28" y1="43.73" x2="263.91" y2="55.7" xlink:href="#linear-gradient"/><linearGradient id="linear-gradient-4" x1="247.19" y1="46.28" x2="261.83" y2="58.25" xlink:href="#linear-gradient"/><linearGradient id="linear-gradient-5" x1="245.09" y1="48.85" x2="259.73" y2="60.82" xlink:href="#linear-gradient"/><linearGradient id="linear-gradient-6" x1="44.13" y1="172.17" x2="97.34" y2="184.81" xlink:href="#linear-gradient"/><linearGradient id="linear-gradient-7" x1="44.45" y1="170.84" x2="97.66" y2="183.47" xlink:href="#linear-gradient"/><linearGradient id="linear-gradient-8" x1="44.79" y1="169.39" x2="98" y2="182.02" xlink:href="#linear-gradient"/><linearGradient id="linear-gradient-9" x1="45.45" y1="166.65" x2="98.65" y2="179.28" xlink:href="#linear-gradient"/><linearGradient id="linear-gradient-10" x1="44.3" y1="171.47" x2="97.51" y2="184.11" xlink:href="#linear-gradient"/><linearGradient id="linear-gradient-11" x1="42.48" y1="179.14" x2="95.69" y2="191.77" xlink:href="#linear-gradient"/><linearGradient id="linear-gradient-12" x1="87.36" y1="153.27" x2="216.52" y2="153.27" xlink:href="#linear-gradient"/><linearGradient id="linear-gradient-13" x1="87.36" y1="153.52" x2="216.52" y2="153.52" xlink:href="#linear-gradient"/><linearGradient id="linear-gradient-14" x1="87.36" y1="153.27" x2="216.52" y2="153.27" xlink:href="#linear-gradient"/><linearGradient id="linear-gradient-15" x1="87.36" y1="106.41" x2="216.52" y2="106.41" xlink:href="#linear-gradient"/><linearGradient id="linear-gradient-16" x1="87.36" y1="60.57" x2="216.52" y2="60.57" xlink:href="#linear-gradient"/><linearGradient id="linear-gradient-17" x1="87.36" y1="60.32" x2="216.52" y2="60.32" xlink:href="#linear-gradient"/><linearGradient id="linear-gradient-18" x1="87.36" y1="60.57" x2="216.52" y2="60.57" xlink:href="#linear-gradient"/><linearGradient id="linear-gradient-19" x1="87.36" y1="107.42" x2="216.52" y2="107.42" xlink:href="#linear-gradient"/></defs><title>new JOSIA smart business card to print 2023</title><rect class="cls-1" x="33.12" y="34.74" width="243.78" height="153.07" rx="8.5"/><path class="cls-2" d="M263.13,49A16.53,16.53,0,0,0,255,42.88a1,1,0,1,1,.61-1.92,18.11,18.11,0,0,1,8.49,5.95,18.07,18.07,0,0,1,4,10.92,1,1,0,0,1-.72,1.07,1,1,0,0,1-1.15-.45,1.37,1.37,0,0,1-.15-.55,15.83,15.83,0,0,0-1.78-7C263.84,50.08,263.36,49.35,263.13,49Z"/><path class="cls-3" d="M261.55,49.89a14.18,14.18,0,0,1,2.66,8.41,1,1,0,0,1-1,1.06,1,1,0,0,1-1-1.16,7.85,7.85,0,0,0-.19-2.82c-1.52-4.71-4.42-7.67-8.61-9a1,1,0,1,1,.63-1.91,14.28,14.28,0,0,1,5.38,3A16,16,0,0,1,261.55,49.89Z"/><path class="cls-4" d="M258.33,52a10.45,10.45,0,0,1,2,6.83,1,1,0,0,1-.65.91.94.94,0,0,1-1.08-.24,1.06,1.06,0,0,1-.28-.91,7.52,7.52,0,0,0-.77-3.89A8.36,8.36,0,0,0,252,50a1.06,1.06,0,0,1-.76-.57A1,1,0,0,1,252.38,48a10.52,10.52,0,0,1,4.07,2A10.33,10.33,0,0,1,258.33,52Z"/><path class="cls-5" d="M255.25,54.24a6.72,6.72,0,0,1,1.21,5.11,1,1,0,0,1-1.14.86,1,1,0,0,1-.85-1.16,4.8,4.8,0,0,0,0-1.69,4.69,4.69,0,0,0-3.94-3.79,1,1,0,0,1-.86-.57,1,1,0,0,1,.09-1,1,1,0,0,1,.93-.4A6.66,6.66,0,0,1,255.25,54.24Z"/><path class="cls-6" d="M70.13,175.72a2.23,2.23,0,0,1,1.84.84l.18.25.51-.56-.13-.17a3,3,0,0,0-2.4-1.09,3.36,3.36,0,0,0,0,6.71,3,3,0,0,0,2.4-1.09l.13-.17-.51-.55-.18.24a2.21,2.21,0,0,1-1.84.85,2.63,2.63,0,0,1,0-5.26Z"/><path class="cls-7" d="M76.27,175a3.81,3.81,0,0,0-2.57,1l-.18.18.52.52.18-.17a2.91,2.91,0,0,1,2.11-.78A1.68,1.68,0,0,1,78,177.4v.43H75.9c-2.2,0-2.44,1.33-2.44,1.9,0,1.2,1,2,2.42,2a2.8,2.8,0,0,0,2.09-.79v.76h.74v-4.28A2.21,2.21,0,0,0,76.27,175Zm-.39,3.56H78v1.06A2.07,2.07,0,0,1,75.88,181c-1.07,0-1.68-.46-1.68-1.26S74.77,178.55,75.88,178.55Z"/><path class="cls-8" d="M81.61,175.9V175h-.74v6.64h.74v-3.55c0-1.52.76-2.39,2.09-2.39H84V175h-.25A2.69,2.69,0,0,0,81.61,175.9Z"/><path class="cls-9" d="M90.24,172.35v3.82A3.11,3.11,0,0,0,87.75,175a3.36,3.36,0,0,0,0,6.71,3.08,3.08,0,0,0,2.49-1.18v1.15H91v-9.32ZM87.75,181a2.63,2.63,0,1,1,2.49-2.64A2.48,2.48,0,0,1,87.75,181Z"/><path class="cls-10" d="M64,174.58a3.17,3.17,0,0,0,1.84-3c0-2.21-1.56-3.87-5.41-3.87H53.09v0h0v4.73h1.33V169h6.1c2.74,0,4,1,4,2.49,0,1.36-1.19,2.38-4,2.38H47.08c-2.74,0-4-1-4-2.49s1.19-2.38,4-2.38h4.66V167.7h-4.6c-3.9,0-5.35,1.58-5.35,3.67s1.56,3.87,5.41,3.87H60.52c2.78,0,4,1,4,2.38s-1.23,2.49-4,2.49h-6.1v-3.3H53.09v4.57h0v.06H60.4c3.85,0,5.41-1.65,5.41-3.87A3.15,3.15,0,0,0,64,174.58Z"/><path class="cls-11" d="M43.11,177.77H41.79c0,2.09,1.45,3.67,5.35,3.67h4.6v-1.34H47.08C44.32,180.11,43.13,179.12,43.11,177.77Z"/><polyline class="cls-12" points="216.02 152.51 216.02 153.51 215.02 153.51"/><line class="cls-13" x1="213.02" y1="153.52" x2="89.86" y2="153.52"/><polyline class="cls-14" points="88.86 153.51 87.86 153.51 87.86 152.51"/><line class="cls-15" x1="87.86" y1="150.49" x2="87.86" y2="62.33"/><polyline class="cls-16" points="87.86 61.32 87.86 60.32 88.86 60.32"/><line class="cls-17" x1="90.86" y1="60.32" x2="214.02" y2="60.32"/><polyline class="cls-18" points="215.02 60.32 216.02 60.32 216.02 61.32"/><line class="cls-19" x1="216.02" y1="63.35" x2="216.02" y2="151.5"/><text class="cls-20" transform="translate(100.57 122.82) scale(0.99 1)">L<tspan class="cls-21" x="18.53" y="0">OGO</tspan></text><text class="cls-22" transform="translate(93.11 207.51)">S<tspan class="cls-23" x="3.9" y="0">B</tspan><tspan x="8.06" y="0">CARD PRO REC</tspan><tspan class="cls-24" x="55.56" y="0">T</tspan><tspan class="cls-25" x="59.49" y="0">O</tspan></text></svg>