<svg id="Layer_1" data-name="Layer 1" xmlns="http://www.w3.org/2000/svg" xmlns:xlink="http://www.w3.org/1999/xlink" viewBox="0 0 104.37 64.15"><defs><style>.cls-1{fill:url(#linear-gradient);}.cls-2{fill:url(#linear-gradient-2);}.cls-3{fill:url(#linear-gradient-3);}.cls-4{fill:url(#linear-gradient-4);}.cls-5{fill:url(#linear-gradient-5);}.cls-6{fill:url(#linear-gradient-6);}.cls-7{fill:url(#linear-gradient-7);}.cls-8{fill:url(#linear-gradient-8);}.cls-9{fill:url(#linear-gradient-9);}.cls-10{fill:url(#linear-gradient-10);}.cls-11{fill:url(#linear-gradient-11);}.cls-12{fill:url(#linear-gradient-12);}.cls-13{fill:url(#linear-gradient-13);}.cls-14{fill:url(#linear-gradient-14);}.cls-15{fill:url(#linear-gradient-15);}.cls-16{fill:url(#linear-gradient-16);}.cls-17{fill:url(#linear-gradient-17);}</style><linearGradient id="linear-gradient" x1="13.03" y1="18.21" x2="49.2" y2="44.44" gradientUnits="userSpaceOnUse"><stop offset="0" stop-color="#009fe3"/><stop offset="1" stop-color="#672783"/></linearGradient><linearGradient id="linear-gradient-2" x1="16.42" y1="13.88" x2="52.68" y2="40.18" xlink:href="#linear-gradient"/><linearGradient id="linear-gradient-3" x1="19.76" y1="9.98" x2="55.69" y2="36.03" xlink:href="#linear-gradient"/><linearGradient id="linear-gradient-4" x1="23.17" y1="5.46" x2="59.28" y2="31.65" xlink:href="#linear-gradient"/><linearGradient id="linear-gradient-5" x1="26.87" y1="1.14" x2="62.67" y2="27.11" xlink:href="#linear-gradient"/><linearGradient id="linear-gradient-6" x1="7.58" y1="25.28" x2="43.76" y2="51.53" xlink:href="#linear-gradient"/><linearGradient id="linear-gradient-7" x1="11.27" y1="20.57" x2="47.43" y2="46.8" xlink:href="#linear-gradient"/><linearGradient id="linear-gradient-8" x1="14.26" y1="16.8" x2="50.43" y2="43.03" xlink:href="#linear-gradient"/><linearGradient id="linear-gradient-9" x1="17.49" y1="13.88" x2="52.79" y2="39.48" xlink:href="#linear-gradient"/><linearGradient id="linear-gradient-10" x1="19.78" y1="9.88" x2="55.91" y2="36.08" xlink:href="#linear-gradient"/><linearGradient id="linear-gradient-11" x1="23.18" y1="5.79" x2="59.2" y2="31.91" xlink:href="#linear-gradient"/><linearGradient id="linear-gradient-12" x1="26.06" y1="1.86" x2="62.23" y2="28.09" xlink:href="#linear-gradient"/><linearGradient id="linear-gradient-13" x1="29.07" y1="-1.95" x2="65.24" y2="24.28" xlink:href="#linear-gradient"/><linearGradient id="linear-gradient-14" x1="2.24" y1="32" x2="38.61" y2="58.38" xlink:href="#linear-gradient"/><linearGradient id="linear-gradient-15" x1="5.24" y1="28.71" x2="41.17" y2="54.76" xlink:href="#linear-gradient"/><linearGradient id="linear-gradient-16" x1="8.63" y1="24.18" x2="44.74" y2="50.36" xlink:href="#linear-gradient"/><linearGradient id="linear-gradient-17" x1="11.8" y1="19.91" x2="48.08" y2="46.22" xlink:href="#linear-gradient"/></defs><title>new JOSIA smart business card to print 2023</title><path class="cls-1" d="M13.75,21.87l.37-.75a2.94,2.94,0,0,0,1.54.45c.64,0,.9-.2.9-.47,0-.81-2.72-.25-2.72-1.87,0-.74.64-1.35,2-1.35a3.41,3.41,0,0,1,1.63.38L17.1,19a2.77,2.77,0,0,0-1.29-.34c-.64,0-.89.22-.89.49,0,.8,2.72.25,2.72,1.85,0,.73-.65,1.35-2,1.35A3.48,3.48,0,0,1,13.75,21.87Z"/><path class="cls-2" d="M26.65,22.3V19.69l-1.38,2.15h-.49l-1.37-2.09V22.3h-1V18h.89L25,20.66,26.77,18h.89V22.3Z"/><path class="cls-3" d="M35.88,21.37H33.7l-.41.93H32.18L34.26,18h1.07l2.1,4.35H36.29Zm-.35-.76-.74-1.67-.74,1.67Z"/><path class="cls-4" d="M44.91,22.3,44,21.09H43V22.3H41.93V18h2c1.25,0,2,.6,2,1.58a1.42,1.42,0,0,1-1,1.37l1,1.4Zm-1-3.53H43v1.52h.88c.67,0,1-.29,1-.76S44.56,18.77,43.89,18.77Z"/><path class="cls-5" d="M51.76,18.77h-1.5V18h4.08v.82h-1.5V22.3H51.76Z"/><path class="cls-6" d="M18.41,32.17c0,.75-.64,1.19-1.87,1.19H14.12V29H16.4c1.17,0,1.77.45,1.77,1.13a1,1,0,0,1-.62.95A1.1,1.1,0,0,1,18.41,32.17Zm-1.09-.11c0-.36-.3-.54-.86-.54H15.19V32.6h1.27C17,32.6,17.32,32.44,17.32,32.06Zm-2.13-2.3v1h1.08c.53,0,.81-.17.81-.52s-.28-.51-.81-.51Z"/><path class="cls-7" d="M23.2,31.44V29h1.09v2.4c0,.82.38,1.16,1,1.16s1-.34,1-1.16V29h1.07v2.43a1.87,1.87,0,0,1-2.12,2A1.87,1.87,0,0,1,23.2,31.44Z"/><path class="cls-8" d="M32.16,32.93l.37-.76a2.85,2.85,0,0,0,1.54.45c.64,0,.9-.19.9-.46,0-.82-2.72-.26-2.72-1.87,0-.74.64-1.36,2-1.36a3.3,3.3,0,0,1,1.63.39l-.34.76a2.77,2.77,0,0,0-1.29-.34c-.64,0-.89.22-.89.5,0,.8,2.72.25,2.72,1.84,0,.73-.65,1.35-2,1.35A3.48,3.48,0,0,1,32.16,32.93Z"/><path class="cls-9" d="M40.81,29h1.08v4.35H40.81Z"/><path class="cls-10" d="M51.3,29v4.35h-.89l-2.33-2.64v2.64H47V29h.9l2.32,2.64V29Z"/><path class="cls-11" d="M60.05,32.55v.81H56.43V29H60v.8H57.5v1h2.18v.78H57.5v1Z"/><path class="cls-12" d="M64.56,32.93l.37-.76a2.85,2.85,0,0,0,1.54.45c.64,0,.9-.19.9-.46,0-.82-2.72-.26-2.72-1.87,0-.74.64-1.36,2-1.36a3.3,3.3,0,0,1,1.63.39l-.34.76a2.77,2.77,0,0,0-1.29-.34c-.64,0-.89.22-.89.5,0,.8,2.72.25,2.72,1.84,0,.73-.65,1.35-2,1.35A3.48,3.48,0,0,1,64.56,32.93Z"/><path class="cls-13" d="M72.84,32.93l.37-.76a2.85,2.85,0,0,0,1.54.45c.64,0,.9-.19.9-.46,0-.82-2.72-.26-2.72-1.87,0-.74.64-1.36,2-1.36a3.3,3.3,0,0,1,1.63.39l-.34.76a2.77,2.77,0,0,0-1.29-.34c-.65,0-.89.22-.89.5,0,.8,2.72.25,2.72,1.84,0,.73-.65,1.35-2,1.35A3.48,3.48,0,0,1,72.84,32.93Z"/><path class="cls-14" d="M13.82,42.24A2.34,2.34,0,0,1,16.36,40a2.5,2.5,0,0,1,1.93.77l-.7.59a1.57,1.57,0,0,0-1.17-.51,1.4,1.4,0,1,0,0,2.79,1.51,1.51,0,0,0,1.17-.52l.7.6a2.5,2.5,0,0,1-1.93.78A2.34,2.34,0,0,1,13.82,42.24Z"/><path class="cls-15" d="M26,43.48H23.85l-.42.93H22.32l2.09-4.35h1.07l2.09,4.35H26.43Zm-.34-.76-.74-1.67-.75,1.67Z"/><path class="cls-16" d="M35.05,44.41l-.9-1.21h-1v1.21H32.07V40.06h2c1.25,0,2,.6,2,1.58a1.42,1.42,0,0,1-1,1.37l1,1.4Zm-1-3.53h-.89V42.4H34c.66,0,1-.29,1-.76S34.7,40.88,34,40.88Z"/><path class="cls-17" d="M41,40.06h2.12c1.53,0,2.58.86,2.58,2.18s-1.05,2.17-2.58,2.17H41Zm2.07,3.53a1.36,1.36,0,1,0,0-2.7h-1v2.7Z"/></svg>