<?xml version="1.0"?>
<svg width="194.12" height="128.31" xmlns="http://www.w3.org/2000/svg" xmlns:svg="http://www.w3.org/2000/svg" data-name="Layer 1">
 <defs>
  <style>.cls-1{fill:none;}.cls-2{clip-path:url(#clip-path);}.cls-3{fill:url(#linear-gradient);}.cls-4{clip-path:url(#clip-path-2);}.cls-5{fill:url(#linear-gradient-2);}.cls-6{clip-path:url(#clip-path-3);}.cls-7{fill:url(#linear-gradient-3);}.cls-8{clip-path:url(#clip-path-4);}.cls-9{fill:url(#linear-gradient-4);}.cls-10{clip-path:url(#clip-path-5);}.cls-11{fill:url(#linear-gradient-5);}.cls-12{clip-path:url(#clip-path-6);}.cls-13{fill:url(#linear-gradient-6);}.cls-14{clip-path:url(#clip-path-7);}.cls-15{fill:url(#linear-gradient-7);}.cls-16{clip-path:url(#clip-path-8);}.cls-17{fill:url(#linear-gradient-8);}.cls-18{clip-path:url(#clip-path-9);}.cls-19{fill:url(#linear-gradient-9);}.cls-20{clip-path:url(#clip-path-10);}.cls-21{fill:url(#linear-gradient-10);}.cls-22{clip-path:url(#clip-path-11);}.cls-23{fill:url(#linear-gradient-11);}</style>
  <clipPath id="clip-path">
   <path class="cls-1" d="m136.73,13.8a1,1 0 0 0 0.69,1.32a16.59,16.59 0 0 1 8.15,6.09c0.23,0.38 0.71,1.12 1.11,1.89a16,16 0 0 1 1.79,7a1.18,1.18 0 0 0 0.14,0.55a1,1 0 0 0 1.15,0.45a1,1 0 0 0 0.72,-1.07a18.3,18.3 0 0 0 -8.28,-14.86a17.82,17.82 0 0 0 -4.17,-2a1.19,1.19 0 0 0 -0.37,-0.06a1,1 0 0 0 -0.93,0.66" id="svg_1"/>
  </clipPath>
  <clipPath id="clip-path-2">
   <path class="cls-1" d="m135.17,17.37a1,1 0 0 0 0.68,1.27a12.4,12.4 0 0 1 8.79,11.88a1,1 0 0 0 1,1.08a1,1 0 0 0 1,-1.06a14.2,14.2 0 0 0 -2.64,-8.41a15.48,15.48 0 0 0 -2.14,-2.39a14.28,14.28 0 0 0 -5.38,-3a1.06,1.06 0 0 0 -0.35,0a1,1 0 0 0 -1,0.7" id="svg_2"/>
  </clipPath>
  <clipPath id="clip-path-3">
   <path class="cls-1" d="m133.8,20.58a1,1 0 0 0 -0.13,1.07a1.11,1.11 0 0 0 0.76,0.57a8.38,8.38 0 0 1 5.7,4.92a8,8 0 0 1 0.67,3.75a1,1 0 0 0 0.28,0.83a0.94,0.94 0 0 0 1.08,0.24a1,1 0 0 0 0.65,-0.9a10.48,10.48 0 0 0 -2,-6.84a10.63,10.63 0 0 0 -1.88,-2a10.45,10.45 0 0 0 -4.07,-2l-0.26,0a1,1 0 0 0 -0.76,0.38" id="svg_3"/>
  </clipPath>
  <clipPath id="clip-path-4">
   <path class="cls-1" d="m132.19,24.21a1,1 0 0 0 -0.09,1a1,1 0 0 0 0.86,0.58a4.67,4.67 0 0 1 3.94,3.78a4.8,4.8 0 0 1 0,1.69a1,1 0 1 0 2,0.31a6.69,6.69 0 0 0 -5.78,-7.79l-0.12,0a0.93,0.93 0 0 0 -0.78,0.41" id="svg_4"/>
  </clipPath>
  <clipPath id="clip-path-5">
   <path class="cls-1" d="m63.78,87.64a6.65,6.65 0 0 0 6.8,7a6.21,6.21 0 0 0 5,-2.24l-0.39,-0.4a5.55,5.55 0 0 1 -4.61,2.15a6.5,6.5 0 0 1 0,-13a5.57,5.57 0 0 1 4.61,2.14l0.37,-0.4a6.18,6.18 0 0 0 -5,-2.25a6.64,6.64 0 0 0 -6.8,7" id="svg_5"/>
  </clipPath>
  <clipPath id="clip-path-6">
   <path class="cls-1" d="m79.2,90.75c0,-1.85 1.23,-3.19 4.37,-3.19l5.27,0l0,3a5.25,5.25 0 0 1 -5.27,3.54c-2.76,0 -4.37,-1.32 -4.37,-3.4m-0.16,-8l0.37,0.38a7.29,7.29 0 0 1 5,-1.93c2.86,0 4.39,1.47 4.39,4.36l0,1.53l-5.21,0c-3.69,0 -4.93,1.74 -4.93,3.72c0,2.33 1.8,3.88 4.91,3.88a5.45,5.45 0 0 0 5.27,-3l0,2.94l0.53,0l0,-9.08c0,-3.16 -1.74,-4.85 -5,-4.85a7.91,7.91 0 0 0 -5.37,2.06" id="svg_6"/>
  </clipPath>
  <clipPath id="clip-path-7">
   <path class="cls-1" d="m95.9,84.32l0,-3.59l-0.53,0l0,13.84l0.53,0l0,-7.44c0,-3.67 2,-5.94 5.28,-5.94l0.16,0l0,-0.54a5.26,5.26 0 0 0 -5.44,3.67" id="svg_7"/>
  </clipPath>
  <clipPath id="clip-path-8">
   <path class="cls-1" d="m104.12,87.64a6.19,6.19 0 1 1 12.37,0c0,3.83 -2.65,6.51 -6.18,6.51a6.14,6.14 0 0 1 -6.19,-6.51m12.37,-12.93l0,10.23a6.42,6.42 0 0 0 -6.18,-4.29a7,7 0 0 0 0,14a6.4,6.4 0 0 0 6.18,-4.31l0,4.23l0.51,0l0,-19.86l-0.51,0z" id="svg_8"/>
  </clipPath>
  <clipPath id="clip-path-9">
   <path class="cls-1" d="m88.8,39l0,0.09l0,0l0,10.65l3,0l0,-7.74l13.74,0c6.2,0 9,2.22 9,5.61c0,3.08 -2.68,5.37 -9,5.37l-30.27,0c-6.2,0 -9,-2.22 -9,-5.61c0,-3.08 2.68,-5.37 9,-5.37l10.49,0l0,-3l-10.37,0c-8.79,0 -12,3.56 -12,8.28c0,5 3.51,8.72 12.18,8.72l30,0c6.28,0 9,2.3 9,5.38c0,3.38 -2.76,5.61 -9,5.61l-13.77,0l0,-7.46l-3,0l0,10.3l0,0l0,0.17l16.49,0c8.67,0 12.18,-3.73 12.18,-8.73a7.11,7.11 0 0 0 -4.13,-6.77a7.12,7.12 0 0 0 4.13,-6.78c0,-5 -3.51,-8.72 -12.18,-8.72l-16.49,0z" id="svg_9"/>
  </clipPath>
  <clipPath id="clip-path-10">
   <path class="cls-1" d="m63.34,61.68l0,0c0,4.72 3.26,8.28 12,8.28l10.42,0l0,-2.96l-10.49,0c-6.23,0 -8.91,-2.25 -9,-5.29l-2.93,-0.03z" id="svg_10"/>
  </clipPath>
  <clipPath id="clip-path-11">
   <path class="cls-1" d="m49.56,94.55l0,-55.45a10.89,10.89 0 0 1 10.88,-10.88l59.93,0a10.89,10.89 0 0 1 10.88,10.88l0,55.45a10.89,10.89 0 0 1 -10.88,10.88l-59.93,0a10.89,10.89 0 0 1 -10.88,-10.88m10.88,-67.08a11.65,11.65 0 0 0 -11.63,11.63l0,55.45a11.64,11.64 0 0 0 11.63,11.62l59.93,0a11.64,11.64 0 0 0 11.63,-11.62l0,-55.45a11.65,11.65 0 0 0 -11.63,-11.63l-59.93,0z" id="svg_11"/>
  </clipPath>
 </defs>
 <title>new JOSIA smart business card to print 2023</title>
 <g class="layer">
  <title>Layer 1</title>
  <g class="cls-2" id="svg_12" transform="matrix(1 0 0 1 0 0)">
   <rect class="cls-3" fill="#ffffff" height="22.22" id="svg_13" transform="translate(36.85 120.75) rotate(-51.53 180.355 142.95)" width="22.89" x="132.06" y="11.09"/>
  </g>
  <g class="cls-4" id="svg_14" transform="matrix(1 0 0 1 0 0)">
   <rect class="cls-5" fill="#ffffff" height="18.43" id="svg_15" transform="rotate(-51.53 175.15 143.525)" width="18.96" x="165.67" y="134.31"/>
  </g>
  <g class="cls-6" id="svg_16" transform="matrix(1 0 0 1 0 0)">
   <rect class="cls-7" fill="#ffffff" height="14.81" id="svg_17" transform="translate(31.75 118.11) rotate(-51.53 169.975 144.275)" width="15.21" x="130.62" y="18.76"/>
  </g>
  <g class="cls-8" id="svg_18">
   <rect class="cls-9" height="11.13" id="svg_19" transform="rotate(-51.53 1.74643e-8 1) translate(29.18 116.79)" width="11.37" x="129.89" y="23.6"/>
  </g>
  <g class="cls-10" id="svg_20">
   <rect class="cls-11" fill="#ffffff" height="17.93" id="svg_21" transform="translate(-42.3 87.68) rotate(-51.53 27.375 175.335)" width="18.29" x="60.53" y="78.69"/>
  </g>
  <g class="cls-12" id="svg_22">
   <rect class="cls-13" fill="#ffffff" height="17.1" id="svg_23" transform="translate(-36.88 98.91) rotate(-51.53 47.14 186.57)" width="17.62" x="75.21" y="79.11"/>
  </g>
  <g class="cls-14" id="svg_24">
   <rect class="cls-15" fill="#ffffff" height="13.34" id="svg_25" transform="translate(-31.43 110.12) rotate(-51.53 66.925 197.74)" width="14.61" x="91.05" y="80.95"/>
  </g>
  <g class="cls-16" id="svg_26">
   <rect class="cls-17" fill="#ffffff" height="22.93" id="svg_27" transform="translate(-24.61 118.37) rotate(-51.53 85.7 203.055)" width="23.98" x="98.32" y="73.22"/>
  </g>
  <g class="cls-18" id="svg_28">
   <rect class="cls-19" fill="#ffffff" height="61.67" id="svg_29" transform="translate(-8.5 91.38) rotate(-51.53 81.9 145.875)" width="57.94" x="61.43" y="23.66"/>
  </g>
  <g class="cls-20" id="svg_30">
   <rect class="cls-21" fill="#ffffff" height="22.72" id="svg_31" transform="translate(-23.37 83.25) rotate(-51.53 51.17 149.08)" width="20.44" x="64.32" y="54.47"/>
  </g>
  <g class="cls-22" id="svg_32">
   <rect class="cls-23" fill="#ffffff" height="114.09" id="svg_33" transform="translate(-18.15 96.04) rotate(-51.53 72.255 162.865)" width="113.37" x="33.72" y="9.78"/>
  </g>
 </g>
</svg>