<svg id="Layer_1" data-name="Layer 1" xmlns="http://www.w3.org/2000/svg" xmlns:xlink="http://www.w3.org/1999/xlink" viewBox="0 0 64.16 38.76"><defs><style>.cls-1{fill:url(#linear-gradient);}.cls-2{fill:url(#linear-gradient-2);}.cls-3{fill:url(#linear-gradient-3);}.cls-4{fill:url(#linear-gradient-4);}</style><linearGradient id="linear-gradient" x1="27.04" y1="10.01" x2="41.67" y2="21.98" gradientUnits="userSpaceOnUse"><stop offset="0" stop-color="#009fe3"/><stop offset="1" stop-color="#672783"/></linearGradient><linearGradient id="linear-gradient-2" x1="24.96" y1="12.55" x2="39.59" y2="24.53" xlink:href="#linear-gradient"/><linearGradient id="linear-gradient-3" x1="22.87" y1="15.1" x2="37.51" y2="27.07" xlink:href="#linear-gradient"/><linearGradient id="linear-gradient-4" x1="20.77" y1="17.67" x2="35.4" y2="29.64" xlink:href="#linear-gradient"/></defs><title>new JOSIA smart business card to print 2023</title><path class="cls-1" d="M38.81,17.79a16.61,16.61,0,0,0-8.16-6.09,1,1,0,1,1,.62-1.92,17.82,17.82,0,0,1,4.17,2,18.3,18.3,0,0,1,8.28,14.86A1,1,0,0,1,43,27.72a1,1,0,0,1-1.15-.45,1.37,1.37,0,0,1-.15-.55,15.83,15.83,0,0,0-1.78-7C39.52,18.91,39,18.17,38.81,17.79Z"/><path class="cls-2" d="M37.22,18.71a14.12,14.12,0,0,1,2.67,8.41,1,1,0,0,1-1,1.06,1,1,0,0,1-1-1.16,7.64,7.64,0,0,0-.2-2.82c-1.51-4.71-4.41-7.67-8.6-9a1,1,0,1,1,.62-1.92,14.13,14.13,0,0,1,5.38,3A15,15,0,0,1,37.22,18.71Z"/><path class="cls-3" d="M34,20.8a10.46,10.46,0,0,1,2,6.84,1,1,0,0,1-.65.9.94.94,0,0,1-1.08-.24,1.06,1.06,0,0,1-.28-.91,7.52,7.52,0,0,0-.77-3.89,8.4,8.4,0,0,0-5.6-4.7,1.08,1.08,0,0,1-.76-.58A.92.92,0,0,1,27,17.16a1,1,0,0,1,1-.35,10.52,10.52,0,0,1,4.07,2A10.63,10.63,0,0,1,34,20.8Z"/><path class="cls-4" d="M30.93,23.07a6.69,6.69,0,0,1,1.21,5.1,1,1,0,1,1-2-.3,4.8,4.8,0,0,0,0-1.69,4.69,4.69,0,0,0-3.94-3.79,1,1,0,0,1-.86-.57,1,1,0,0,1,.09-1,1,1,0,0,1,.93-.4A6.66,6.66,0,0,1,30.93,23.07Z"/></svg>